<?xml version="1.0" encoding="utf-8"?>
<!-- Generator: Adobe Illustrator 27.5.0, SVG Export Plug-In . SVG Version: 6.00 Build 0)  -->
<svg version="1.1" xmlns="http://www.w3.org/2000/svg" xmlns:xlink="http://www.w3.org/1999/xlink" x="0px" y="0px"
	 viewBox="0 0 750 500" style="enable-background:new 0 0 750 500;" xml:space="preserve">
<g id="Background_Simple">
	<g>
		<path style="fill:#92E3A9;" d="M624.214,453.253c-11.023-2.806-22.209-5.072-33.554-6.599
			c-51.47-6.926-170.118-9.333-227.624-7.202c-74.652,2.767-311.226,49.147-329.1,6.725C16.061,403.754,21.318,92.965,56.016,86.51
			c34.698-6.456,157.716,18.949,230.265,20.794c72.549,1.845,246.037-22.638,317.535-25.405
			c71.498-2.767,77.806,7.378,94.629,61.789c16.823,54.411,34.698,233.322,31.543,274.822
			C727.307,453.785,650.938,460.056,624.214,453.253z"/>
		<path style="opacity:0.7;fill:#FFFFFF;" d="M624.214,453.253c-11.023-2.806-22.209-5.072-33.554-6.599
			c-51.47-6.926-170.118-9.333-227.624-7.202c-74.652,2.767-311.226,49.147-329.1,6.725C16.061,403.754,21.318,92.965,56.016,86.51
			c34.698-6.456,157.716,18.949,230.265,20.794c72.549,1.845,246.037-22.638,317.535-25.405
			c71.498-2.767,77.806,7.378,94.629,61.789c16.823,54.411,34.698,233.322,31.543,274.822
			C727.307,453.785,650.938,460.056,624.214,453.253z"/>
	</g>
</g>
<g id="Clouds">
	<path style="fill:none;stroke:#263238;stroke-miterlimit:10;" d="M167.284,99.447c0,0-3.636-15.27-23.268-16.724
		c-19.633-1.454-20.36,11.634-26.904,15.997c-6.544,4.363-10.907-6.544-20.36-2.181c-9.453,4.363-7.271,10.18-12.361,11.634
		c-5.09,1.454-3.636-2.181-10.907-0.727c-7.271,1.454-6.544,4.363-10.18,6.544c-3.636,2.181-2.909,0-7.271,0.727
		c-4.363,0.727-8.726,4.363-8.726,4.363h151.971c0,0-4.542-18.256-10.907-20.36C174.667,94.191,169.466,105.991,167.284,99.447z"/>
	<path style="fill:none;stroke:#263238;stroke-miterlimit:10;" d="M508.74,180.923c0,0-2.582-10.843-16.523-11.876
		c-13.941-1.033-14.458,8.262-19.105,11.36c-4.647,3.098-7.745-4.647-14.458-1.549c-6.712,3.098-5.163,7.229-8.778,8.262
		c-3.615,1.033-2.582-1.549-7.745-0.516c-5.163,1.033-4.647,3.098-7.229,4.647c-2.582,1.549-2.065,0-5.164,0.516
		c-3.098,0.516-6.196,3.098-6.196,3.098H531.46c0,0-3.225-12.964-7.745-14.458C513.983,177.191,510.289,185.571,508.74,180.923z"/>
	<path style="fill:none;stroke:#263238;stroke-miterlimit:10;" d="M450.902,96.062c0,0-5.712-23.992-36.559-26.276
		c-30.846-2.285-31.989,18.279-42.271,25.134c-10.282,6.855-17.137-10.282-31.989-3.427c-14.852,6.855-11.425,15.994-19.422,18.279
		c-7.997,2.285-5.712-3.427-17.137-1.143c-11.424,2.285-10.282,6.855-15.994,10.282c-5.712,3.427-4.57,0-11.425,1.143
		c-6.855,1.142-13.709,6.855-13.709,6.855h238.773c0,0-7.136-28.684-17.137-31.989C462.502,87.803,454.33,106.344,450.902,96.062z"
		/>
</g>
<g id="Sun">
	<g>
		
			<ellipse transform="matrix(0.9737 -0.2277 0.2277 0.9737 -0.2241 137.7945)" style="fill:#92E3A9;stroke:#263238;stroke-miterlimit:10;" cx="597.142" cy="69.868" rx="21.213" ry="21.213"/>
		<line style="fill:none;stroke:#263238;stroke-miterlimit:10;" x1="597.142" y1="32.959" x2="597.142" y2="43.141"/>
		<line style="fill:none;stroke:#263238;stroke-miterlimit:10;" x1="597.142" y1="96.596" x2="597.142" y2="106.778"/>
		<line style="fill:none;stroke:#263238;stroke-miterlimit:10;" x1="634.052" y1="69.868" x2="623.87" y2="69.868"/>
		<line style="fill:none;stroke:#263238;stroke-miterlimit:10;" x1="570.414" y1="69.868" x2="560.232" y2="69.868"/>
		<line style="fill:none;stroke:#263238;stroke-miterlimit:10;" x1="623.241" y1="43.769" x2="616.042" y2="50.969"/>
		<line style="fill:none;stroke:#263238;stroke-miterlimit:10;" x1="578.243" y1="88.768" x2="571.043" y2="95.967"/>
		<line style="fill:none;stroke:#263238;stroke-miterlimit:10;" x1="571.043" y1="43.769" x2="578.243" y2="50.969"/>
		<line style="fill:none;stroke:#263238;stroke-miterlimit:10;" x1="616.042" y1="88.768" x2="623.241" y2="95.967"/>
	</g>
</g>
<g id="Trees">
	<g>
		<path style="fill:#92E3A9;" d="M725.846,270.277c0,38.542-22.8,69.786-50.925,69.786s-50.925-31.244-50.925-69.786
			s22.8-171.008,50.925-171.008S725.846,231.735,725.846,270.277z"/>
		<polygon style="fill:#878787;" points="703.476,290.441 688.055,296.144 691.15,286.862 683.778,297.727 676.417,300.449 
			675.891,269.968 702.68,234.377 688.323,248.734 690.752,238.751 683.884,253.173 675.742,261.315 674.921,213.693 
			672.003,283.148 646.617,256.246 660.561,275.202 647.412,273.741 663.654,279.407 671.701,290.345 670.294,323.832 
			660.931,317.479 670.002,330.763 665.702,429.414 678.704,429.414 676.501,305.312 		"/>
		<g>
			<path style="fill:#FFFFFF;" d="M702.937,213.844c0,0,0.471,4.679-2.086,8.113c-2.557,3.435-7.175,4.325-7.175,4.325
				s-0.471-4.678,2.086-8.113C698.32,214.734,702.937,213.844,702.937,213.844z"/>
			<path style="fill:#FFFFFF;" d="M718.286,235.409c0,0,0.471,4.679-2.086,8.113c-2.557,3.435-7.175,4.325-7.175,4.325
				s-0.471-4.679,2.086-8.113C713.668,236.299,718.286,235.409,718.286,235.409z"/>
			<path style="fill:#FFFFFF;" d="M718.279,277.396c0,0-1.131,4.564-4.695,6.937c-3.564,2.373-8.212,1.657-8.212,1.657
				s1.132-4.564,4.696-6.937C713.632,276.68,718.279,277.396,718.279,277.396z"/>
			<path style="fill:#FFFFFF;" d="M633.984,277.396c0,0,1.131,4.564,4.696,6.937c3.564,2.373,8.211,1.657,8.211,1.657
				s-1.131-4.564-4.696-6.937C638.632,276.68,633.984,277.396,633.984,277.396z"/>
			<path style="fill:#FFFFFF;" d="M700.552,259.967c0,0,0.471,4.679-2.087,8.113c-2.557,3.435-7.175,4.325-7.175,4.325
				s-0.471-4.678,2.086-8.113C695.934,260.857,700.552,259.967,700.552,259.967z"/>
			<path style="fill:#FFFFFF;" d="M696.575,190.385c0,0,0.471,4.678-2.087,8.113c-2.557,3.435-7.174,4.325-7.174,4.325
				s-0.471-4.678,2.086-8.113C691.958,191.275,696.575,190.385,696.575,190.385z"/>
			<path style="fill:#FFFFFF;" d="M687.43,208.277c0,0,0.471,4.678-2.086,8.113c-2.557,3.435-7.175,4.325-7.175,4.325
				s-0.471-4.679,2.086-8.113C682.813,209.167,687.43,208.277,687.43,208.277z"/>
			<path style="fill:#FFFFFF;" d="M709.141,195.25c0,0,0.471,4.679-2.086,8.114c-2.557,3.434-7.175,4.324-7.175,4.324
				s-0.471-4.679,2.086-8.113C704.523,196.14,709.141,195.25,709.141,195.25z"/>
			<path style="fill:#FFFFFF;" d="M638.592,195.25c0,0-0.471,4.679,2.086,8.114c2.557,3.434,7.174,4.324,7.174,4.324
				s0.471-4.679-2.086-8.113C643.209,196.14,638.592,195.25,638.592,195.25z"/>
			<path style="fill:#FFFFFF;" d="M698.563,168.516c0,0,0.471,4.679-2.086,8.113c-2.557,3.435-7.175,4.325-7.175,4.325
				s-0.471-4.678,2.087-8.113C693.946,169.406,698.563,168.516,698.563,168.516z"/>
			<path style="fill:#FFFFFF;" d="M694.069,145.285c0,0,1.631,4.41,0.019,8.377c-1.612,3.967-5.858,5.988-5.858,5.988
				s-1.631-4.41-0.019-8.377C689.824,147.307,694.069,145.285,694.069,145.285z"/>
			<path style="fill:#FFFFFF;" d="M661.866,139.215c0,0,4.165,2.182,5.625,6.208c1.46,4.026-0.338,8.37-0.338,8.37
				s-4.166-2.182-5.626-6.207C660.067,143.56,661.866,139.215,661.866,139.215z"/>
			<path style="fill:#FFFFFF;" d="M676.883,166.994c0,0,2.967,3.648,2.722,7.923c-0.246,4.275-3.612,7.559-3.612,7.559
				s-2.967-3.648-2.721-7.923C673.517,170.277,676.883,166.994,676.883,166.994z"/>
			<path style="fill:#FFFFFF;" d="M676.088,125.642c0,0,2.967,3.648,2.721,7.923c-0.246,4.275-3.611,7.559-3.611,7.559
				s-2.967-3.648-2.722-7.923C672.722,128.925,676.088,125.642,676.088,125.642z"/>
			<path style="fill:#FFFFFF;" d="M642.384,213.844c0,0-0.471,4.679,2.086,8.113c2.557,3.435,7.175,4.325,7.175,4.325
				s0.471-4.678-2.087-8.113C647.001,214.734,642.384,213.844,642.384,213.844z"/>
			<path style="fill:#FFFFFF;" d="M633.636,239.291c0,0-0.471,4.679,2.087,8.113c2.557,3.435,7.175,4.325,7.175,4.325
				s0.471-4.679-2.086-8.113C638.253,240.181,633.636,239.291,633.636,239.291z"/>
			<path style="fill:#FFFFFF;" d="M656.856,248.53c0,0-0.471,4.679,2.086,8.113c2.557,3.435,7.175,4.325,7.175,4.325
				s0.471-4.679-2.087-8.113C661.474,249.42,656.856,248.53,656.856,248.53z"/>
			<path style="fill:#FFFFFF;" d="M663.205,213.27c0,0-1.791,4.348-0.324,8.371c1.467,4.023,5.636,6.198,5.636,6.198
				s1.791-4.348,0.324-8.371C667.374,215.445,663.205,213.27,663.205,213.27z"/>
			<path style="fill:#FFFFFF;" d="M646.762,307.097c0,0,4.701,0.086,7.915-2.744c3.213-2.83,3.722-7.505,3.722-7.505
				s-4.702-0.086-7.915,2.745C647.271,302.422,646.762,307.097,646.762,307.097z"/>
			<path style="fill:#FFFFFF;" d="M691.877,301.954c0,0,1.277,4.525,4.916,6.783c3.638,2.258,8.26,1.393,8.26,1.393
				s-1.277-4.525-4.916-6.783C696.499,301.089,691.877,301.954,691.877,301.954z"/>
			<path style="fill:#FFFFFF;" d="M652.007,190.385c0,0-0.471,4.678,2.086,8.113c2.558,3.435,7.175,4.325,7.175,4.325
				s0.471-4.678-2.087-8.113C656.624,191.275,652.007,190.385,652.007,190.385z"/>
			<path style="fill:#FFFFFF;" d="M651.926,169.708c0,0-0.471,4.678,2.087,8.113c2.557,3.435,7.175,4.325,7.175,4.325
				s0.471-4.679-2.086-8.113C656.544,170.598,651.926,169.708,651.926,169.708z"/>
		</g>
	</g>
	<g>
		<path style="fill:#92E3A9;" d="M380.506,301.452c0,30.992-18.334,56.115-40.949,56.115c-22.615,0-40.949-25.124-40.949-56.115
			s18.333-137.507,40.949-137.507C362.173,163.945,380.506,270.461,380.506,301.452z"/>
		<polygon style="fill:#878787;" points="362.518,317.666 350.118,322.252 352.607,314.789 346.679,323.525 340.76,325.714 
			340.337,301.204 361.879,272.585 350.334,284.129 352.287,276.102 346.764,287.699 340.218,294.246 339.557,255.953 
			337.211,311.802 316.797,290.17 328.01,305.413 317.437,304.238 330.498,308.794 336.968,317.589 335.836,344.516 
			328.307,339.407 335.602,350.089 332.144,429.414 342.599,429.414 340.827,329.624 		"/>
		<g>
			<path style="fill:#FFFFFF;" d="M362.085,256.074c0,0,0.379,3.762-1.677,6.524c-2.057,2.762-5.769,3.477-5.769,3.477
				s-0.379-3.762,1.678-6.524C358.372,256.79,362.085,256.074,362.085,256.074z"/>
			<path style="fill:#FFFFFF;" d="M374.427,273.415c0,0,0.379,3.762-1.678,6.524c-2.056,2.762-5.769,3.478-5.769,3.478
				s-0.379-3.762,1.678-6.524C370.714,274.131,374.427,273.415,374.427,273.415z"/>
			<path style="fill:#FFFFFF;" d="M374.422,307.177c0,0-0.91,3.67-3.776,5.578c-2.866,1.909-6.603,1.333-6.603,1.333
				s0.91-3.67,3.776-5.578C370.685,306.601,374.422,307.177,374.422,307.177z"/>
			<path style="fill:#FFFFFF;" d="M306.64,307.177c0,0,0.91,3.67,3.776,5.578c2.866,1.909,6.603,1.333,6.603,1.333
				s-0.91-3.67-3.776-5.578C310.377,306.601,306.64,307.177,306.64,307.177z"/>
			<path style="fill:#FFFFFF;" d="M360.167,293.162c0,0,0.379,3.762-1.678,6.524c-2.056,2.762-5.769,3.478-5.769,3.478
				s-0.379-3.762,1.678-6.524C356.454,293.878,360.167,293.162,360.167,293.162z"/>
			<path style="fill:#FFFFFF;" d="M356.969,237.211c0,0,0.379,3.762-1.678,6.524c-2.056,2.762-5.769,3.477-5.769,3.477
				s-0.379-3.762,1.677-6.524C353.257,237.926,356.969,237.211,356.969,237.211z"/>
			<path style="fill:#FFFFFF;" d="M349.616,251.598c0,0,0.379,3.762-1.678,6.524c-2.057,2.762-5.769,3.477-5.769,3.477
				s-0.379-3.762,1.678-6.524C345.903,252.314,349.616,251.598,349.616,251.598z"/>
			<path style="fill:#FFFFFF;" d="M367.073,241.123c0,0,0.379,3.762-1.678,6.524c-2.056,2.762-5.769,3.477-5.769,3.477
				s-0.379-3.762,1.678-6.524C363.36,241.838,367.073,241.123,367.073,241.123z"/>
			<path style="fill:#FFFFFF;" d="M310.345,241.123c0,0-0.379,3.762,1.678,6.524c2.056,2.762,5.769,3.477,5.769,3.477
				s0.379-3.762-1.678-6.524C314.057,241.838,310.345,241.123,310.345,241.123z"/>
			<path style="fill:#FFFFFF;" d="M358.568,219.626c0,0,0.379,3.762-1.678,6.524c-2.056,2.762-5.769,3.478-5.769,3.478
				s-0.379-3.762,1.678-6.524C354.855,220.342,358.568,219.626,358.568,219.626z"/>
			<path style="fill:#FFFFFF;" d="M354.954,200.947c0,0,1.312,3.546,0.015,6.736c-1.297,3.19-4.711,4.815-4.711,4.815
				s-1.312-3.546-0.015-6.736C351.54,202.572,354.954,200.947,354.954,200.947z"/>
			<path style="fill:#FFFFFF;" d="M329.059,196.065c0,0,3.349,1.755,4.523,4.991c1.174,3.237-0.272,6.73-0.272,6.73
				s-3.35-1.754-4.524-4.991S329.059,196.065,329.059,196.065z"/>
			<path style="fill:#FFFFFF;" d="M341.135,218.402c0,0,2.386,2.933,2.189,6.371c-0.198,3.438-2.904,6.078-2.904,6.078
				s-2.386-2.933-2.188-6.371C338.428,221.042,341.135,218.402,341.135,218.402z"/>
			<path style="fill:#FFFFFF;" d="M340.495,185.151c0,0,2.386,2.933,2.188,6.371c-0.198,3.438-2.904,6.078-2.904,6.078
				s-2.386-2.933-2.189-6.371C337.789,187.791,340.495,185.151,340.495,185.151z"/>
			<path style="fill:#FFFFFF;" d="M313.394,256.074c0,0-0.379,3.762,1.678,6.524c2.056,2.762,5.769,3.477,5.769,3.477
				s0.379-3.762-1.678-6.524C317.107,256.79,313.394,256.074,313.394,256.074z"/>
			<path style="fill:#FFFFFF;" d="M306.36,276.537c0,0-0.378,3.762,1.678,6.524c2.056,2.762,5.769,3.477,5.769,3.477
				s0.379-3.762-1.678-6.524C310.073,277.252,306.36,276.537,306.36,276.537z"/>
			<path style="fill:#FFFFFF;" d="M325.031,283.966c0,0-0.379,3.762,1.678,6.524c2.056,2.762,5.769,3.477,5.769,3.477
				s0.379-3.762-1.678-6.524C328.744,284.681,325.031,283.966,325.031,283.966z"/>
			<path style="fill:#FFFFFF;" d="M330.136,255.613c0,0-1.44,3.496-0.261,6.731c1.179,3.235,4.532,4.984,4.532,4.984
				s1.44-3.496,0.261-6.731C333.488,257.362,330.136,255.613,330.136,255.613z"/>
			<path style="fill:#FFFFFF;" d="M316.915,331.059c0,0,3.78,0.069,6.364-2.207c2.584-2.276,2.993-6.035,2.993-6.035
				s-3.781-0.069-6.364,2.207C317.324,327.3,316.915,331.059,316.915,331.059z"/>
			<path style="fill:#FFFFFF;" d="M353.191,326.923c0,0,1.027,3.639,3.953,5.454c2.926,1.815,6.642,1.12,6.642,1.12
				s-1.027-3.639-3.953-5.454C356.908,326.228,353.191,326.923,353.191,326.923z"/>
			<path style="fill:#FFFFFF;" d="M321.132,237.211c0,0-0.379,3.762,1.678,6.524c2.057,2.762,5.769,3.477,5.769,3.477
				s0.378-3.762-1.678-6.524C324.845,237.926,321.132,237.211,321.132,237.211z"/>
			<path style="fill:#FFFFFF;" d="M321.067,220.585c0,0-0.379,3.762,1.678,6.524c2.056,2.762,5.769,3.478,5.769,3.478
				s0.378-3.762-1.678-6.524C324.78,221.301,321.067,220.585,321.067,220.585z"/>
		</g>
	</g>
	<g>
		<path style="fill:#92E3A9;" d="M285.483,327.311c0,24.729-14.629,44.775-32.674,44.775c-18.045,0-32.674-20.046-32.674-44.775
			s14.629-109.719,32.674-109.719C270.854,217.592,285.483,302.583,285.483,327.311z"/>
		<polygon style="fill:#878787;" points="271.129,340.249 261.236,343.908 263.221,337.953 258.491,344.923 253.769,346.67 
			253.432,327.113 270.619,304.278 261.408,313.489 262.966,307.084 258.559,316.338 253.336,321.561 252.809,291.007 
			250.937,335.569 234.649,318.309 243.596,330.471 235.159,329.534 245.58,333.169 250.743,340.187 249.84,361.673 
			243.833,357.596 249.653,366.119 246.894,429.414 255.236,429.414 253.822,349.79 		"/>
		<g>
			<path style="fill:#FFFFFF;" d="M270.784,291.104c0,0,0.302,3.002-1.339,5.206c-1.641,2.204-4.603,2.775-4.603,2.775
				s-0.302-3.002,1.339-5.206C267.822,291.675,270.784,291.104,270.784,291.104z"/>
			<path style="fill:#FFFFFF;" d="M280.632,304.94c0,0,0.302,3.002-1.339,5.205c-1.641,2.204-4.603,2.775-4.603,2.775
				s-0.302-3.002,1.339-5.206C277.669,305.511,280.632,304.94,280.632,304.94z"/>
			<path style="fill:#FFFFFF;" d="M280.628,331.879c0,0-0.726,2.928-3.013,4.451c-2.287,1.523-5.269,1.063-5.269,1.063
				s0.726-2.928,3.013-4.451C277.646,331.42,280.628,331.879,280.628,331.879z"/>
			<path style="fill:#FFFFFF;" d="M226.544,331.879c0,0,0.726,2.928,3.013,4.451c2.287,1.523,5.268,1.063,5.268,1.063
				s-0.726-2.928-3.013-4.451C229.526,331.42,226.544,331.879,226.544,331.879z"/>
			<path style="fill:#FFFFFF;" d="M269.253,320.697c0,0,0.302,3.002-1.339,5.206c-1.641,2.204-4.603,2.775-4.603,2.775
				s-0.302-3.002,1.339-5.205C266.291,321.268,269.253,320.697,269.253,320.697z"/>
			<path style="fill:#FFFFFF;" d="M266.702,276.052c0,0,0.302,3.002-1.339,5.206c-1.641,2.204-4.603,2.775-4.603,2.775
				s-0.302-3.002,1.338-5.205C263.74,276.623,266.702,276.052,266.702,276.052z"/>
			<path style="fill:#FFFFFF;" d="M260.835,287.532c0,0,0.302,3.002-1.339,5.205c-1.641,2.204-4.603,2.775-4.603,2.775
				s-0.302-3.002,1.339-5.205C257.872,288.103,260.835,287.532,260.835,287.532z"/>
			<path style="fill:#FFFFFF;" d="M274.764,279.174c0,0,0.302,3.002-1.339,5.206c-1.641,2.204-4.603,2.775-4.603,2.775
				s-0.302-3.002,1.339-5.206C271.802,279.745,274.764,279.174,274.764,279.174z"/>
			<path style="fill:#FFFFFF;" d="M229.5,279.174c0,0-0.302,3.002,1.339,5.206c1.641,2.204,4.603,2.775,4.603,2.775
				s0.302-3.002-1.339-5.206C232.462,279.745,229.5,279.174,229.5,279.174z"/>
			<path style="fill:#FFFFFF;" d="M267.978,262.021c0,0,0.302,3.002-1.339,5.206c-1.641,2.204-4.603,2.775-4.603,2.775
				s-0.302-3.002,1.339-5.206C265.015,262.592,267.978,262.021,267.978,262.021z"/>
			<path style="fill:#FFFFFF;" d="M265.094,247.116c0,0,1.047,2.83,0.012,5.375c-1.035,2.545-3.759,3.842-3.759,3.842
				s-1.047-2.829-0.012-5.375C262.371,248.413,265.094,247.116,265.094,247.116z"/>
			<path style="fill:#FFFFFF;" d="M244.432,243.222c0,0,2.673,1.4,3.609,3.983c0.937,2.583-0.217,5.37-0.217,5.37
				s-2.673-1.4-3.609-3.983C243.279,246.009,244.432,243.222,244.432,243.222z"/>
			<path style="fill:#FFFFFF;" d="M254.068,261.045c0,0,1.904,2.34,1.746,5.083c-0.158,2.743-2.318,4.85-2.318,4.85
				s-1.904-2.34-1.746-5.083C251.908,263.151,254.068,261.045,254.068,261.045z"/>
			<path style="fill:#FFFFFF;" d="M253.557,234.513c0,0,1.904,2.34,1.746,5.083c-0.158,2.743-2.317,4.85-2.317,4.85
				s-1.904-2.341-1.746-5.084C251.398,236.62,253.557,234.513,253.557,234.513z"/>
			<path style="fill:#FFFFFF;" d="M231.933,291.104c0,0-0.302,3.002,1.338,5.206c1.641,2.204,4.604,2.775,4.604,2.775
				s0.302-3.002-1.339-5.206C234.895,291.675,231.933,291.104,231.933,291.104z"/>
			<path style="fill:#FFFFFF;" d="M226.32,307.431c0,0-0.302,3.002,1.339,5.206c1.641,2.204,4.603,2.775,4.603,2.775
				s0.302-3.002-1.339-5.206C229.283,308.002,226.32,307.431,226.32,307.431z"/>
			<path style="fill:#FFFFFF;" d="M241.218,313.359c0,0-0.302,3.002,1.339,5.205c1.641,2.204,4.603,2.775,4.603,2.775
				s0.302-3.002-1.339-5.206C244.181,313.93,241.218,313.359,241.218,313.359z"/>
			<path style="fill:#FFFFFF;" d="M245.292,290.735c0,0-1.149,2.789-0.208,5.371c0.941,2.581,3.616,3.977,3.616,3.977
				s1.149-2.79,0.208-5.371C247.967,292.131,245.292,290.735,245.292,290.735z"/>
			<path style="fill:#FFFFFF;" d="M234.742,350.935c0,0,3.017,0.055,5.078-1.761c2.062-1.816,2.388-4.815,2.388-4.815
				s-3.016-0.055-5.078,1.761C235.068,347.936,234.742,350.935,234.742,350.935z"/>
			<path style="fill:#FFFFFF;" d="M263.688,347.635c0,0,0.819,2.903,3.154,4.352c2.334,1.449,5.3,0.894,5.3,0.894
				s-0.819-2.904-3.154-4.352C266.653,347.081,263.688,347.635,263.688,347.635z"/>
			<path style="fill:#FFFFFF;" d="M238.107,276.052c0,0-0.302,3.002,1.339,5.206c1.641,2.204,4.603,2.775,4.603,2.775
				s0.302-3.002-1.339-5.205C241.07,276.623,238.107,276.052,238.107,276.052z"/>
			<path style="fill:#FFFFFF;" d="M238.055,262.786c0,0-0.302,3.002,1.339,5.206c1.641,2.204,4.603,2.775,4.603,2.775
				s0.302-3.002-1.339-5.206C241.018,263.357,238.055,262.786,238.055,262.786z"/>
		</g>
	</g>
</g>
<g id="Windmills">
	<g>
		<polygon style="fill:#FFFFFF;stroke:#263238;stroke-miterlimit:10;" points="73.902,429.414 62.727,429.414 65.968,211.12 
			70.661,211.12 		"/>
		<polygon style="fill:#263238;stroke:#263238;stroke-miterlimit:10;" points="70.924,228.851 70.661,211.12 65.968,211.12 
			65.704,228.851 		"/>
		<g>
			<ellipse style="fill:#92E3A9;stroke:#263238;stroke-miterlimit:10;" cx="68.389" cy="174.486" rx="6.604" ry="34.35"/>
			
				<ellipse transform="matrix(0.4911 -0.8711 0.8711 0.4911 -147.6288 201.2362)" style="fill:#92E3A9;stroke:#263238;stroke-miterlimit:10;" cx="98.415" cy="226.967" rx="6.604" ry="34.35"/>
			<path style="fill:#92E3A9;stroke:#263238;stroke-miterlimit:10;" d="M41.457,232.72c16.526-9.316,28.471-19.445,26.68-22.622
				c-1.791-3.177-16.64,1.8-33.166,11.117c-16.526,9.317-28.471,19.445-26.68,22.622C10.082,247.014,24.931,242.036,41.457,232.72z"
				/>
			<path style="fill:#FFFFFF;stroke:#263238;stroke-miterlimit:10;" d="M75.261,209.497c0-3.971-3.219-7.19-7.19-7.19
				c-3.971,0-7.189,3.219-7.189,7.19c0,3.971,3.219,7.19,7.189,7.19C72.043,216.687,75.261,213.468,75.261,209.497z"/>
		</g>
	</g>
	<g>
		<polygon style="fill:#FFFFFF;stroke:#263238;stroke-miterlimit:10;" points="165.491,429.414 151.743,429.414 155.73,160.865 
			161.504,160.865 		"/>
		<polygon style="fill:#263238;stroke:#263238;stroke-miterlimit:10;" points="161.828,182.678 161.504,160.865 155.73,160.865 
			155.406,182.678 		"/>
		<g>
			<ellipse style="fill:#92E3A9;stroke:#263238;stroke-miterlimit:10;" cx="158.709" cy="115.797" rx="8.124" ry="42.258"/>
			
				<ellipse transform="matrix(0.4911 -0.8711 0.8711 0.4911 -57.5473 262.2176)" style="fill:#92E3A9;stroke:#263238;stroke-miterlimit:10;" cx="195.647" cy="180.361" rx="8.124" ry="42.258"/>
			<path style="fill:#92E3A9;stroke:#263238;stroke-miterlimit:10;" d="M125.576,187.438c20.33-11.461,35.025-23.921,32.822-27.83
				c-2.203-3.908-20.471,2.214-40.801,13.676c-20.331,11.461-35.025,23.921-32.822,27.829
				C86.978,205.022,105.246,198.899,125.576,187.438z"/>
			<circle style="fill:#FFFFFF;stroke:#263238;stroke-miterlimit:10;" cx="158.318" cy="158.869" r="8.845"/>
		</g>
	</g>
</g>
<g id="Power_Plant">
	<g>
		<g>
			
				<rect x="231.986" y="337.872" transform="matrix(-1 -1.224647e-16 1.224647e-16 -1 543.5649 767.2868)" style="fill:#FFFFFF;stroke:#263238;stroke-miterlimit:10;" width="79.593" height="91.542"/>
			
				<rect x="210.188" y="337.872" transform="matrix(-1 -1.224647e-16 1.224647e-16 -1 467.0929 767.2868)" style="fill:#CCCCCC;stroke:#263238;stroke-miterlimit:10;" width="46.717" height="91.542"/>
			<g>
				<g>
					
						<rect x="222.958" y="362.668" transform="matrix(-1 -1.224647e-16 1.224647e-16 -1 464.2199 763.1777)" style="fill:#FFFFFF;stroke:#263238;stroke-miterlimit:10;" width="18.304" height="37.842"/>
					
						<rect x="217.945" y="362.668" transform="matrix(-1 -1.224647e-16 1.224647e-16 -1 446.6339 763.1777)" style="fill:#CCCCCC;stroke:#263238;stroke-miterlimit:10;" width="10.743" height="37.842"/>
				</g>
				<line style="fill:none;stroke:#263238;stroke-miterlimit:10;" x1="227.006" y1="364.859" x2="219.644" y2="364.859"/>
				<line style="fill:none;stroke:#263238;stroke-miterlimit:10;" x1="227.006" y1="367.194" x2="219.644" y2="367.194"/>
				<line style="fill:none;stroke:#263238;stroke-miterlimit:10;" x1="227.006" y1="369.528" x2="219.644" y2="369.528"/>
				<line style="fill:none;stroke:#263238;stroke-miterlimit:10;" x1="227.006" y1="371.862" x2="219.644" y2="371.862"/>
				<line style="fill:none;stroke:#263238;stroke-miterlimit:10;" x1="227.006" y1="374.196" x2="219.644" y2="374.196"/>
			</g>
			
				<rect x="208.725" y="334.559" transform="matrix(-1 -1.224647e-16 1.224647e-16 -1 522.6846 673.9493)" style="fill:#808080;stroke:#263238;stroke-miterlimit:10;" width="105.236" height="4.831"/>
			<rect x="208.725" y="334.559" style="fill:#454545;stroke:#263238;stroke-miterlimit:10;" width="50.72" height="4.831"/>
			<path style="fill:#92E3A9;" d="M276.643,357.047h2.42v-2.768h11.132v2.768h2.42c3.945,0,7.154,3.209,7.154,7.154v39.93
				c0,3.945-3.209,7.154-7.154,7.154h-15.971c-3.945,0-7.155-3.209-7.155-7.154v-39.93
				C269.488,360.256,272.698,357.047,276.643,357.047z M272.431,404.131c0,2.322,1.89,4.211,4.212,4.211h15.971
				c2.322,0,4.211-1.889,4.211-4.211v-39.93c0-2.322-1.889-4.211-4.211-4.211h-15.971c-2.322,0-4.212,1.889-4.212,4.211V404.131z"/>
			<g>
				
					<rect x="273.978" y="364.473" transform="matrix(-1 -1.224647e-16 1.224647e-16 -1 569.5886 737.5336)" style="fill:#92E3A9;" width="21.633" height="8.587"/>
				
					<rect x="273.978" y="374.868" transform="matrix(-1 -1.224647e-16 1.224647e-16 -1 569.5886 758.3226)" style="fill:#92E3A9;" width="21.633" height="8.587"/>
				
					<rect x="273.978" y="385.262" transform="matrix(-1 -1.224647e-16 1.224647e-16 -1 569.5886 779.1116)" style="fill:#92E3A9;" width="21.633" height="8.587"/>
				
					<rect x="273.978" y="395.657" transform="matrix(-1 -1.224647e-16 1.224647e-16 -1 569.5886 799.9005)" style="fill:#92E3A9;" width="21.633" height="8.587"/>
			</g>
		</g>
		<g>
			
				<rect x="134.006" y="337.872" transform="matrix(-1 -1.224647e-16 1.224647e-16 -1 347.6046 767.2868)" style="fill:#FFFFFF;stroke:#263238;stroke-miterlimit:10;" width="79.593" height="91.542"/>
			
				<rect x="112.208" y="337.872" transform="matrix(-1 -1.224647e-16 1.224647e-16 -1 271.1326 767.2868)" style="fill:#CCCCCC;stroke:#263238;stroke-miterlimit:10;" width="46.717" height="91.542"/>
			<g>
				<g>
					
						<rect x="124.978" y="362.668" transform="matrix(-1 -1.224647e-16 1.224647e-16 -1 268.2595 763.1777)" style="fill:#FFFFFF;stroke:#263238;stroke-miterlimit:10;" width="18.304" height="37.842"/>
					
						<rect x="119.965" y="362.668" transform="matrix(-1 -1.224647e-16 1.224647e-16 -1 250.6737 763.1777)" style="fill:#CCCCCC;stroke:#263238;stroke-miterlimit:10;" width="10.743" height="37.842"/>
				</g>
				<line style="fill:none;stroke:#263238;stroke-miterlimit:10;" x1="129.026" y1="364.859" x2="121.664" y2="364.859"/>
				<line style="fill:none;stroke:#263238;stroke-miterlimit:10;" x1="129.026" y1="367.194" x2="121.664" y2="367.194"/>
				<line style="fill:none;stroke:#263238;stroke-miterlimit:10;" x1="129.026" y1="369.528" x2="121.664" y2="369.528"/>
				<line style="fill:none;stroke:#263238;stroke-miterlimit:10;" x1="129.026" y1="371.862" x2="121.664" y2="371.862"/>
				<line style="fill:none;stroke:#263238;stroke-miterlimit:10;" x1="129.026" y1="374.196" x2="121.664" y2="374.196"/>
			</g>
			
				<rect x="110.744" y="334.559" transform="matrix(-1 -1.224647e-16 1.224647e-16 -1 326.7242 673.9493)" style="fill:#808080;stroke:#263238;stroke-miterlimit:10;" width="105.236" height="4.831"/>
			<rect x="110.744" y="334.559" style="fill:#454545;stroke:#263238;stroke-miterlimit:10;" width="50.72" height="4.831"/>
			<path style="fill:#92E3A9;" d="M178.663,357.047h2.42v-2.768h11.132v2.768h2.42c3.945,0,7.154,3.209,7.154,7.154v39.93
				c0,3.945-3.209,7.154-7.154,7.154h-15.971c-3.945,0-7.155-3.209-7.155-7.154v-39.93
				C171.508,360.256,174.718,357.047,178.663,357.047z M174.451,404.131c0,2.322,1.89,4.211,4.212,4.211h15.971
				c2.322,0,4.211-1.889,4.211-4.211v-39.93c0-2.322-1.889-4.211-4.211-4.211h-15.971c-2.322,0-4.212,1.889-4.212,4.211V404.131z"/>
			<g>
				
					<rect x="175.998" y="364.473" transform="matrix(-1 -1.224647e-16 1.224647e-16 -1 373.6283 737.5336)" style="fill:#92E3A9;" width="21.633" height="8.587"/>
				
					<rect x="175.998" y="374.868" transform="matrix(-1 -1.224647e-16 1.224647e-16 -1 373.6283 758.3226)" style="fill:#92E3A9;" width="21.633" height="8.587"/>
				
					<rect x="175.998" y="385.262" transform="matrix(-1 -1.224647e-16 1.224647e-16 -1 373.6283 779.1116)" style="fill:#92E3A9;" width="21.633" height="8.587"/>
				
					<rect x="175.998" y="395.657" transform="matrix(-1 -1.224647e-16 1.224647e-16 -1 373.6283 799.9005)" style="fill:#92E3A9;" width="21.633" height="8.587"/>
			</g>
		</g>
		<g>
			<path style="fill:#92E3A9;stroke:#263238;stroke-miterlimit:10;" d="M97.05,429.025h0.526c1.243,0,2.25-1.007,2.25-2.25v-38.543
				c0-1.242-1.007-2.25-2.25-2.25H97.05c-1.243,0-2.25,1.007-2.25,2.25v38.543C94.8,428.018,95.807,429.025,97.05,429.025z"/>
			<path style="fill:#92E3A9;stroke:#263238;stroke-miterlimit:10;" d="M93.327,422.388h8.066c0.439,0,0.859,0.183,1.158,0.505
				l3.589,3.868c0.938,1.011,0.221,2.654-1.158,2.654H89.738c-1.379,0-2.095-1.643-1.158-2.654l3.589-3.868
				C92.469,422.571,92.888,422.388,93.327,422.388z"/>
			<path style="fill:#92E3A9;stroke:#263238;stroke-miterlimit:10;" d="M93.327,415.898h8.066c0.439,0,0.859,0.183,1.158,0.505
				l3.589,3.868c0.938,1.011,0.221,2.654-1.158,2.654H89.738c-1.379,0-2.095-1.643-1.158-2.654l3.589-3.868
				C92.469,416.081,92.888,415.898,93.327,415.898z"/>
			<path style="fill:#92E3A9;stroke:#263238;stroke-miterlimit:10;" d="M93.327,409.409h8.066c0.439,0,0.859,0.183,1.158,0.505
				l3.589,3.868c0.938,1.011,0.221,2.654-1.158,2.654H89.738c-1.379,0-2.095-1.643-1.158-2.654l3.589-3.868
				C92.469,409.592,92.888,409.409,93.327,409.409z"/>
			<path style="fill:#92E3A9;stroke:#263238;stroke-miterlimit:10;" d="M93.327,402.919h8.066c0.439,0,0.859,0.183,1.158,0.505
				l3.589,3.868c0.938,1.011,0.221,2.654-1.158,2.654H89.738c-1.379,0-2.095-1.643-1.158-2.654l3.589-3.868
				C92.469,403.102,92.888,402.919,93.327,402.919z"/>
			<path style="fill:#92E3A9;stroke:#263238;stroke-miterlimit:10;" d="M93.327,396.429h8.066c0.439,0,0.859,0.183,1.158,0.505
				l3.589,3.868c0.938,1.011,0.221,2.654-1.158,2.654H89.738c-1.379,0-2.095-1.643-1.158-2.654l3.589-3.868
				C92.469,396.612,92.888,396.429,93.327,396.429z"/>
			<path style="fill:#92E3A9;stroke:#263238;stroke-miterlimit:10;" d="M93.327,389.94h8.066c0.439,0,0.859,0.183,1.158,0.505
				l3.589,3.868c0.938,1.011,0.221,2.654-1.158,2.654H89.738c-1.379,0-2.095-1.643-1.158-2.654l3.589-3.868
				C92.469,390.123,92.888,389.94,93.327,389.94z"/>
		</g>
		<g>
			<path style="fill:#92E3A9;stroke:#263238;stroke-miterlimit:10;" d="M152.56,429.025h0.526c1.242,0,2.25-1.007,2.25-2.25v-38.543
				c0-1.242-1.007-2.25-2.25-2.25h-0.526c-1.242,0-2.25,1.007-2.25,2.25v38.543C150.31,428.018,151.317,429.025,152.56,429.025z"/>
			<path style="fill:#92E3A9;stroke:#263238;stroke-miterlimit:10;" d="M148.837,422.388h8.066c0.439,0,0.859,0.183,1.158,0.505
				l3.59,3.868c0.938,1.011,0.221,2.654-1.158,2.654h-15.245c-1.379,0-2.095-1.643-1.158-2.654l3.589-3.868
				C147.979,422.571,148.398,422.388,148.837,422.388z"/>
			<path style="fill:#92E3A9;stroke:#263238;stroke-miterlimit:10;" d="M148.837,415.898h8.066c0.439,0,0.859,0.183,1.158,0.505
				l3.59,3.868c0.938,1.011,0.221,2.654-1.158,2.654h-15.245c-1.379,0-2.095-1.643-1.158-2.654l3.589-3.868
				C147.979,416.081,148.398,415.898,148.837,415.898z"/>
			<path style="fill:#92E3A9;stroke:#263238;stroke-miterlimit:10;" d="M148.837,409.409h8.066c0.439,0,0.859,0.183,1.158,0.505
				l3.59,3.868c0.938,1.011,0.221,2.654-1.158,2.654h-15.245c-1.379,0-2.095-1.643-1.158-2.654l3.589-3.868
				C147.979,409.592,148.398,409.409,148.837,409.409z"/>
			<path style="fill:#92E3A9;stroke:#263238;stroke-miterlimit:10;" d="M148.837,402.919h8.066c0.439,0,0.859,0.183,1.158,0.505
				l3.59,3.868c0.938,1.011,0.221,2.654-1.158,2.654h-15.245c-1.379,0-2.095-1.643-1.158-2.654l3.589-3.868
				C147.979,403.102,148.398,402.919,148.837,402.919z"/>
			<path style="fill:#92E3A9;stroke:#263238;stroke-miterlimit:10;" d="M148.837,396.429h8.066c0.439,0,0.859,0.183,1.158,0.505
				l3.59,3.868c0.938,1.011,0.221,2.654-1.158,2.654h-15.245c-1.379,0-2.095-1.643-1.158-2.654l3.589-3.868
				C147.979,396.612,148.398,396.429,148.837,396.429z"/>
			<path style="fill:#92E3A9;stroke:#263238;stroke-miterlimit:10;" d="M148.837,389.94h8.066c0.439,0,0.859,0.183,1.158,0.505
				l3.59,3.868c0.938,1.011,0.221,2.654-1.158,2.654h-15.245c-1.379,0-2.095-1.643-1.158-2.654l3.589-3.868
				C147.979,390.123,148.398,389.94,148.837,389.94z"/>
		</g>
		<g>
			<path style="fill:#92E3A9;stroke:#263238;stroke-miterlimit:10;" d="M328.459,429.025h0.526c1.242,0,2.25-1.007,2.25-2.25
				v-38.543c0-1.242-1.007-2.25-2.25-2.25h-0.526c-1.242,0-2.25,1.007-2.25,2.25v38.543
				C326.209,428.018,327.216,429.025,328.459,429.025z"/>
			<path style="fill:#92E3A9;stroke:#263238;stroke-miterlimit:10;" d="M324.736,422.388h8.066c0.439,0,0.859,0.183,1.158,0.505
				l3.589,3.868c0.938,1.011,0.221,2.654-1.158,2.654h-15.244c-1.379,0-2.096-1.643-1.158-2.654l3.589-3.868
				C323.878,422.571,324.297,422.388,324.736,422.388z"/>
			<path style="fill:#92E3A9;stroke:#263238;stroke-miterlimit:10;" d="M324.736,415.898h8.066c0.439,0,0.859,0.183,1.158,0.505
				l3.589,3.868c0.938,1.011,0.221,2.654-1.158,2.654h-15.244c-1.379,0-2.096-1.643-1.158-2.654l3.589-3.868
				C323.878,416.081,324.297,415.898,324.736,415.898z"/>
			<path style="fill:#92E3A9;stroke:#263238;stroke-miterlimit:10;" d="M324.736,409.409h8.066c0.439,0,0.859,0.183,1.158,0.505
				l3.589,3.868c0.938,1.011,0.221,2.654-1.158,2.654h-15.244c-1.379,0-2.096-1.643-1.158-2.654l3.589-3.868
				C323.878,409.592,324.297,409.409,324.736,409.409z"/>
			<path style="fill:#92E3A9;stroke:#263238;stroke-miterlimit:10;" d="M324.736,402.919h8.066c0.439,0,0.859,0.183,1.158,0.505
				l3.589,3.868c0.938,1.011,0.221,2.654-1.158,2.654h-15.244c-1.379,0-2.096-1.643-1.158-2.654l3.589-3.868
				C323.878,403.102,324.297,402.919,324.736,402.919z"/>
			<path style="fill:#92E3A9;stroke:#263238;stroke-miterlimit:10;" d="M324.736,396.429h8.066c0.439,0,0.859,0.183,1.158,0.505
				l3.589,3.868c0.938,1.011,0.221,2.654-1.158,2.654h-15.244c-1.379,0-2.096-1.643-1.158-2.654l3.589-3.868
				C323.878,396.612,324.297,396.429,324.736,396.429z"/>
			<path style="fill:#92E3A9;stroke:#263238;stroke-miterlimit:10;" d="M324.736,389.94h8.066c0.439,0,0.859,0.183,1.158,0.505
				l3.589,3.868c0.938,1.011,0.221,2.654-1.158,2.654h-15.244c-1.379,0-2.096-1.643-1.158-2.654l3.589-3.868
				C323.878,390.123,324.297,389.94,324.736,389.94z"/>
		</g>
	</g>
</g>
<g id="House">
	<g>
		
			<rect x="453.821" y="287.128" transform="matrix(-1 -1.224647e-16 1.224647e-16 -1 1040.3475 716.4526)" style="fill:#FFFFFF;stroke:#263238;stroke-miterlimit:10;" width="132.705" height="142.196"/>
		<polygon style="fill:#FFFFFF;stroke:#263238;stroke-miterlimit:10;" points="376.378,278.525 420.113,221.332 455.421,278.525 
			455.421,429.324 376.378,429.324 		"/>
		<polygon style="fill:#263238;stroke:#263238;stroke-miterlimit:10;" points="426.754,213.415 377.039,307.664 360.461,307.664 
			410.176,213.415 		"/>
		<polygon style="fill:#263238;stroke:#263238;stroke-miterlimit:10;" points="411.601,213.415 551.152,213.415 600.867,307.664 
			461.316,307.664 		"/>
		
			<rect x="402.667" y="353.718" transform="matrix(-1 -1.224647e-16 1.224647e-16 -1 836.5548 783.1321)" style="fill:#FFFFFF;stroke:#263238;stroke-miterlimit:10;" width="31.221" height="75.697"/>
		<g>
			<polyline style="fill:#FFFFFF;stroke:#263238;stroke-miterlimit:10;" points="469.876,330.934 469.876,314.849 501.097,314.849 
				501.097,361.157 469.876,361.157 469.876,337.822 			"/>
			
				<rect x="472.576" y="318.852" transform="matrix(-1 -1.224647e-16 1.224647e-16 -1 970.9736 676.0061)" style="fill:#FFFFFF;stroke:#263238;stroke-miterlimit:10;" width="25.822" height="38.301"/>
			
				<rect x="483.95" y="318.852" transform="matrix(-1 -1.224647e-16 1.224647e-16 -1 970.9735 676.0061)" style="fill:#FFFFFF;stroke:#263238;stroke-miterlimit:10;" width="3.073" height="38.301"/>
		</g>
		<g>
			<polyline style="fill:#FFFFFF;stroke:#263238;stroke-miterlimit:10;" points="415.896,313.254 403.724,313.254 403.724,266.945 
				434.944,266.945 434.944,313.254 421.063,313.254 			"/>
			
				<rect x="406.423" y="270.949" transform="matrix(-1 -1.224647e-16 1.224647e-16 -1 838.668 580.1987)" style="fill:#FFFFFF;stroke:#263238;stroke-miterlimit:10;" width="25.822" height="38.301"/>
			
				<rect x="417.797" y="270.949" transform="matrix(-1 -1.224647e-16 1.224647e-16 -1 838.668 580.1987)" style="fill:#FFFFFF;stroke:#263238;stroke-miterlimit:10;" width="3.073" height="38.301"/>
		</g>
		<g>
			
				<rect x="469.876" y="369.14" transform="matrix(-1 -1.224647e-16 1.224647e-16 -1 970.9735 784.5879)" style="fill:#FFFFFF;stroke:#263238;stroke-miterlimit:10;" width="31.221" height="46.309"/>
			
				<rect x="472.576" y="373.143" transform="matrix(-1 -1.224647e-16 1.224647e-16 -1 970.9736 784.5879)" style="fill:#FFFFFF;stroke:#263238;stroke-miterlimit:10;" width="25.822" height="38.301"/>
			
				<rect x="483.95" y="373.143" transform="matrix(-1 -1.224647e-16 1.224647e-16 -1 970.9735 784.5879)" style="fill:#FFFFFF;stroke:#263238;stroke-miterlimit:10;" width="3.073" height="38.301"/>
		</g>
		<g>
			
				<rect x="537.854" y="314.849" transform="matrix(-1 -1.224647e-16 1.224647e-16 -1 1106.9288 676.0061)" style="fill:#FFFFFF;stroke:#263238;stroke-miterlimit:10;" width="31.221" height="46.309"/>
			
				<rect x="540.553" y="318.852" transform="matrix(-1 -1.224647e-16 1.224647e-16 -1 1106.9288 676.0061)" style="fill:#FFFFFF;stroke:#263238;stroke-miterlimit:10;" width="25.822" height="38.301"/>
			<polyline style="fill:#FFFFFF;stroke:#263238;stroke-miterlimit:10;" points="551.928,326.456 551.928,318.852 555.001,318.852 
				555.001,357.154 551.928,357.154 551.928,331.278 			"/>
		</g>
		<g>
			
				<rect x="537.854" y="369.14" transform="matrix(-1 -1.224647e-16 1.224647e-16 -1 1106.9288 784.5879)" style="fill:#FFFFFF;stroke:#263238;stroke-miterlimit:10;" width="31.221" height="46.309"/>
			
				<rect x="540.553" y="373.143" transform="matrix(-1 -1.224647e-16 1.224647e-16 -1 1106.9288 784.5879)" style="fill:#FFFFFF;stroke:#263238;stroke-miterlimit:10;" width="25.822" height="38.301"/>
			
				<rect x="551.928" y="373.143" transform="matrix(-1 -1.224647e-16 1.224647e-16 -1 1106.9288 784.5879)" style="fill:#FFFFFF;stroke:#263238;stroke-miterlimit:10;" width="3.073" height="38.301"/>
		</g>
		<g>
			<g>
				<polygon style="fill:#FFFFFF;stroke:#263238;stroke-miterlimit:10;" points="427.781,219.566 483.87,219.566 503.852,257.447 
					447.762,257.447 				"/>
				<polygon style="fill:#92E3A9;stroke:#263238;stroke-miterlimit:10;" points="431.842,221.588 481.942,221.588 499.791,255.424 
					449.69,255.424 				"/>
				<g>
					<line style="fill:#92E3A9;stroke:#263238;stroke-miterlimit:10;" x1="440.748" y1="221.588" x2="458.596" y2="255.424"/>
					<line style="fill:#92E3A9;stroke:#263238;stroke-miterlimit:10;" x1="451.295" y1="221.588" x2="469.143" y2="255.424"/>
					<line style="fill:#92E3A9;stroke:#263238;stroke-miterlimit:10;" x1="461.842" y1="221.588" x2="479.69" y2="255.424"/>
					<line style="fill:#92E3A9;stroke:#263238;stroke-miterlimit:10;" x1="472.388" y1="221.588" x2="490.237" y2="255.424"/>
				</g>
				<line style="fill:#92E3A9;stroke:#263238;stroke-miterlimit:10;" x1="485.639" y1="228.472" x2="435.717" y2="228.472"/>
				<line style="fill:#92E3A9;stroke:#263238;stroke-miterlimit:10;" x1="489.858" y1="236.909" x2="439.936" y2="236.909"/>
				<line style="fill:#92E3A9;stroke:#263238;stroke-miterlimit:10;" x1="494.076" y1="245.347" x2="444.155" y2="245.347"/>
			</g>
			<g>
				<polygon style="fill:#FFFFFF;stroke:#263238;stroke-miterlimit:10;" points="447.73,257.565 503.819,257.565 523.801,295.446 
					467.712,295.446 				"/>
				<polygon style="fill:#92E3A9;stroke:#263238;stroke-miterlimit:10;" points="451.791,259.587 501.892,259.587 519.74,293.424 
					469.64,293.424 				"/>
				<g>
					<line style="fill:#92E3A9;stroke:#263238;stroke-miterlimit:10;" x1="460.697" y1="259.587" x2="478.546" y2="293.424"/>
					<line style="fill:#92E3A9;stroke:#263238;stroke-miterlimit:10;" x1="471.244" y1="259.587" x2="489.093" y2="293.424"/>
					<line style="fill:#92E3A9;stroke:#263238;stroke-miterlimit:10;" x1="481.791" y1="259.587" x2="499.639" y2="293.424"/>
					<line style="fill:#92E3A9;stroke:#263238;stroke-miterlimit:10;" x1="492.338" y1="259.587" x2="510.186" y2="293.424"/>
				</g>
				<line style="fill:#92E3A9;stroke:#263238;stroke-miterlimit:10;" x1="505.588" y1="266.471" x2="455.667" y2="266.471"/>
				<line style="fill:#92E3A9;stroke:#263238;stroke-miterlimit:10;" x1="509.807" y1="274.908" x2="459.886" y2="274.908"/>
				<line style="fill:#92E3A9;stroke:#263238;stroke-miterlimit:10;" x1="514.026" y1="283.346" x2="464.104" y2="283.346"/>
			</g>
		</g>
		<g>
			<g>
				<polygon style="fill:#FFFFFF;stroke:#263238;stroke-miterlimit:10;" points="491.207,219.566 547.296,219.566 567.278,257.447 
					511.189,257.447 				"/>
				<polygon style="fill:#92E3A9;stroke:#263238;stroke-miterlimit:10;" points="495.268,221.588 545.368,221.588 563.217,255.424 
					513.116,255.424 				"/>
				<g>
					<line style="fill:#92E3A9;stroke:#263238;stroke-miterlimit:10;" x1="504.174" y1="221.588" x2="522.022" y2="255.424"/>
					<line style="fill:#92E3A9;stroke:#263238;stroke-miterlimit:10;" x1="514.721" y1="221.588" x2="532.569" y2="255.424"/>
					<line style="fill:#92E3A9;stroke:#263238;stroke-miterlimit:10;" x1="525.268" y1="221.588" x2="543.116" y2="255.424"/>
					<line style="fill:#92E3A9;stroke:#263238;stroke-miterlimit:10;" x1="535.815" y1="221.588" x2="553.663" y2="255.424"/>
				</g>
				<line style="fill:#92E3A9;stroke:#263238;stroke-miterlimit:10;" x1="549.065" y1="228.472" x2="499.143" y2="228.472"/>
				<line style="fill:#92E3A9;stroke:#263238;stroke-miterlimit:10;" x1="553.284" y1="236.909" x2="503.362" y2="236.909"/>
				<line style="fill:#92E3A9;stroke:#263238;stroke-miterlimit:10;" x1="557.502" y1="245.347" x2="507.581" y2="245.347"/>
			</g>
			<g>
				<polygon style="fill:#FFFFFF;stroke:#263238;stroke-miterlimit:10;" points="511.156,257.565 567.245,257.565 587.227,295.446 
					531.138,295.446 				"/>
				<polygon style="fill:#92E3A9;stroke:#263238;stroke-miterlimit:10;" points="515.217,259.587 565.318,259.587 583.166,293.424 
					533.066,293.424 				"/>
				<g>
					<line style="fill:#92E3A9;stroke:#263238;stroke-miterlimit:10;" x1="524.124" y1="259.587" x2="541.972" y2="293.424"/>
					<line style="fill:#92E3A9;stroke:#263238;stroke-miterlimit:10;" x1="534.67" y1="259.587" x2="552.519" y2="293.424"/>
					<line style="fill:#92E3A9;stroke:#263238;stroke-miterlimit:10;" x1="545.217" y1="259.587" x2="563.065" y2="293.424"/>
					<line style="fill:#92E3A9;stroke:#263238;stroke-miterlimit:10;" x1="555.764" y1="259.587" x2="573.612" y2="293.424"/>
				</g>
				<line style="fill:#92E3A9;stroke:#263238;stroke-miterlimit:10;" x1="569.014" y1="266.471" x2="519.093" y2="266.471"/>
				<line style="fill:#92E3A9;stroke:#263238;stroke-miterlimit:10;" x1="573.233" y1="274.908" x2="523.312" y2="274.908"/>
				<line style="fill:#92E3A9;stroke:#263238;stroke-miterlimit:10;" x1="577.452" y1="283.346" x2="527.531" y2="283.346"/>
			</g>
		</g>
	</g>
</g>
<g id="Solar_Panel">
	<g>
		
			<rect x="350.928" y="392.273" transform="matrix(-1 -1.224647e-16 1.224647e-16 -1 708.5684 821.2371)" style="fill:#263238;stroke:#263238;stroke-miterlimit:10;" width="6.712" height="36.69"/>
		
			<rect x="422.519" y="392.273" transform="matrix(-1 -1.224647e-16 1.224647e-16 -1 851.7501 821.2371)" style="fill:#263238;stroke:#263238;stroke-miterlimit:10;" width="6.712" height="36.69"/>
		<g>
			<polygon style="fill:#FFFFFF;stroke:#263238;stroke-miterlimit:10;" points="334.82,360.439 427.847,360.439 460.988,423.267 
				367.961,423.267 			"/>
			<polygon style="fill:#92E3A9;stroke:#263238;stroke-miterlimit:10;" points="341.556,363.793 424.65,363.793 454.252,419.913 
				371.158,419.913 			"/>
			<g>
				<line style="fill:#92E3A9;stroke:#263238;stroke-miterlimit:10;" x1="356.327" y1="363.793" x2="385.929" y2="419.913"/>
				<line style="fill:#92E3A9;stroke:#263238;stroke-miterlimit:10;" x1="373.819" y1="363.793" x2="403.422" y2="419.913"/>
				<line style="fill:#92E3A9;stroke:#263238;stroke-miterlimit:10;" x1="391.312" y1="363.793" x2="420.914" y2="419.913"/>
				<line style="fill:#92E3A9;stroke:#263238;stroke-miterlimit:10;" x1="408.804" y1="363.793" x2="438.407" y2="419.913"/>
			</g>
			<line style="fill:#92E3A9;stroke:#263238;stroke-miterlimit:10;" x1="430.781" y1="375.21" x2="347.984" y2="375.21"/>
			<line style="fill:#92E3A9;stroke:#263238;stroke-miterlimit:10;" x1="437.778" y1="389.204" x2="354.98" y2="389.204"/>
			<line style="fill:#92E3A9;stroke:#263238;stroke-miterlimit:10;" x1="444.775" y1="403.198" x2="361.978" y2="403.198"/>
		</g>
	</g>
</g>
<g id="Car">
	<g>
		<g>
			<rect x="619.536" y="389.227" style="fill:#263238;stroke:#263238;stroke-miterlimit:10;" width="17.275" height="29.906"/>
			<path style="fill:#263238;stroke:#263238;stroke-miterlimit:10;" d="M611.033,397.591h-6.837c-3.312,0-5.997,7.124-5.997,15.912
				s2.685,15.912,5.997,15.912h6.837c3.312,0,5.997-7.124,5.997-15.912S614.345,397.591,611.033,397.591z"/>
			<g>
				<path style="fill:#263238;stroke:#263238;stroke-miterlimit:10;" d="M617.804,395.408c-3.923,0-7.103,7.613-7.103,17.003
					s3.18,17.003,7.103,17.003h8.098v-34.006H617.804z"/>
				<ellipse style="fill:#707070;stroke:#263238;stroke-miterlimit:10;" cx="625.902" cy="412.411" rx="7.103" ry="17.003"/>
				<ellipse style="fill:#FFFFFF;stroke:#263238;stroke-miterlimit:10;" cx="625.902" cy="412.411" rx="4.922" ry="11.781"/>
			</g>
			<path style="fill:#263238;stroke:#263238;stroke-miterlimit:10;" d="M681.205,415.417c1.78-2.67,2.693-5.243,3.158-7.381v-7.86
				c-1.356-5.113-6.061-8.917-9.182-10.95h-8.093v29.906h13.2C680.168,417.865,680.413,416.606,681.205,415.417z"/>
			<g>
				<path style="fill:#263238;stroke:#263238;stroke-miterlimit:10;" d="M670.115,397.591c-3.312,0-5.997,7.124-5.997,15.912
					s2.685,15.912,5.997,15.912h6.837v-31.823H670.115z"/>
				<ellipse style="fill:#707070;stroke:#263238;stroke-miterlimit:10;" cx="676.952" cy="413.503" rx="5.997" ry="15.912"/>
				<ellipse style="fill:#FFFFFF;stroke:#263238;stroke-miterlimit:10;" cx="676.952" cy="413.503" rx="4.156" ry="11.025"/>
			</g>
			<path style="fill:#263238;stroke:#263238;stroke-miterlimit:10;" d="M553.448,395.408h-8.098c-3.923,0-7.103,7.613-7.103,17.003
				s3.18,17.003,7.103,17.003h8.098c3.923,0,7.103-7.613,7.103-17.003S557.371,395.408,553.448,395.408z"/>
			<g>
				<path style="fill:#92E3A9;stroke:#263238;stroke-miterlimit:10;" d="M682.69,392.159c-2.008-5.25-2.471-8.648-5.405-12.199
					c-2.934-3.552-4.015-5.096-4.015-5.096s-6.022-11.736-8.339-13.743c-2.316-2.008-12.508-5.559-20.538-7.104
					c-8.03-1.544-33.201-2.779-53.893,0.927c0,0-8.03,0.772-15.597,5.405c-7.567,4.633-18.84,14.979-21.773,16.523
					c-2.934,1.544-4.478,0.154-7.721,3.861c-3.243,3.706-5.868,8.03-5.868,8.03s-5.096,5.868-5.714,8.957
					c-0.618,3.089-0.772,6.795-0.463,9.729c0.309,2.934,2.78,11.118,4.015,12.663c1.235,1.544,4.044,2.028,6.669,1.719
					c2.625-0.309,14.487-0.792,27.458-1.101c12.971-0.309,23.318,0.463,25.789,0.772c2.471,0.309,9.574,0.463,11.891,0.154
					c2.316-0.309,3.397,0,5.559-2.625c2.162-2.625,2.625-5.096,2.779-6.486c0.154-1.39,1.853-18.376,7.567-20.693
					c5.714-2.316,8.339,6.022,9.42,11.427c1.081,5.405-1.39,14.361-2.008,15.288c-0.618,0.927-0.154,1.235,1.235,1.39
					c1.39,0.154,33.818,0,33.818,0s2.471-1.853,2.934-4.787c0.463-2.934,3.552-16.06,6.177-18.685
					c2.625-2.625,6.023-0.926,6.949,4.015c0.523,2.789,0.357,5.43-0.053,7.563c-0.167,0.869-0.375,1.65-0.593,2.326
					c-0.007,0.609-0.012,1.266-0.016,1.954c0.766-0.74,1.877-2.632,2.052-5.511C685.315,401.733,684.697,397.409,682.69,392.159z"/>
				<path style="fill:#C2C2C2;stroke:#263238;stroke-miterlimit:10;" d="M632.811,356.024c0,0-6.331,10.655-8.339,13.28
					c-2.007,2.625-7.258,4.787-18.839,6.022c-11.582,1.235-31.193,2.162-37.216,1.39c-6.022-0.772-8.493-1.699-8.493-1.699
					s11.118-11.891,16.369-15.288C581.543,356.333,621.847,354.017,632.811,356.024z"/>
				<g>
					<path style="fill:#8C8C8C;stroke:#263238;stroke-miterlimit:10;" d="M646.092,356.487c0,0-6.022-1.235-9.265,1.39
						c-3.243,2.625-9.729,16.214-9.574,17.759c0.155,1.544,0.155,1.853,3.706,2.007c3.552,0.154,22.854-0.463,27.487-2.162
						c4.633-1.699,6.331-2.78,7.103-5.559s-0.154-6.795-1.235-7.567C663.232,361.583,646.092,356.487,646.092,356.487z"/>
					<path style="fill:#263238;" d="M652.732,358.495c-0.974-0.299-1.907-0.583-2.75-0.838c0.665,1.274,2.837,6.395,2.92,18.875
						c0.784-0.094,1.521-0.194,2.201-0.3C655.016,366.674,653.728,361.262,652.732,358.495z"/>
				</g>
				<path style="fill:#263238;stroke:#263238;stroke-miterlimit:10;" d="M657.056,382.739c0,0-5.714,0-6.023,1.081
					c-0.309,1.081,1.853,0.927,3.397,0.927S658.445,384.129,657.056,382.739z"/>
				<path style="fill:#263238;stroke:#263238;stroke-miterlimit:10;" d="M672.597,381.322c0,0-3.577,0-3.77,0.846
					c-0.193,0.846,1.16,0.725,2.127,0.725C671.92,382.894,673.467,382.41,672.597,381.322z"/>
				<path style="fill:#FFFFFF;stroke:#263238;stroke-miterlimit:10;" d="M618.913,380.268c0,0-8.493,6.022-10.655,6.949
					c-2.162,0.927-18.067,4.941-18.994,4.169s5.559-10.501,11.736-12.971c6.177-2.471,10.501-2.78,14.67-2.625
					C619.84,375.945,620.303,376.871,618.913,380.268z"/>
				<path style="fill:#FFFFFF;stroke:#263238;stroke-miterlimit:10;" d="M545.408,380.732c-3.243,3.706-5.868,8.03-5.868,8.03
					c0.309,0.772,4.941,3.706,6.177,3.706c1.235,0,0.927-2.934,2.316-6.794c1.39-3.861,5.096-8.802,5.096-8.802
					C550.195,378.415,548.651,377.026,545.408,380.732z"/>
				<path style="fill:#8C8C8C;stroke:#263238;stroke-miterlimit:10;" d="M546.021,401.578c-1.734,0.522-3.198,1.706-4.077,3.288
					c-0.725,1.306-1.402,2.803-1.167,3.507c0.463,1.39,2.162,4.015,3.243,4.324c1.081,0.309,30.884,3.088,44.474-1.39
					c0,0-4.478-7.876-6.023-9.111c-1.544-1.235-4.478-1.699-5.096-1.699c-0.618,0-27.95,0.154-30.267,0.772
					C546.718,401.374,546.355,401.477,546.021,401.578z"/>
				<path style="fill:#263238;stroke:#263238;stroke-miterlimit:10;" d="M588.492,411.307c0,0-0.605-1.065-1.447-2.471h-46.088
					c0.625,1.441,2.091,3.583,3.061,3.861C545.1,413.006,574.903,415.786,588.492,411.307z"/>
				<rect x="549.115" y="402.351" style="fill:#FFFFFF;stroke:#263238;stroke-miterlimit:10;" width="25.943" height="5.868"/>
				<circle style="fill:#FFFFFF;stroke:#263238;stroke-miterlimit:10;" cx="601.309" cy="408.528" r="2.78"/>
				<circle style="fill:#FFFFFF;stroke:#263238;stroke-miterlimit:10;" cx="536.452" cy="408.528" r="2.78"/>
				<path style="fill:none;stroke:#263238;stroke-width:0.75;stroke-miterlimit:10;" d="M575.163,386.611
					c0,0-15.378-0.327-17.232,0.109c-1.854,0.436-2.618,1.636-2.508,3.49c0.109,1.854,0.763,4.799,1.963,5.126
					c1.2,0.327,10.797,0.109,12.324-0.545c1.527-0.654,5.999-3.49,6.653-5.453C577.018,387.374,576.799,386.611,575.163,386.611z"/>
				
					<line style="fill:none;stroke:#263238;stroke-width:0.75;stroke-miterlimit:10;" x1="576.254" y1="387.483" x2="591.741" y2="385.629"/>
				<line style="fill:none;stroke:#263238;stroke-miterlimit:10;" x1="555.75" y1="388.138" x2="548.442" y2="386.829"/>
				<path style="fill:none;stroke:#263238;stroke-width:0.75;stroke-miterlimit:10;" d="M606.565,417.419
					c0,0,1.816-1.427,1.557-5.448c-0.259-4.021-1.297-16.083,1.427-20.623c2.281-3.802,9.568-8.06,16.752-9.647"/>
				<path style="fill:none;stroke:#263238;stroke-width:0.75;stroke-miterlimit:10;" d="M636.398,414.565
					c0,0,28.146-0.908,29.832-1.427c1.686-0.519,2.983-1.946,4.021-4.669c1.038-2.724,2.594-11.673,3.632-14.008
					c1.038-2.335,1.686-2.853,1.686-2.853s0.908-7.782-1.427-12.452"/>
				<path style="fill:none;stroke:#263238;stroke-width:0.75;stroke-miterlimit:10;" d="M658.188,386.03
					c0,0,3.632,16.343-2.205,27.627"/>
				<path style="fill:none;stroke:#263238;stroke-width:0.75;stroke-miterlimit:10;" d="M634.452,382.009
					c0,0,4.669,11.544,2.464,24.125"/>
				<path style="fill:#263238;stroke:#263238;stroke-miterlimit:10;" d="M591.909,418.456c-1.427,0-3.891,0.13-6.226-1.038
					c-2.335-1.167-36.058-0.13-37.744-0.13c-1.336,0-8.124,1.628-10.887,2.304c0.115,0.207,0.226,0.391,0.327,0.517
					c1.235,1.544,4.044,2.028,6.669,1.719c2.625-0.309,14.487-0.792,27.458-1.101c12.971-0.309,23.318,0.463,25.789,0.772
					c2.471,0.309,9.574,0.463,11.891,0.154c2.316-0.309,3.397,0,5.559-2.625C612.157,418.304,593.336,418.456,591.909,418.456z"/>
			</g>
		</g>
		<g>
			<ellipse style="fill:#263238;stroke:#263238;stroke-miterlimit:10;" cx="675.739" cy="389.287" rx="1.819" ry="4.346"/>
			<g>
				<rect x="694.324" y="361.543" style="fill:#263238;stroke:#263238;stroke-miterlimit:10;" width="11.212" height="66.735"/>
				<rect x="690.381" y="356.902" style="fill:#FFFFFF;stroke:#263238;stroke-miterlimit:10;" width="18.996" height="34.295"/>
				<path style="fill:none;stroke:#263238;stroke-width:2;stroke-miterlimit:10;" d="M675.739,389.287h5.484
					c3,0,5.432,2.432,5.432,5.432v30.39c0,2.378,1.928,4.305,4.305,4.305h23.038c2.316,0,4.193-1.877,4.193-4.193v-45.328
					c0-2.46-1.994-4.454-4.454-4.454h-4.845"/>
				<rect x="709.296" y="373.418" style="fill:#263238;stroke:#263238;stroke-miterlimit:10;" width="3.639" height="4.447"/>
				<g>
					<path style="fill:#92E3A9;stroke:#263238;stroke-miterlimit:10;" d="M705.952,370.535c0-3.53-2.861-6.391-6.391-6.391
						c-3.53,0-6.391,2.861-6.391,6.391c0,3.53,2.861,6.391,6.391,6.391C703.091,376.926,705.952,374.065,705.952,370.535z"/>
					<polygon style="fill:#FFFFFF;stroke:#263238;stroke-miterlimit:10;" points="697.588,360.8 694.487,368.436 698.208,368.436 
						695.882,374.717 698.906,374.717 697.863,382.019 704.489,371.46 701.446,371.46 704.024,365.179 700.216,365.179 
						701.844,360.759 					"/>
				</g>
			</g>
		</g>
	</g>
</g>
<g id="Floor">
	<line style="fill:none;stroke:#263238;stroke-miterlimit:10;" x1="25.295" y1="429.414" x2="741.496" y2="429.414"/>
</g>
</svg>
