<?xml version="1.0" encoding="utf-8"?>
<!-- Generator: Adobe Illustrator 27.5.0, SVG Export Plug-In . SVG Version: 6.00 Build 0)  -->
<svg version="1.1" xmlns="http://www.w3.org/2000/svg" xmlns:xlink="http://www.w3.org/1999/xlink" x="0px" y="0px"
	 viewBox="0 0 500 500" style="enable-background:new 0 0 500 500;" xml:space="preserve">
<g id="Background_Simple">
	<g>
		<path style="fill:#92E3A9;" d="M466.436,335.828c-20.798,42.743-57.58,87.106-102.187,95.756
			c-67.4,13.077-82.884,70.518-197.726,49.726c-17.906-3.24-34.181-8.303-48.876-14.884c-7.9-3.537-15.343-7.526-22.326-11.91
			C31.898,414.798,5.679,342.457,12.17,271.277c8.523-93.619,72.212-130.312,113.224-151.302
			C166.405,98.985,225.06,4.319,338.128,23.76c17.237,2.973,34.17,7.934,50.243,15.267c36.691,16.719,72.141,47.622,89.726,88.245
			c1.32,3.052,2.553,6.159,3.71,9.312C504.367,198.259,494.793,277.557,466.436,335.828z"/>
		<path style="opacity:0.8;fill:#FFFFFF;" d="M466.436,335.828c-20.798,42.743-57.58,87.106-102.187,95.756
			c-67.4,13.077-82.884,70.518-197.726,49.726c-17.906-3.24-34.181-8.303-48.876-14.884c-7.9-3.537-15.343-7.526-22.326-11.91
			C31.898,414.798,5.679,342.457,12.17,271.277c8.523-93.619,72.212-130.312,113.224-151.302
			C166.405,98.985,225.06,4.319,338.128,23.76c17.237,2.973,34.17,7.934,50.243,15.267c36.691,16.719,72.141,47.622,89.726,88.245
			c1.32,3.052,2.553,6.159,3.71,9.312C504.367,198.259,494.793,277.557,466.436,335.828z"/>
	</g>
</g>
<g id="Floor">
	<g>
		
			<line style="fill:none;stroke:#263238;stroke-width:0.75;stroke-miterlimit:10;" x1="469.114" y1="478.686" x2="487.413" y2="478.686"/>
		
			<line style="fill:none;stroke:#263238;stroke-width:0.75;stroke-miterlimit:10;" x1="25.585" y1="478.686" x2="460.4" y2="478.686"/>
	</g>
</g>
<g id="Pictures">
	<g>
		<g>
			<rect x="309.434" y="45.003" style="fill:#969696;" width="78.424" height="111.536"/>
			<rect x="316.421" y="54.941" style="fill:#FFFFFF;" width="64.448" height="91.66"/>
			<rect x="333.931" y="79.844" style="fill:#92E3A9;" width="29.429" height="41.854"/>
		</g>
		<g>
			<rect x="403.542" y="96.414" style="fill:#969696;" width="42.275" height="60.125"/>
			<rect x="407.309" y="101.771" style="fill:#FFFFFF;" width="34.742" height="49.41"/>
			<rect x="416.748" y="115.195" style="fill:#92E3A9;" width="15.864" height="22.562"/>
		</g>
		<g>
			<rect x="370.149" y="169.738" style="fill:#969696;" width="42.275" height="60.125"/>
			<rect x="373.915" y="175.095" style="fill:#FFFFFF;" width="34.742" height="49.41"/>
			<rect x="383.354" y="188.52" style="fill:#92E3A9;" width="15.864" height="22.562"/>
		</g>
	</g>
</g>
<g id="Window">
	<path style="opacity:0.3;fill:none;stroke:#000000;stroke-miterlimit:10;" d="M195.754,85.742c0,0-10.289-14.208-26.947-15.188
		c-16.658-0.98-15.678,10.779-20.578,13.228c-4.899,2.45-9.799-3.43-15.678-1.96c-5.879,1.47-3.43,5.879-9.309,6.859
		c-5.879,0.98-6.859-4.409-13.228-2.94c-6.369,1.47-5.879,2.45-9.799,4.899c-3.919,2.45-5.389,0-10.779,0.98
		c-5.389,0.98-6.369,3.92-6.369,3.92h135.714c0,0-2.45-7.349-8.819-10.779C203.593,81.332,202.613,88.192,195.754,85.742z"/>
	<path style="opacity:0.3;fill:none;stroke:#000000;stroke-miterlimit:10;" d="M144.174,131.14c0,0-7.246-10.006-18.977-10.696
		s-11.041,7.591-14.492,9.316c-3.45,1.725-6.901-2.415-11.041-1.38c-4.141,1.035-2.415,4.14-6.556,4.831
		c-4.141,0.69-4.831-3.105-9.316-2.07c-4.486,1.035-4.141,1.725-6.901,3.45c-2.76,1.725-3.795,0-7.591,0.69
		c-3.795,0.69-4.486,2.76-4.486,2.76h95.577c0,0-1.725-5.176-6.211-7.591C149.695,128.035,149.005,132.865,144.174,131.14z"/>
	<g>
		<path style="fill:#92E3A9;" d="M222.229,226.381c0,27.526-16.283,49.84-36.37,49.84c-20.087,0-36.37-22.314-36.37-49.84
			s16.283-122.132,36.37-122.132C205.945,104.249,222.229,198.855,222.229,226.381z"/>
		<path style="opacity:0.4;fill:#FFFFFF;" d="M222.229,226.381c0,27.526-16.283,49.84-36.37,49.84
			c-20.087,0-36.37-22.314-36.37-49.84s16.283-122.132,36.37-122.132C205.945,104.249,222.229,198.855,222.229,226.381z"/>
		<polygon style="fill:#B2B2B2;" points="166.212,228.855 177.812,232.902 183.559,240.713 182.554,264.629 175.867,260.092 
			182.346,269.579 182.278,300.673 187.313,300.673 186.987,251.402 206.252,240.782 195.239,244.855 197.449,238.226 
			192.184,245.985 186.927,247.929 186.552,226.16 205.684,200.742 195.431,210.995 197.165,203.865 192.26,214.166 186.445,219.98 
			185.859,185.969 183.775,235.573 165.644,216.36 175.603,229.898 		"/>
		<g>
			<path style="fill:#FFFFFF;" d="M205.868,186.077c0,0,0.336,3.342-1.49,5.794c-1.826,2.453-5.124,3.089-5.124,3.089
				s-0.337-3.341,1.49-5.794C202.57,186.713,205.868,186.077,205.868,186.077z"/>
			<path style="fill:#FFFFFF;" d="M216.829,201.479c0,0,0.336,3.341-1.49,5.794c-1.827,2.453-5.124,3.088-5.124,3.088
				s-0.337-3.341,1.49-5.794C213.532,202.114,216.829,201.479,216.829,201.479z"/>
			<path style="fill:#FFFFFF;" d="M216.824,231.465c0,0-0.808,3.26-3.354,4.955c-2.545,1.695-5.865,1.183-5.865,1.183
				s0.808-3.26,3.354-4.955C213.505,230.954,216.824,231.465,216.824,231.465z"/>
			<path style="fill:#FFFFFF;" d="M156.622,231.465c0,0,0.808,3.26,3.354,4.955c2.545,1.695,5.865,1.183,5.865,1.183
				s-0.808-3.26-3.354-4.955C159.942,230.954,156.622,231.465,156.622,231.465z"/>
			<path style="fill:#FFFFFF;" d="M204.163,219.018c0,0,0.336,3.341-1.49,5.794c-1.826,2.453-5.124,3.089-5.124,3.089
				s-0.336-3.341,1.49-5.794C200.866,219.653,204.163,219.018,204.163,219.018z"/>
			<path style="fill:#FFFFFF;" d="M201.324,169.323c0,0,0.336,3.341-1.49,5.794c-1.827,2.453-5.124,3.089-5.124,3.089
				s-0.336-3.341,1.49-5.794C198.026,169.958,201.324,169.323,201.324,169.323z"/>
			<path style="fill:#FFFFFF;" d="M194.793,182.101c0,0,0.336,3.341-1.49,5.794c-1.826,2.453-5.124,3.089-5.124,3.089
				s-0.336-3.341,1.49-5.794C191.495,182.737,194.793,182.101,194.793,182.101z"/>
			<path style="fill:#FFFFFF;" d="M210.298,172.797c0,0,0.337,3.341-1.49,5.794c-1.826,2.453-5.124,3.089-5.124,3.089
				s-0.336-3.341,1.49-5.794C207,173.433,210.298,172.797,210.298,172.797z"/>
			<path style="fill:#FFFFFF;" d="M159.913,172.797c0,0-0.337,3.341,1.49,5.794c1.827,2.453,5.124,3.089,5.124,3.089
				s0.336-3.341-1.49-5.794C163.21,173.433,159.913,172.797,159.913,172.797z"/>
			<path style="fill:#FFFFFF;" d="M202.744,153.704c0,0,0.336,3.341-1.49,5.794c-1.826,2.453-5.124,3.089-5.124,3.089
				s-0.336-3.341,1.49-5.795C199.446,154.34,202.744,153.704,202.744,153.704z"/>
			<path style="fill:#FFFFFF;" d="M199.534,137.113c0,0,1.165,3.15,0.013,5.983c-1.152,2.833-4.184,4.277-4.184,4.277
				s-1.165-3.15-0.013-5.983C196.502,138.557,199.534,137.113,199.534,137.113z"/>
			<path style="fill:#FFFFFF;" d="M176.535,132.778c0,0,2.975,1.558,4.018,4.433c1.043,2.875-0.242,5.978-0.242,5.978
				s-2.975-1.558-4.018-4.433C175.25,135.881,176.535,132.778,176.535,132.778z"/>
			<path style="fill:#FFFFFF;" d="M187.26,152.617c0,0,2.119,2.605,1.944,5.658c-0.176,3.053-2.58,5.398-2.58,5.398
				s-2.119-2.605-1.944-5.659C184.856,154.962,187.26,152.617,187.26,152.617z"/>
			<path style="fill:#FFFFFF;" d="M186.692,123.084c0,0,2.119,2.605,1.943,5.659c-0.176,3.053-2.579,5.398-2.579,5.398
				s-2.119-2.605-1.944-5.658C184.288,125.429,186.692,123.084,186.692,123.084z"/>
			<path style="fill:#FFFFFF;" d="M162.621,186.077c0,0-0.336,3.342,1.49,5.794c1.826,2.453,5.124,3.089,5.124,3.089
				s0.336-3.341-1.49-5.794C165.919,186.713,162.621,186.077,162.621,186.077z"/>
			<path style="fill:#FFFFFF;" d="M156.374,204.251c0,0-0.337,3.341,1.49,5.794c1.826,2.453,5.124,3.089,5.124,3.089
				s0.336-3.342-1.49-5.794C159.671,204.887,156.374,204.251,156.374,204.251z"/>
			<path style="fill:#FFFFFF;" d="M172.957,210.85c0,0-0.336,3.341,1.49,5.794c1.826,2.453,5.124,3.089,5.124,3.089
				s0.336-3.341-1.49-5.794C176.255,211.485,172.957,210.85,172.957,210.85z"/>
			<path style="fill:#FFFFFF;" d="M177.491,185.667c0,0-1.279,3.105-0.232,5.978c1.047,2.873,4.025,4.427,4.025,4.427
				s1.279-3.105,0.232-5.979C180.469,187.22,177.491,185.667,177.491,185.667z"/>
			<path style="fill:#FFFFFF;" d="M165.748,252.677c0,0,3.358,0.061,5.653-1.96c2.295-2.021,2.658-5.36,2.658-5.36
				s-3.358-0.061-5.652,1.96C166.111,249.338,165.748,252.677,165.748,252.677z"/>
			<path style="fill:#FFFFFF;" d="M197.968,249.004c0,0,0.912,3.232,3.511,4.845c2.598,1.613,5.899,0.995,5.899,0.995
				s-0.912-3.232-3.511-4.845C201.269,248.386,197.968,249.004,197.968,249.004z"/>
			<path style="fill:#FFFFFF;" d="M169.494,169.323c0,0-0.336,3.341,1.49,5.794c1.826,2.453,5.124,3.089,5.124,3.089
				s0.336-3.341-1.49-5.794C172.792,169.958,169.494,169.323,169.494,169.323z"/>
			<path style="fill:#FFFFFF;" d="M169.436,154.556c0,0-0.336,3.341,1.49,5.794c1.826,2.453,5.124,3.089,5.124,3.089
				s0.336-3.341-1.49-5.795C172.734,155.192,169.436,154.556,169.436,154.556z"/>
		</g>
	</g>
	<g>
		<path style="fill:#92E3A9;" d="M146.539,246.717c0,19.992-11.826,36.198-26.415,36.198c-14.589,0-26.415-16.206-26.415-36.198
			c0-19.992,11.826-88.701,26.415-88.701C134.713,158.015,146.539,226.725,146.539,246.717z"/>
		<path style="opacity:0.4;fill:#FFFFFF;" d="M146.539,246.717c0,19.992-11.826,36.198-26.415,36.198
			c-14.589,0-26.415-16.206-26.415-36.198c0-19.992,11.826-88.701,26.415-88.701C134.713,158.015,146.539,226.725,146.539,246.717z"
			/>
		<polygon style="fill:#B2B2B2;" points="105.855,248.514 114.28,251.452 118.454,257.126 117.724,274.496 112.867,271.2 
			117.573,278.09 117.524,300.673 121.181,300.673 120.943,264.889 134.935,257.176 126.937,260.134 128.542,255.319 
			124.718,260.955 120.9,262.367 120.628,246.556 134.523,228.095 127.076,235.542 128.335,230.364 124.773,237.845 120.55,242.068 
			120.124,217.367 118.611,253.393 105.443,239.439 112.676,249.271 		"/>
		<g>
			<path style="fill:#FFFFFF;" d="M134.656,217.445c0,0,0.244,2.427-1.082,4.208c-1.326,1.781-3.721,2.243-3.721,2.243
				s-0.244-2.427,1.082-4.208C132.261,217.907,134.656,217.445,134.656,217.445z"/>
			<path style="fill:#FFFFFF;" d="M142.617,228.631c0,0,0.244,2.427-1.082,4.208c-1.327,1.781-3.721,2.243-3.721,2.243
				s-0.244-2.427,1.082-4.208C140.222,229.092,142.617,228.631,142.617,228.631z"/>
			<path style="fill:#FFFFFF;" d="M142.614,250.409c0,0-0.587,2.368-2.436,3.599c-1.848,1.231-4.259,0.86-4.259,0.86
				s0.587-2.367,2.436-3.598C140.203,250.038,142.614,250.409,142.614,250.409z"/>
			<path style="fill:#FFFFFF;" d="M98.891,250.409c0,0,0.587,2.368,2.436,3.599c1.849,1.231,4.259,0.86,4.259,0.86
				s-0.587-2.367-2.436-3.598C101.301,250.038,98.891,250.409,98.891,250.409z"/>
			<path style="fill:#FFFFFF;" d="M133.418,241.369c0,0,0.244,2.427-1.082,4.208c-1.326,1.782-3.721,2.243-3.721,2.243
				s-0.244-2.427,1.082-4.208C131.023,241.831,133.418,241.369,133.418,241.369z"/>
			<path style="fill:#FFFFFF;" d="M131.356,205.277c0,0,0.244,2.427-1.082,4.208c-1.326,1.782-3.721,2.243-3.721,2.243
				s-0.244-2.427,1.082-4.208C128.961,205.738,131.356,205.277,131.356,205.277z"/>
			<path style="fill:#FFFFFF;" d="M126.613,214.558c0,0,0.244,2.427-1.082,4.208c-1.326,1.782-3.721,2.243-3.721,2.243
				s-0.244-2.427,1.082-4.208C124.218,215.019,126.613,214.558,126.613,214.558z"/>
			<path style="fill:#FFFFFF;" d="M137.874,207.8c0,0,0.244,2.427-1.082,4.208c-1.327,1.782-3.721,2.243-3.721,2.243
				s-0.244-2.427,1.082-4.208C135.479,208.262,137.874,207.8,137.874,207.8z"/>
			<path style="fill:#FFFFFF;" d="M101.28,207.8c0,0-0.244,2.427,1.082,4.208c1.327,1.782,3.722,2.243,3.722,2.243
				s0.244-2.427-1.082-4.208C103.675,208.262,101.28,207.8,101.28,207.8z"/>
			<path style="fill:#FFFFFF;" d="M132.387,193.933c0,0,0.244,2.427-1.082,4.208c-1.326,1.781-3.721,2.243-3.721,2.243
				s-0.244-2.427,1.082-4.208C129.992,194.395,132.387,193.933,132.387,193.933z"/>
			<path style="fill:#FFFFFF;" d="M130.056,181.884c0,0,0.846,2.288,0.01,4.345c-0.836,2.058-3.039,3.106-3.039,3.106
				s-0.846-2.288-0.01-4.345C127.854,182.932,130.056,181.884,130.056,181.884z"/>
			<path style="fill:#FFFFFF;" d="M113.352,178.735c0,0,2.161,1.132,2.918,3.22c0.757,2.088-0.175,4.342-0.175,4.342
				s-2.161-1.132-2.918-3.22C112.42,180.989,113.352,178.735,113.352,178.735z"/>
			<path style="fill:#FFFFFF;" d="M121.142,193.144c0,0,1.539,1.892,1.412,4.109c-0.128,2.218-1.873,3.921-1.873,3.921
				s-1.539-1.892-1.412-4.11C119.396,194.847,121.142,193.144,121.142,193.144z"/>
			<path style="fill:#FFFFFF;" d="M120.729,171.695c0,0,1.539,1.892,1.411,4.11c-0.128,2.217-1.873,3.92-1.873,3.92
				s-1.539-1.892-1.412-4.109C118.983,173.398,120.729,171.695,120.729,171.695z"/>
			<path style="fill:#FFFFFF;" d="M103.247,217.445c0,0-0.244,2.427,1.082,4.208c1.326,1.781,3.721,2.243,3.721,2.243
				s0.244-2.427-1.082-4.208C105.642,217.907,103.247,217.445,103.247,217.445z"/>
			<path style="fill:#FFFFFF;" d="M98.71,230.644c0,0-0.244,2.427,1.082,4.208s3.721,2.243,3.721,2.243s0.244-2.427-1.082-4.208
				C101.105,231.106,98.71,230.644,98.71,230.644z"/>
			<path style="fill:#FFFFFF;" d="M110.754,235.437c0,0-0.244,2.427,1.082,4.208c1.326,1.781,3.721,2.243,3.721,2.243
				s0.244-2.427-1.082-4.208C113.149,235.898,110.754,235.437,110.754,235.437z"/>
			<path style="fill:#FFFFFF;" d="M114.047,217.147c0,0-0.929,2.255-0.168,4.342c0.761,2.087,2.923,3.215,2.923,3.215
				s0.929-2.255,0.168-4.342C116.209,218.275,114.047,217.147,114.047,217.147z"/>
			<path style="fill:#FFFFFF;" d="M105.518,265.815c0,0,2.439,0.045,4.106-1.424c1.667-1.468,1.93-3.893,1.93-3.893
				s-2.439-0.044-4.105,1.423C105.782,263.39,105.518,265.815,105.518,265.815z"/>
			<path style="fill:#FFFFFF;" d="M128.919,263.147c0,0,0.662,2.348,2.55,3.518c1.887,1.171,4.285,0.723,4.285,0.723
				s-0.663-2.347-2.55-3.519C131.316,262.698,128.919,263.147,128.919,263.147z"/>
			<path style="fill:#FFFFFF;" d="M108.239,205.277c0,0-0.244,2.427,1.082,4.208c1.326,1.782,3.721,2.243,3.721,2.243
				s0.244-2.427-1.082-4.208C110.634,205.738,108.239,205.277,108.239,205.277z"/>
			<path style="fill:#FFFFFF;" d="M108.197,194.552c0,0-0.244,2.427,1.082,4.208c1.326,1.782,3.721,2.243,3.721,2.243
				s0.244-2.427-1.082-4.208C110.592,195.014,108.197,194.552,108.197,194.552z"/>
		</g>
	</g>
	<g>
		
			<rect x="35.087" y="310.353" style="fill:#FFFFFF;stroke:#263238;stroke-width:0.8687;stroke-miterlimit:10;" width="211.271" height="21.223"/>
		
			<rect x="35.087" y="310.353" style="fill:#263238;stroke:#263238;stroke-width:0.8687;stroke-miterlimit:10;" width="211.271" height="11.483"/>
		
			<rect x="31.93" y="310.261" style="fill:#FFFFFF;stroke:#263238;stroke-width:0.8687;stroke-miterlimit:10;" width="217.585" height="8.869"/>
		<g>
			<g>
				<path style="fill:#FFFFFF;stroke:#263238;stroke-width:0.8687;stroke-miterlimit:10;" d="M40.82,40.209v270.042h199.804V40.209
					H40.82z M223.835,300.952H57.61V49.508h166.226V300.952z"/>
				<path style="fill:#FFFFFF;stroke:#263238;stroke-width:0.8687;stroke-miterlimit:10;" d="M57.61,49.462v131.165h166.226V49.462
					H57.61z M214.456,171.91H66.988V56.862h147.468V171.91z"/>
				
					<rect x="132.021" y="168.837" style="fill:#FFFFFF;stroke:#263238;stroke-width:0.8687;stroke-miterlimit:10;" width="17.403" height="3.124"/>
			</g>
			<g>
				
					<line style="fill:none;stroke:#263238;stroke-width:0.6515;stroke-miterlimit:10;" x1="208.244" y1="64.28" x2="130.06" y2="142.464"/>
				
					<line style="fill:none;stroke:#263238;stroke-width:0.6515;stroke-miterlimit:10;" x1="156.444" y1="98.168" x2="120.62" y2="133.992"/>
			</g>
		</g>
	</g>
</g>
<g id="Pineapple_tree">
	<g>
		<g>
			<path style="fill:#263238;stroke:#263238;stroke-width:1.2187;stroke-miterlimit:10;" d="M98.989,248.929
				c0,0,42.096,30.737,68.824,53.455c17.848,15.171,40.758,48.811,54.013,69.492h76.308c6.873-14.043,17.961-34.573,30.713-50.114
				c21.382-26.059,98.892-69.492,98.892-69.492s-44.1,10.691-77.51,28.732c-33.41,18.041-59.469,61.474-59.469,61.474
				s10.023-18.709,16.037-40.092c6.014-21.382,54.792-115.597,54.792-115.597s-24.723,23.387-42.764,53.455
				c-18.041,30.069-48.778,122.279-48.778,122.279s10.691-70.16,18.709-107.579c8.018-37.419,13.364-68.156,13.364-68.156
				s-18.709,38.755-25.391,62.142c-6.682,23.387-12.696,88.201-12.696,88.201s-20.046-54.792-31.405-78.178
				c-11.359-23.387-46.105-62.142-46.105-62.142s9.355,25.391,21.382,50.783c12.027,25.391,41.428,86.197,41.428,86.197
				s-11.359-16.037-26.728-34.078c-15.368-18.041-87.533-91.542-87.533-91.542s24.055,26.728,40.091,55.46
				c16.036,28.732,28.732,52.119,28.732,52.119s-24.723-18.709-48.778-34.078C131.062,266.302,98.989,248.929,98.989,248.929z"/>
			
				<rect x="251.622" y="279.307" style="fill:#92E3A9;stroke:#263238;stroke-width:1.2187;stroke-miterlimit:10;" width="13.97" height="92.973"/>
			<path style="fill:#92E3A9;stroke:#263238;stroke-width:1.2187;stroke-miterlimit:10;" d="M246.758,280.446
				c0,0-3.272,0.955-3.909,3.175c-0.637,2.221,1.156,11.95,1.156,11.95s4.024-12.135,7.374-11.947
				c3.351,0.189,11.232,1.991,11.232,1.991s-8.719-12.249-11.103-13.068S246.758,280.446,246.758,280.446z"/>
			<g>
				<g>
					<path style="fill:#C4C4C4;stroke:#263238;stroke-width:1.2187;stroke-miterlimit:10;" d="M247.938,214.882
						c0,0-7.693,1.689-10.911,7.233c-3.218,5.544-5.742,13.972-5.491,26.065c0.251,12.093,1.969,20.753,8.618,28.414
						c6.649,7.661,22.399,8.266,30.875,4.496c8.476-3.77,10.451-10.365,12.704-19.752c2.253-9.387,2.141-21.467,0.525-30.148
						c-2.464-13.235-14.054-15.598-17.582-16.885C261.782,212.52,250.319,213.598,247.938,214.882z"/>
					<path style="fill:#EDEDED;" d="M255.595,240.734c0,0,0,2.001-0.72,3.042c-0.721,1.041-4.643,1.121-4.643,1.121
						s3.923,0.16,4.643,1.121c0.72,0.961,0.881,3.122,0.881,3.122s0.32-2.882,1.201-3.362c0.881-0.48,3.282-0.4,3.282-0.4
						s-2.642-0.56-3.682-1.521C255.515,242.896,255.595,240.734,255.595,240.734z"/>
					<path style="fill:#EDEDED;" d="M266.939,237.035c0,0,0,2.001-0.72,3.042c-0.72,1.041-4.643,1.121-4.643,1.121
						s3.923,0.16,4.643,1.121c0.72,0.961,0.881,3.122,0.881,3.122s0.32-2.882,1.201-3.362c0.881-0.48,3.282-0.4,3.282-0.4
						s-2.642-0.56-3.682-1.521C266.859,239.196,266.939,237.035,266.939,237.035z"/>
					<path style="fill:#EDEDED;" d="M270.391,229.02c0,0,0,2.001-0.72,3.042c-0.72,1.041-4.643,1.121-4.643,1.121
						s3.923,0.16,4.643,1.121c0.72,0.96,0.881,3.122,0.881,3.122s0.32-2.882,1.201-3.362c0.88-0.48,3.282-0.4,3.282-0.4
						s-2.642-0.56-3.682-1.521C270.311,231.182,270.391,229.02,270.391,229.02z"/>
					<path style="fill:#EDEDED;" d="M277.05,240.241c0,0,0,2.001-0.72,3.042c-0.72,1.041-4.643,1.121-4.643,1.121
						s3.923,0.16,4.643,1.121c0.72,0.961,0.881,3.122,0.881,3.122s0.32-2.882,1.201-3.362c0.881-0.48,3.282-0.4,3.282-0.4
						s-2.642-0.56-3.682-1.521C276.97,242.402,277.05,240.241,277.05,240.241z"/>
					<path style="fill:#EDEDED;" d="M276.926,229.02c0,0,0,2.001-0.721,3.042c-0.72,1.041-4.643,1.121-4.643,1.121
						s3.923,0.16,4.643,1.121c0.721,0.96,0.881,3.122,0.881,3.122s0.32-2.882,1.201-3.362c0.881-0.48,3.282-0.4,3.282-0.4
						s-2.642-0.56-3.682-1.521C276.846,231.182,276.926,229.02,276.926,229.02z"/>
					<path style="fill:#EDEDED;" d="M273.72,248.626c0,0,0,2.001-0.72,3.042c-0.72,1.041-4.643,1.121-4.643,1.121
						s3.923,0.16,4.643,1.121c0.72,0.961,0.881,3.122,0.881,3.122s0.32-2.882,1.201-3.362c0.881-0.48,3.282-0.4,3.282-0.4
						s-2.642-0.56-3.682-1.521C273.64,250.787,273.72,248.626,273.72,248.626z"/>
					<path style="fill:#EDEDED;" d="M265.582,246.653c0,0,0,2.001-0.72,3.042c-0.721,1.041-4.643,1.121-4.643,1.121
						s3.923,0.16,4.643,1.121c0.72,0.961,0.881,3.122,0.881,3.122s0.32-2.882,1.201-3.362c0.881-0.48,3.282-0.4,3.282-0.4
						s-2.642-0.56-3.682-1.521C265.502,248.814,265.582,246.653,265.582,246.653z"/>
					<path style="fill:#EDEDED;" d="M261.637,254.791c0,0,0,2.001-0.72,3.042c-0.721,1.041-4.643,1.121-4.643,1.121
						s3.923,0.16,4.643,1.121c0.72,0.961,0.881,3.122,0.881,3.122s0.32-2.882,1.201-3.362c0.881-0.48,3.282-0.4,3.282-0.4
						s-2.642-0.56-3.683-1.521C261.557,256.952,261.637,254.791,261.637,254.791z"/>
					<path style="fill:#EDEDED;" d="M252.635,249.735c0,0,0,2.001-0.721,3.042c-0.721,1.041-4.643,1.121-4.643,1.121
						s3.923,0.16,4.643,1.121c0.721,0.961,0.881,3.122,0.881,3.122s0.32-2.882,1.201-3.362c0.881-0.48,3.282-0.4,3.282-0.4
						s-2.642-0.56-3.682-1.521C252.555,251.897,252.635,249.735,252.635,249.735z"/>
					<path style="fill:#EDEDED;" d="M246.47,256.024c0,0,0,2.001-0.72,3.042c-0.721,1.041-4.643,1.121-4.643,1.121
						s3.923,0.16,4.643,1.121c0.72,0.961,0.88,3.122,0.88,3.122s0.32-2.882,1.201-3.362c0.881-0.48,3.282-0.4,3.282-0.4
						s-2.642-0.56-3.683-1.521C246.39,258.185,246.47,256.024,246.47,256.024z"/>
					<path style="fill:#EDEDED;" d="M237.962,246.653c0,0,0,2.001-0.72,3.042c-0.72,1.041-4.643,1.121-4.643,1.121
						s3.923,0.16,4.643,1.121c0.72,0.961,0.881,3.122,0.881,3.122s0.32-2.882,1.201-3.362c0.88-0.48,3.282-0.4,3.282-0.4
						s-2.642-0.56-3.682-1.521C237.882,248.814,237.962,246.653,237.962,246.653z"/>
					<path style="fill:#EDEDED;" d="M242.401,241.967c0,0,0,2.001-0.721,3.042c-0.72,1.041-4.643,1.121-4.643,1.121
						s3.923,0.16,4.643,1.121c0.721,0.961,0.881,3.122,0.881,3.122s0.32-2.882,1.201-3.362c0.881-0.48,3.282-0.4,3.282-0.4
						s-2.642-0.561-3.682-1.521C242.321,244.129,242.401,241.967,242.401,241.967z"/>
					<path style="fill:#EDEDED;" d="M246.347,235.062c0,0,0,2.001-0.721,3.042c-0.721,1.041-4.643,1.121-4.643,1.121
						s3.923,0.16,4.643,1.121c0.721,0.961,0.881,3.122,0.881,3.122s0.32-2.882,1.201-3.362c0.881-0.48,3.282-0.4,3.282-0.4
						s-2.642-0.56-3.682-1.521C246.267,237.224,246.347,235.062,246.347,235.062z"/>
					<path style="fill:#EDEDED;" d="M236.067,234.692c0,0,0,2.001-0.549,3.042c-0.549,1.041-3.536,1.121-3.536,1.121
						s2.987,0.16,3.536,1.121c0.549,0.961,0.671,3.122,0.671,3.122s0.244-2.882,0.914-3.362c0.671-0.48,2.499-0.4,2.499-0.4
						s-2.012-0.56-2.804-1.521C236.006,236.854,236.067,234.692,236.067,234.692z"/>
					<path style="fill:#EDEDED;" d="M234.745,252.695c0,0,0,2.001-0.371,3.042c-0.371,1.041-2.392,1.121-2.392,1.121
						s2.021,0.16,2.392,1.121c0.371,0.961,0.454,3.122,0.454,3.122s0.165-2.882,0.618-3.362c0.454-0.48,1.691-0.4,1.691-0.4
						s-1.361-0.56-1.897-1.521C234.704,254.856,234.745,252.695,234.745,252.695z"/>
					<path style="fill:#EDEDED;" d="M241.281,226.554c0,0,0,2.001-0.62,3.042c-0.62,1.041-3.994,1.121-3.994,1.121
						s3.374,0.16,3.994,1.121c0.62,0.961,0.757,3.122,0.757,3.122s0.275-2.882,1.033-3.362c0.757-0.48,2.823-0.4,2.823-0.4
						s-2.272-0.56-3.167-1.521C241.212,228.715,241.281,226.554,241.281,226.554z"/>
					<path style="fill:#EDEDED;" d="M251.515,226.677c0,0,0,2.001-0.62,3.042c-0.62,1.041-3.994,1.121-3.994,1.121
						s3.374,0.16,3.994,1.121c0.62,0.961,0.757,3.122,0.757,3.122s0.275-2.882,1.033-3.362c0.757-0.48,2.823-0.4,2.823-0.4
						s-2.272-0.56-3.167-1.521C251.446,228.839,251.515,226.677,251.515,226.677z"/>
					<path style="fill:#EDEDED;" d="M258.913,232.473c0,0,0,2.001-0.62,3.042c-0.62,1.041-3.994,1.121-3.994,1.121
						s3.374,0.16,3.994,1.121c0.62,0.961,0.757,3.122,0.757,3.122s0.275-2.882,1.033-3.362c0.757-0.48,2.823-0.4,2.823-0.4
						s-2.272-0.56-3.167-1.521C258.845,234.634,258.913,232.473,258.913,232.473z"/>
					<path style="fill:#EDEDED;" d="M261.503,225.814c0,0,0,2.001-0.62,3.042c-0.62,1.041-3.994,1.121-3.994,1.121
						s3.374,0.16,3.994,1.121c0.62,0.96,0.758,3.122,0.758,3.122s0.275-2.882,1.033-3.362c0.757-0.48,2.823-0.4,2.823-0.4
						s-2.272-0.56-3.167-1.521C261.434,227.976,261.503,225.814,261.503,225.814z"/>
					<path style="fill:#EDEDED;" d="M255.348,262.559c0,0,0,2.001-0.721,3.042c-0.721,1.041-4.643,1.121-4.643,1.121
						s3.923,0.16,4.643,1.121c0.721,0.961,0.881,3.122,0.881,3.122s0.32-2.882,1.201-3.362c0.881-0.48,3.282-0.4,3.282-0.4
						s-2.642-0.56-3.683-1.521C255.268,264.72,255.348,262.559,255.348,262.559z"/>
					<path style="fill:#EDEDED;" d="M241.045,258.49c0,0,0,2.001-0.72,3.042c-0.721,1.041-4.643,1.121-4.643,1.121
						s3.923,0.16,4.643,1.121c0.72,0.961,0.881,3.122,0.881,3.122s0.32-2.882,1.201-3.362c0.881-0.48,3.282-0.4,3.282-0.4
						s-2.642-0.56-3.682-1.521S241.045,258.49,241.045,258.49z"/>
					<path style="fill:#EDEDED;" d="M265.089,266.011c0,0,0,2.001-0.72,3.042c-0.72,1.041-4.643,1.121-4.643,1.121
						s3.923,0.16,4.643,1.121c0.72,0.961,0.881,3.122,0.881,3.122s0.32-2.882,1.201-3.362c0.881-0.48,3.282-0.4,3.282-0.4
						s-2.642-0.56-3.682-1.521C265.009,268.173,265.089,266.011,265.089,266.011z"/>
					<path style="fill:#EDEDED;" d="M258.431,270.944c0,0,0,2.001-0.721,3.042c-0.721,1.041-4.643,1.121-4.643,1.121
						s3.923,0.16,4.643,1.121c0.721,0.961,0.881,3.122,0.881,3.122s0.32-2.882,1.201-3.362c0.881-0.48,3.282-0.4,3.282-0.4
						s-2.642-0.56-3.683-1.521C258.351,273.105,258.431,270.944,258.431,270.944z"/>
					<path style="fill:#EDEDED;" d="M248.813,266.505c0,0,0,2.001-0.72,3.042c-0.72,1.041-4.643,1.121-4.643,1.121
						s3.923,0.16,4.643,1.121c0.72,0.96,0.881,3.122,0.881,3.122s0.32-2.882,1.201-3.362c0.881-0.48,3.282-0.4,3.282-0.4
						s-2.642-0.56-3.682-1.521C248.733,268.666,248.813,266.505,248.813,266.505z"/>
					<path style="fill:#EDEDED;" d="M274.584,267.984c0,0,0,2.001-0.72,3.042c-0.72,1.041-4.643,1.121-4.643,1.121
						s3.923,0.16,4.643,1.121c0.72,0.961,0.881,3.122,0.881,3.122s0.32-2.882,1.201-3.362c0.881-0.48,3.282-0.4,3.282-0.4
						s-2.642-0.56-3.682-1.521C274.504,270.146,274.584,267.984,274.584,267.984z"/>
					<path style="fill:#EDEDED;" d="M268.172,275.629c0,0,0,1.414-0.72,2.148c-0.72,0.735-4.643,0.792-4.643,0.792
						s3.923,0.113,4.643,0.792c0.72,0.678,0.881,2.205,0.881,2.205s0.32-2.035,1.201-2.375c0.881-0.339,3.282-0.283,3.282-0.283
						s-2.642-0.396-3.682-1.074C268.092,277.156,268.172,275.629,268.172,275.629z"/>
					<path style="fill:#EDEDED;" d="M246.47,274.026c0,0,0,1.414-0.72,2.149c-0.721,0.735-4.643,0.791-4.643,0.791
						s3.923,0.113,4.643,0.792c0.72,0.678,0.88,2.205,0.88,2.205s0.32-2.036,1.201-2.375c0.881-0.339,3.282-0.283,3.282-0.283
						s-2.642-0.396-3.683-1.074C246.39,275.553,246.47,274.026,246.47,274.026z"/>
					<path style="fill:#EDEDED;" d="M272.487,257.997c0,0,0,2.001-0.72,3.042c-0.721,1.041-4.643,1.121-4.643,1.121
						s3.923,0.16,4.643,1.121c0.72,0.961,0.881,3.122,0.881,3.122s0.32-2.882,1.201-3.362c0.881-0.48,3.282-0.4,3.282-0.4
						s-2.642-0.56-3.682-1.521C272.407,260.158,272.487,257.997,272.487,257.997z"/>
					<path style="fill:#EDEDED;" d="M279.516,259.599c0,0,0,2.001-0.72,3.042c-0.72,1.041-4.643,1.121-4.643,1.121
						s3.923,0.16,4.643,1.121c0.72,0.961,0.881,3.122,0.881,3.122s0.32-2.882,1.201-3.362c0.881-0.48,1.882-0.71,1.882-0.71
						s-1.242-0.251-2.282-1.212C279.436,261.761,279.516,259.599,279.516,259.599z"/>
					<path style="fill:#EDEDED;" d="M281.365,248.872c0,0,0,2.001-0.72,3.042c-0.721,1.041-4.643,1.121-4.643,1.121
						s3.923,0.16,4.643,1.121c0.72,0.961,0.881,3.122,0.881,3.122s0.32-2.882,1.201-3.362c0.881-0.48,1.882-0.71,1.882-0.71
						s-1.242-0.251-2.283-1.212C281.285,251.034,281.365,248.872,281.365,248.872z"/>
					<path style="fill:#EDEDED;" d="M282.95,240.117c0,0,0,2.001-0.423,3.042c-0.423,1.041-2.727,1.121-2.727,1.121
						s2.304,0.16,2.727,1.121c0.423,0.961,0.517,3.122,0.517,3.122s0.188-2.882,0.705-3.362c0.517-0.48,1.106-0.71,1.106-0.71
						s-0.73-0.251-1.341-1.212C282.903,242.279,282.95,240.117,282.95,240.117z"/>
					<path style="fill:#EDEDED;" d="M282.195,229.246c0,0,0,2.001-0.423,3.042c-0.423,1.041-2.727,1.121-2.727,1.121
						s2.304,0.16,2.727,1.121c0.423,0.961,0.517,3.122,0.517,3.122s0.188-2.882,0.705-3.362c0.517-0.48,1.106-0.709,1.106-0.709
						s-0.729-0.251-1.341-1.212C282.148,231.407,282.195,229.246,282.195,229.246z"/>
					<path style="fill:none;stroke:#263238;stroke-width:1.2187;stroke-miterlimit:10;" d="M251.495,256.802
						c2.589,2.356,2.895,4.376,2.895,4.376"/>
					<path style="fill:none;stroke:#263238;stroke-width:1.2187;stroke-miterlimit:10;" d="M241.732,258.726
						c0,0,0.346-1.959,1.279-3.286c0.933-1.328,1.717-2.245,1.717-2.245s2.954,0.885,5.433,2.566"/>
					<path style="fill:none;stroke:#263238;stroke-width:1.2187;stroke-miterlimit:10;" d="M249.769,266.677
						c0,0,1.2-3.203,2.635-4.059c1.435-0.856,2.86-2.036,2.86-2.036s3.532,1.353,5.209,3.087c1.677,1.734,1.694,2.302,1.694,2.302"
						/>
					<path style="fill:none;stroke:#263238;stroke-width:1.2187;stroke-miterlimit:10;" d="M269.11,266.558
						c0.244,0.172,0.438,0.335,0.559,0.482c0.843,1.029,0.952,1.919,0.952,1.919"/>
					<path style="fill:none;stroke:#263238;stroke-width:1.2187;stroke-miterlimit:10;" d="M259.509,271.898
						c0,0,0.549-3.264,1.492-4.267c0.943-1.003,3.385-3.432,3.385-3.432s1.834,0.749,3.368,1.557"/>
					<path style="fill:none;stroke:#263238;stroke-width:1.2187;stroke-miterlimit:10;" d="M268.61,274.865
						c0,0,1.094-4.011,3.173-5.049c2.079-1.038,2.034-2.498,2.034-2.498s1.376-0.124,2.516,0.004
						c1.14,0.127,1.557,3.118,1.557,3.118"/>
					<path style="fill:none;stroke:#263238;stroke-width:1.2187;stroke-miterlimit:10;" d="M236.465,264.327
						c0,0-0.64-2.335,0.455-3.667c1.096-1.332,2.648-3.653,2.648-3.653s3.582,2.974,5.155,3.981
						c1.573,1.007,2.851,5.595,2.851,5.595"/>
					<path style="fill:none;stroke:#263238;stroke-width:1.2187;stroke-miterlimit:10;" d="M253.922,270.224
						c0.713,0.926,1.296,2.049,1.296,2.049"/>
					<path style="fill:none;stroke:#263238;stroke-width:1.2187;stroke-miterlimit:10;" d="M243.188,271.75
						c0,0-0.148-2.187,1.603-3.296c1.752-1.109,4.142-2.563,4.142-2.563s2.619,2.145,3.878,3.207"/>
					<path style="fill:none;stroke:#263238;stroke-width:1.2187;stroke-miterlimit:10;" d="M253.251,276.961
						c0,0-0.235-2.347,0.959-3.114c1.194-0.767,3.628-3.44,3.628-3.44s2.989,2.181,4.304,2.709c1.315,0.528,2.906,2.102,2.933,2.995
						"/>
					<path style="fill:none;stroke:#263238;stroke-width:1.2187;stroke-miterlimit:10;" d="M234.999,266.807
						c0,0,1.623-2.648,2.282-2.343c0.659,0.304,4.474,2.947,5.19,5.117"/>
					<path style="fill:none;stroke:#263238;stroke-width:1.2187;stroke-miterlimit:10;" d="M248.651,274.2
						c1.257,0.936,2.426,2.016,2.971,2.567c1.089,1.103,1.864,2.54,1.864,2.54"/>
					<path style="fill:none;stroke:#263238;stroke-width:1.2187;stroke-miterlimit:10;" d="M240.773,275.071
						c0,0,2.601-2.515,4.386-2.57c0.632-0.02,1.489,0.371,2.382,0.933"/>
					<path style="fill:none;stroke:#263238;stroke-width:1.2187;stroke-miterlimit:10;" d="M260.187,279.944
						c1.198,0.589,2.203,1.201,2.203,1.201"/>
					<path style="fill:none;stroke:#263238;stroke-width:1.2187;stroke-miterlimit:10;" d="M251.435,281.237
						c0,0,3.983-2.477,5.69-2.367c0.4,0.026,0.902,0.164,1.435,0.361"/>
					<path style="fill:none;stroke:#263238;stroke-width:1.2187;stroke-miterlimit:10;" d="M272.138,275.81
						c0.727,0.271,1.309,0.582,1.562,0.928"/>
					<path style="fill:none;stroke:#263238;stroke-width:1.2187;stroke-miterlimit:10;" d="M262.822,279.345
						c0,0,3.262-4.809,3.913-4.747c0.385,0.036,2.425,0.334,4.22,0.833"/>
					<path style="fill:none;stroke:#263238;stroke-width:1.2187;stroke-miterlimit:10;" d="M232.744,251.534l1.331-1.583
						c0,0,2.409,1.793,3.118,3.719c0.709,1.926,1.024,4.271,1.024,4.271"/>
					<path style="fill:none;stroke:#263238;stroke-width:1.2187;stroke-miterlimit:10;" d="M242.397,251.318
						c0.622,1.767,0.726,2.494,0.726,2.494"/>
					<path style="fill:none;stroke:#263238;stroke-width:1.2187;stroke-miterlimit:10;" d="M234.075,249.951
						c0,0,2.024-2.822,2.975-3.582c0.951-0.76,0.951-0.76,0.951-0.76s1.44,1.504,2.688,3.071"/>
					<path style="fill:none;stroke:#263238;stroke-width:1.2187;stroke-miterlimit:10;" d="M245.672,243.506
						c0.511,0.395,0.955,0.823,1.232,1.261c1.109,1.752,1.574,3.686,1.574,3.686"/>
					<path style="fill:none;stroke:#263238;stroke-width:1.2187;stroke-miterlimit:10;" d="M238.455,244.54
						c0,0,0.862-1.001,1.813-1.76c0.951-0.76,1.744-1.352,1.744-1.352s1.392,0.585,2.735,1.436"/>
					<path style="fill:none;stroke:#263238;stroke-width:1.2187;stroke-miterlimit:10;" d="M246.816,252.481
						c0,0,2.328-3.481,3.365-4.081c1.037-0.6,1.432-0.937,1.432-0.937s3.874,1.91,6.133,4.114c2.259,2.203,1.392,3.042,1.392,3.042"
						/>
					<path style="fill:none;stroke:#263238;stroke-width:1.2187;stroke-miterlimit:10;" d="M255.551,259.356
						c0,0,0.668-2.05,2.021-2.903c1.354-0.853,3.823-2.39,3.823-2.39s3.185,0.633,4.371,2.22c1.185,1.587,1.375,2.474,1.375,2.474"
						/>
					<path style="fill:none;stroke:#263238;stroke-width:1.2187;stroke-miterlimit:10;" d="M266.056,263.092
						c0,0,1.132-2.795,3.041-4.071c1.909-1.276,3.889-2.879,3.889-2.879s2.134,0.746,2.873,1.048c0.74,0.302,1.104,1.59,1.104,1.59"
						/>
					<path style="fill:none;stroke:#263238;stroke-width:1.2187;stroke-miterlimit:10;" d="M277.117,261.128
						c2.061-1.606,3.461-3.597,3.461-3.597s1.558,0.52,2.245,1.717"/>
					<path style="fill:none;stroke:#263238;stroke-width:1.2187;stroke-miterlimit:10;" d="M274.988,265.82
						c0,0,0.043-1.981,1.121-3.595"/>
					<path style="fill:none;stroke:#263238;stroke-width:1.2187;stroke-miterlimit:10;" d="M260.876,247.747
						c1.503-1.264,4.208-3.052,4.208-3.052s2.853,0.399,4.432,1.568c1.578,1.169,1.375,2.474,1.375,2.474"/>
					<path style="fill:none;stroke:#263238;stroke-width:1.2187;stroke-miterlimit:10;" d="M258.776,250.734
						c0,0,0.336-0.969,1.138-1.987"/>
					<path style="fill:none;stroke:#263238;stroke-width:1.2187;stroke-miterlimit:10;" d="M276.485,248.484
						c1.084,0.941,1.877,2.946,1.877,2.946"/>
					<path style="fill:none;stroke:#263238;stroke-width:1.2187;stroke-miterlimit:10;" d="M268.349,255.797
						c0,0,0.62-3.591,1.244-4.422c0.624-0.831,2.866-4.472,2.866-4.472s1.569,0.341,2.838,0.892"/>
					<path style="fill:none;stroke:#263238;stroke-width:1.2187;stroke-miterlimit:10;" d="M277.368,256.088
						c0,0,0.676-4.404,1.764-5.98c1.088-1.576,2.518-2.594,2.518-2.594s1.487,0.847,1.913,1.483
						c0.426,0.636,0.623,1.767,0.623,1.767"/>
					<path style="fill:none;stroke:#263238;stroke-width:1.2187;stroke-miterlimit:10;" d="M251.596,241.02
						c1.688-1.196,4.302-2.05,4.302-2.05s1.9,1.078,3.81,2.48c1.91,1.402,2.135,3.425,2.135,3.425"/>
					<path style="fill:none;stroke:#263238;stroke-width:1.2187;stroke-miterlimit:10;" d="M248.401,245.939
						c0,0,0.686-1.995,1.787-3.511"/>
					<path style="fill:none;stroke:#263238;stroke-width:1.2187;stroke-miterlimit:10;" d="M261.672,241.959
						c0,0,1.033-3.36,2.05-4.609c1.017-1.249,2.287-2.181,2.287-2.181s4.987,1.146,5.774,2.988c0.787,1.843,0.787,1.843,0.787,1.843
						"/>
					<path style="fill:none;stroke:#263238;stroke-width:1.2187;stroke-miterlimit:10;" d="M273.044,242.177
						c0.845-1.568,2.478-3.891,2.478-3.891s2.78,0.645,3.375,1.52c0.595,0.875,0.77,1.275,0.77,1.275"/>
					<path style="fill:none;stroke:#263238;stroke-width:1.2187;stroke-miterlimit:10;" d="M272.601,246.25
						c0,0-0.226-1.409,0.017-2.774"/>
					<path style="fill:none;stroke:#263238;stroke-width:1.2187;stroke-miterlimit:10;" d="M280.155,246.423
						c0,0-0.341-3.155,0.41-5.127c0.751-1.971,1.449-3.048,1.449-3.048s2.09,1.965,2.186,2.449"/>
					<path style="fill:none;stroke:#263238;stroke-width:1.2187;stroke-miterlimit:10;" d="M265.103,234.71
						c0,0-0.684-1.115,0.06-3.33c0.744-2.215,2.24-3.722,2.24-3.722s4.24,0.6,5.481,1.374c1.241,0.774,1.335,1.177,1.335,1.177"/>
					
						<line style="fill:none;stroke:#263238;stroke-width:1.2187;stroke-miterlimit:10;" x1="274.973" y1="236.273" x2="274.443" y2="232.231"/>
					<path style="fill:none;stroke:#263238;stroke-width:1.2187;stroke-miterlimit:10;" d="M274.168,228.587
						c0,0,3.809-0.198,5.509,2.266"/>
					<path style="fill:none;stroke:#263238;stroke-width:1.2187;stroke-miterlimit:10;" d="M271.704,225.01
						c0,0,2.8,1.294,3.412,2.736"/>
					<path style="fill:none;stroke:#263238;stroke-width:1.2187;stroke-miterlimit:10;" d="M255.385,233.874
						c-0.436,0.532-0.801,0.967-0.987,1.165c-0.707,0.752-1.459,2.724-1.107,3.606"/>
					<path style="fill:none;stroke:#263238;stroke-width:1.2187;stroke-miterlimit:10;" d="M258.386,230.127
						c0,0-0.943,1.195-1.927,2.421"/>
					<path style="fill:none;stroke:#263238;stroke-width:1.2187;stroke-miterlimit:10;" d="M252.673,237.04
						c0,0-1.613-2.305-3.754-3.294c-2.141-0.989-2.141-0.989-2.141-0.989s-0.727,0.103-3.088,2.53
						c-2.361,2.427-2.714,4.142-2.539,4.543"/>
					<path style="fill:none;stroke:#263238;stroke-width:1.2187;stroke-miterlimit:10;" d="M240.354,237.663
						c-0.438-1.042-1.798-3.029-2.801-3.973c-1.003-0.943-1.003-0.943-1.003-0.943s-3.53,4.005-3.632,5.956"/>
					<path style="fill:none;stroke:#263238;stroke-width:1.2187;stroke-miterlimit:10;" d="M237.154,244.499
						c0,0-2.016-2.211-3.093-2.908"/>
					<path style="fill:none;stroke:#263238;stroke-width:1.2187;stroke-miterlimit:10;" d="M245.607,226.641
						c-1.127-1.071-3.232-2.434-3.232-2.434"/>
					<path style="fill:none;stroke:#263238;stroke-width:1.2187;stroke-miterlimit:10;" d="M246.778,232.757
						c0,0,0.028-4.384-0.572-5.421"/>
					<path style="fill:none;stroke:#263238;stroke-width:1.2187;stroke-miterlimit:10;" d="M247.403,229.328
						c0,0-0.035-1.135,2.206-2.178c2.241-1.043,6.714-0.775,6.714-0.775"/>
				</g>
				<g>
					<path style="fill:#263238;stroke:#263238;stroke-width:1.2187;stroke-miterlimit:10;" d="M258.214,156.522
						c0,0-5.132-15.896-9.124-24.585c-3.992-8.69-13.369-17.647-13.369-17.647s7.206,20.96,11.76,28.222
						c4.554,7.262,11.367,19.232,11.367,19.232L258.214,156.522z"/>
					<path style="fill:#263238;stroke:#263238;stroke-width:1.2187;stroke-miterlimit:10;" d="M260.546,169.742
						c0,0,1.763-6.205,11.07-16.305c9.307-10.1,17.327-17.727,17.327-17.727s-9.385,23.397-16.337,33.536
						c-6.953,10.138-12.326,16.839-12.326,16.839L260.546,169.742z"/>
					<path style="fill:#92E3A9;stroke:#263238;stroke-width:1.2187;stroke-miterlimit:10;" d="M258.497,176.497
						c0,0-8.921-22.171-14.589-31.406c-5.668-9.235-11.649-16.259-11.649-16.259s10.547,7.375,17.475,15.799
						c6.928,8.424,8.279,10.524,8.279,10.524s-1.297-5.424,7.514-19.133c8.812-13.71,12.326-16.839,12.326-16.839
						s-7.22,18.03-11.045,31.821c-3.826,13.791-5.59,28.585-5.606,29.554C261.185,181.527,258.497,176.497,258.497,176.497z"/>
					<path style="fill:#263238;stroke:#263238;stroke-width:1.2187;stroke-miterlimit:10;" d="M246.327,218.358
						c0,0-2.102,0.157-4.025,0.985c-1.922,0.828-3.494,3.57-3.494,3.57s4.801-1.735,5.852-1.814
						c1.051-0.079,2.101-0.061,2.101-0.061s-1.944,2.164-1.767,3.026c0.177,0.862,0.355,1.628,0.355,1.628l2.808-2.436l3.355-0.9
						l2.642,1.856l1.929-1.21l5.504,1.999l0.785-1.324c0,0,2.725,2.621,3.184,3.774c0.459,1.153,0.459,1.153,0.459,1.153
						s1.646-1.405,1.761-2.644c0.116-1.239,1.198-3.226,1.198-3.226s4.036-1.652,6.041-1.715c2.006-0.063,4.87-0.112,4.87-0.112
						s-4.366-1.503-6.265-2.106c-1.899-0.604-6.184-1.246-8.566-1.475c-2.382-0.23-11.976-0.686-11.976-0.686L246.327,218.358z"/>
					<path style="fill:#263238;stroke:#263238;stroke-width:1.2187;stroke-miterlimit:10;" d="M252.574,199.95
						c0,0-10.913-10.429-19.497-10.706c-8.584-0.278-11.354-0.323-11.354-0.323l22.137,10.195c0,0-6.376-0.173-10.342,1.113
						c-3.965,1.286-7.455,2.892-7.455,2.892l23.797,8.032l6.094,2.428L252.574,199.95z"/>
					<path style="fill:#263238;stroke:#263238;stroke-width:1.2187;stroke-miterlimit:10;" d="M248.156,164.969
						c0,0-6.856-12.856-12.882-17.11c-6.026-4.254-14.925-10.771-14.925-10.771s11.125,14.449,15.058,19.639
						c3.933,5.19,11.256,14.867,11.665,15.289c0.409,0.422-5.899-3.559-10.308-5.016c-4.409-1.457-12.117-4.491-12.117-4.491
						s10.102,9.169,17.502,14.137c7.4,4.969,11.505,8.083,12.318,9.205C255.279,186.973,248.156,164.969,248.156,164.969z"/>
					<path style="fill:#263238;stroke:#263238;stroke-width:1.2187;stroke-miterlimit:10;" d="M272.302,187.942
						c0,0,9.677-7.323,14.318-11.542c4.64-4.219,8.272-6.099,8.272-6.099s-3.539,4.652-9.774,13.279
						c-6.236,8.626-10.601,12.988-10.601,12.988s3.09-2.582,10.477-5.371c7.387-2.789,10.448-3.57,10.448-3.57
						s-16.366,9.708-19.9,14.084c-3.534,4.376-4.946,6.015-4.946,6.015l-3.729,7.836c0,0-2.02-12.085-0.411-17.323
						C268.064,192.999,272.302,187.942,272.302,187.942z"/>
					<path style="fill:#92E3A9;stroke:#263238;stroke-width:1.2187;stroke-miterlimit:10;" d="M269.999,184.718
						c0,0,5.699-9.743,13.556-15.849c7.857-6.106,19.855-11.314,19.855-11.314s-18.227,13.418-25.778,26.317
						c-7.552,12.899-9.73,19.097-9.737,19.513C267.888,203.801,269.999,184.718,269.999,184.718z"/>
					<path style="fill:#92E3A9;stroke:#263238;stroke-width:1.2187;stroke-miterlimit:10;" d="M267.045,176.795
						c0,0-0.195-20.785-3.863-31.183c-3.668-10.397-7.791-18.991-7.791-18.991s-4.074,21.142-4.243,31.584
						c-0.17,10.442,0.502,15.035,0.502,15.035l9.719,18.383L267.045,176.795z"/>
					<path style="fill:#92E3A9;stroke:#263238;stroke-width:1.2187;stroke-miterlimit:10;" d="M257.852,191.566
						c0,0,3.229-15.081,10.07-22.857c6.841-7.775,15.06-15.102,15.06-15.102s-3.465,16.463-7.673,26.2
						c-4.208,9.737-12.635,16.74-12.635,16.74S258.861,195.099,257.852,191.566z"/>
					<path style="fill:#92E3A9;stroke:#263238;stroke-width:1.2187;stroke-miterlimit:10;" d="M261.102,188.315
						c0,0-0.692-16.424-5.285-22.36c-4.593-5.936-18.885-11.817-19.203-11.929c-0.318-0.112,6.377,14.172,10.111,20.521
						c3.734,6.348,10.345,19.245,11.919,20.763C260.218,196.827,261.102,188.315,261.102,188.315z"/>
					<path style="fill:#92E3A9;stroke:#263238;stroke-width:1.2187;stroke-miterlimit:10;" d="M265.159,220.673
						c0,0,0.51,1.394,5.762-0.439c5.252-1.833,12.097-3.32,12.097-3.32l-7.121-1.182c0,0,6.56-3.624,10.001-5.486
						c3.441-1.862,8.775-2.202,8.775-2.202s-4.556-1.673-10.751-0.814c-6.195,0.858-8.868,1.348-8.868,1.348
						s9.353-4.964,12.993-5.97c3.64-1.007,10.995-1.1,10.995-1.1s-5.475-4.139-12.095-3.394c-6.62,0.745-15.079,3.165-17.77,4.827
						c-2.691,1.661-10.861,12.506-10.861,12.506L265.159,220.673z"/>
					<path style="fill:#92E3A9;stroke:#263238;stroke-width:1.2187;stroke-miterlimit:10;" d="M252.483,207.145
						c0,0-8.792-3.34-14.229-3.215c-5.437,0.125-14.371,5.522-14.371,5.522s10.148-1.434,12.91-0.856
						c2.762,0.578,4.568,0.927,4.568,0.927l-3.778,2.923c0,0,6-1.927,8.445-1.568c2.445,0.359,10.517,2.089,10.099,1.55
						C255.71,211.887,254.705,208.141,252.483,207.145z"/>
					<path style="fill:#92E3A9;stroke:#263238;stroke-width:1.2187;stroke-miterlimit:10;" d="M259.114,205.761
						c0,0-10.438-6.99-19.465-8.949c-9.027-1.958-17.703,0.671-17.703,0.671s4.482-0.353,9.558,2.074
						c5.076,2.427,12.044,6.484,14.574,8.23c2.529,1.746,7.131,7.15,9.145,7.822C257.237,216.282,266.416,215.472,259.114,205.761z"
						/>
					<path style="fill:#92E3A9;stroke:#263238;stroke-width:1.2187;stroke-miterlimit:10;" d="M250.1,189.841
						c0,0-10.548-6.779-18.921-9.58c-8.374-2.801-11.988-3.392-11.988-3.392s12.029,7.443,17.397,11.58
						c5.368,4.137,9.057,6.648,9.057,6.648s6.363,8.523,8.44,11.861c2.077,3.337,5.138,5.199,5.289,2.431
						c0.152-2.769-6.537-17.478-7.485-18.133C250.94,190.601,250.1,189.841,250.1,189.841z"/>
					<path style="fill:#92E3A9;stroke:#263238;stroke-width:1.2187;stroke-miterlimit:10;" d="M258.988,193.823
						c0,0-0.815-8.859-11.28-14.145c-10.465-5.286-26.325-6.503-26.325-6.503s12.638,2.763,20.829,10.25
						c8.191,7.487,16.072,20.937,16.072,20.937S258.972,194.781,258.988,193.823z"/>
					<path style="fill:#92E3A9;stroke:#263238;stroke-width:1.2187;stroke-miterlimit:10;" d="M255.48,199.84
						c0,0,0.224-7.243,3.537-14.33c3.313-7.087,9.792-12.31,9.904-12.628c0.112-0.318,2.017,7.067,2.353,12.614
						c0.336,5.548-0.786,9.046-2.098,11.05c-1.311,2.004-6.514,7.355-6.514,7.355L255.48,199.84z"/>
					<path style="fill:#92E3A9;stroke:#263238;stroke-width:1.2187;stroke-miterlimit:10;" d="M262.661,203.9
						c0,0,4.703-7.384,9.984-11.028c5.281-3.644,12.771-5.441,15.985-6.454c3.214-1.014,5.773-1.078,5.773-1.078
						s-12.518,2.994-17.195,8.779c-4.677,5.786-3.319,7.513-7.329,11.604c-4.01,4.091-11.343,2.8-9.602,0.59
						C262.018,204.103,262.661,203.9,262.661,203.9z"/>
					<path style="fill:#92E3A9;stroke:#263238;stroke-width:1.2187;stroke-miterlimit:10;" d="M266.79,205.566
						c0,0-2.024-6.641-5.411-8.081c-3.387-1.441-13.829-1.61-15.333-0.889c-1.504,0.722,2.98,0.261,5.393,2.645
						c2.412,2.384,4.607,5.084,6.589,7.674c1.983,2.59,4.011,2.41,5.729,1.585C265.477,207.676,266.79,205.566,266.79,205.566z"/>
					<path style="fill:#92E3A9;stroke:#263238;stroke-width:1.2187;stroke-miterlimit:10;" d="M260.04,207.801
						c0,0-3.04-3.14-8.125-5.035c-5.085-1.894-16.58-2.827-18.397-2.537c-1.816,0.29,12.117,2.009,13.691,3.527
						c1.574,1.518,4.067,5.501,6.818,6.718C256.779,211.691,262.197,212.739,260.04,207.801z"/>
					<path style="fill:#92E3A9;stroke:#263238;stroke-width:1.2187;stroke-miterlimit:10;" d="M257.018,210.097
						c0,0,1.984-4.018,3.596-4.844c1.612-0.826,12.391-1.717,12.712-1.818c0.321-0.101-1.432,2.854-4.569,5.681
						c-3.137,2.827-7.945,3.601-7.945,3.601S256.442,212.752,257.018,210.097z"/>
					<g>
						<path style="fill:#263238;stroke:#263238;stroke-width:1.2187;stroke-miterlimit:10;" d="M240.671,212.602
							c0,0,2.232,0.356,3.604,1.231c1.371,0.875,2.833,2.71,6.114,4.149c3.281,1.439,7.312,2.57,8.713,1.634
							c1.401-0.937,3.023-2.402,1.673-4.556c-1.35-2.154-1.258-1.299-4.647-2.633c-3.389-1.334-6.905-1.391-9.043-1
							C244.947,211.819,240.671,212.602,240.671,212.602z"/>
						<path style="fill:#92E3A9;stroke:#263238;stroke-width:1.2187;stroke-miterlimit:10;" d="M249.86,211.153
							c0,0-5.963-0.31-10.454,0.576c-4.491,0.886-5.017,0.451-5.895,2.036c-0.878,1.584-1.227,3.39-1.227,3.39
							s1.739-2.103,5.704-3.424C241.953,212.41,249.86,211.153,249.86,211.153z"/>
					</g>
					<path style="fill:#92E3A9;stroke:#263238;stroke-width:1.2187;stroke-miterlimit:10;" d="M253.013,220.476
						c0,0-4.692,0.137-8.494-1.95c-3.803-2.087-7.247-0.011-7.247-0.011s4.523-2.91,9.744-2.826
						C252.237,215.774,253.013,220.476,253.013,220.476z"/>
					<g>
						<path style="fill:#92E3A9;stroke:#263238;stroke-width:1.2187;stroke-miterlimit:10;" d="M264.128,218.525
							c0,0-9.56-1.967-11.053-1.885c-1.493,0.082-0.463,8.838-0.149,9.163C253.24,226.128,262.741,218.609,264.128,218.525z"/>
						<path style="fill:#263238;stroke:#263238;stroke-width:1.2187;stroke-miterlimit:10;" d="M264.128,218.525
							c0,0,1.39-0.297,2.335,0.571c0.945,0.868,1.459,2.049,0.488,2.779c-0.971,0.73-5.771,0.972-6.941,0.846
							c-1.17-0.126-2.019-0.352-2.019-0.352L264.128,218.525z"/>
					</g>
					<g>
						<path style="fill:#92E3A9;stroke:#263238;stroke-width:1.2187;stroke-miterlimit:10;" d="M261.299,208.994
							c0,0-6.412,1.068-8.464,2.74c-2.052,1.672-2.724,3.686-2.724,3.686s-1.065-6.625-0.092-7.462
							c0.973-0.837,1.066,0.017,4.898,0.293C258.749,208.526,259.294,207.789,261.299,208.994z"/>
						<path style="fill:#263238;stroke:#263238;stroke-width:1.2187;stroke-miterlimit:10;" d="M261.299,208.994
							c0,0,2.557,0.042,3.576,2.936c0,0-2.373,1.773-3.238,2.505c-0.865,0.732-1.83,1.143-1.83,1.143s-1.136-2.256-3.679-3.15
							c-2.543-0.894-2.543-0.894-2.543-0.894S258.207,209.05,261.299,208.994z"/>
					</g>
					<path style="fill:#92E3A9;stroke:#263238;stroke-width:1.2187;stroke-miterlimit:10;" d="M258.289,217.152
						c0,0,4.757-4.186,6.586-5.222c1.829-1.036,5.658-0.548,7.467-0.411c1.809,0.136,7.632,2.575,7.632,2.575
						s-4.262-0.069-7.484,1.477c-3.223,1.546-6.026,3.526-6.026,3.526l-3.399-0.695L258.289,217.152z"/>
				</g>
			</g>
			<path style="fill:#92E3A9;stroke:#263238;stroke-width:1.2187;stroke-miterlimit:10;" d="M201.449,355.456
				c6.415,5.249,12.747,11.218,17.976,16.421h20.639c-4.216-6.773-12.477-17.544-27.309-28.668
				c-24.495-18.371-35.8-24.966-57.94-38.156c-22.14-13.19-64.064-39.098-64.064-39.098s32.503,32.974,56.527,49.461
				C171.301,331.903,185.904,342.737,201.449,355.456z"/>
			<path style="fill:none;stroke:#263238;stroke-width:0.6093;stroke-miterlimit:10;" d="M144.962,308.733
				c6.062,4.236,12.16,8.23,17.643,11.35c20.251,11.522,45.756,18.338,64.713,51.937"/>
			<path style="fill:none;stroke:#263238;stroke-width:0.6093;stroke-miterlimit:10;" d="M108.908,281.135
				c0,0,15.426,12.855,32.201,24.871"/>
			<path style="fill:#92E3A9;stroke:#263238;stroke-width:1.2187;stroke-miterlimit:10;" d="M235.414,371.876h13.341
				c-11.332-17.184-44.943-66.604-69.584-86.865c-30.069-24.723-70.16-54.123-70.16-54.123s98.892,103.57,113.592,122.947
				C228.121,361.108,232.321,367.157,235.414,371.876z"/>
			<path style="fill:none;stroke:#263238;stroke-width:0.6093;stroke-miterlimit:10;" d="M244.985,372.746
				c0,0-12.477-24.33-44.916-57.081c-32.439-32.751-67.374-64.567-67.374-64.567"/>
			<path style="fill:#92E3A9;stroke:#263238;stroke-width:1.2187;stroke-miterlimit:10;" d="M210.878,371.876h26.825
				c-9.938-10.551-32.194-30.603-68.554-44.769c-51.451-20.046-99.56-25.391-99.56-25.391s58.801,20.046,98.224,40.092
				C189.109,352.637,202.79,363.849,210.878,371.876z"/>
			<path style="fill:none;stroke:#263238;stroke-width:0.6093;stroke-miterlimit:10;" d="M128.977,319.582
				c-17.141-6.171-29.144-9.33-29.144-9.33"/>
			<path style="fill:none;stroke:#263238;stroke-width:0.6093;stroke-miterlimit:10;" d="M192.632,348.956
				c-6.029-3.512-12.884-7.254-20.575-11.1c-13.573-6.787-27.093-12.357-38.703-16.673"/>
			<path style="fill:none;stroke:#263238;stroke-width:0.6093;stroke-miterlimit:10;" d="M226.055,371.88
				c0,0-9.562-8.578-29.049-20.332"/>
			<path style="fill:#92E3A9;stroke:#263238;stroke-width:1.2187;stroke-miterlimit:10;" d="M275.504,371.876
				c-2.473-14.21-6.387-41.124-5.458-64.815c1.336-34.078,13.364-81.519,13.364-81.519s-13.364,20.714-24.055,57.464
				c-8.613,29.607-7.685,73.083-6.999,88.87H275.504z"/>
			<path style="fill:none;stroke:#263238;stroke-width:0.6093;stroke-miterlimit:10;" d="M259.842,349.967
				c-0.123-9.188,0.316-20.381,1.834-33.665c4.538-39.704,15.882-74.115,15.882-74.115"/>
			<path style="fill:none;stroke:#263238;stroke-width:0.6093;stroke-miterlimit:10;" d="M261.381,371.6
				c-0.601-4.328-1.17-9.953-1.423-16.923"/>
			<path style="fill:#92E3A9;stroke:#263238;stroke-width:1.2187;stroke-miterlimit:10;" d="M239.299,371.876h19.638
				c-5.001-12.063-17.595-40.768-36.332-72.165c-24.723-41.428-62.81-71.496-62.81-71.496s34.746,36.75,45.437,72.833
				C213.245,328.094,230.938,358.395,239.299,371.876z"/>
			<path style="fill:none;stroke:#263238;stroke-width:0.6093;stroke-miterlimit:10;" d="M224.703,324.26
				c-0.942-2.062-1.857-4.092-2.731-6.067c-10.21-23.066-22.31-41.973-22.31-41.973"/>
			<path style="fill:none;stroke:#263238;stroke-width:0.6093;stroke-miterlimit:10;" d="M247.923,371.88
				c0,0-11.061-21.517-20.653-42.064"/>
			<path style="fill:#92E3A9;stroke:#263238;stroke-width:1.2187;stroke-miterlimit:10;" d="M281.084,371.876
				c3.177-8.939,8.212-23.758,14.353-44.101c10.691-35.414,46.105-94.215,46.105-94.215s-32.073,25.391-53.455,63.478
				c-16.548,29.477-23.49,61.75-25.783,74.837H281.084z"/>
			<path style="fill:none;stroke:#263238;stroke-width:0.6093;stroke-miterlimit:10;" d="M271.754,372.021
				c0,0,2.779-22.82,23.955-73.869"/>
			<path style="fill:none;stroke:#263238;stroke-width:0.6093;stroke-miterlimit:10;" d="M298.356,293.614
				c0,0,16.638-27.226,26.091-38.948"/>
			<path style="fill:#92E3A9;stroke:#263238;stroke-width:1.2187;stroke-miterlimit:10;" d="M302.719,371.876
				c6.957-13.092,19.91-37.072,33.478-60.137c20.046-34.078,71.497-72.833,71.497-72.833s-52.787,28.064-76.842,53.455
				c-18.168,19.178-39.382,60.457-48.679,79.515H302.719z"/>
			<path style="fill:none;stroke:#263238;stroke-width:0.6093;stroke-miterlimit:10;" d="M331.03,307.834
				c4.364-5.879,8.667-11.493,12.702-16.489"/>
			<path style="fill:none;stroke:#263238;stroke-width:0.6093;stroke-miterlimit:10;" d="M286.761,371.876
				c0,0,21.039-32.393,41.641-60.479"/>
			<path style="fill:#92E3A9;stroke:#263238;stroke-width:1.2187;stroke-miterlimit:10;" d="M309.292,371.876
				c7.668-11.312,23.187-31.423,48.287-52.119c38.087-31.405,72.833-46.105,72.833-46.105s0,0-14.032,2.005
				c-14.032,2.005-56.796,20.046-81.519,42.096c-19.01,16.955-39.598,42.994-48.099,54.124H309.292z"/>
			<path style="fill:none;stroke:#263238;stroke-width:0.6093;stroke-miterlimit:10;" d="M351.474,316.328
				c4.526-3.095,9.378-6.146,14.568-9.101"/>
			<path style="fill:none;stroke:#263238;stroke-width:0.6093;stroke-miterlimit:10;" d="M302.925,364.062
				c6.592-9.768,20.337-27.257,43.39-44.089"/>
			<path style="fill:none;stroke:#263238;stroke-width:0.6093;stroke-miterlimit:10;" d="M298.134,371.876
				c0,0,0.935-1.829,2.936-4.982"/>
		</g>
		<path style="fill:#263238;stroke:#263238;stroke-width:1.2187;stroke-miterlimit:10;" d="M262.633,478.686h-4.553
			c-19.969,0-36.926-14.624-39.861-34.376l-10.762-72.434h105.8l-10.762,72.434C299.559,464.062,282.602,478.686,262.633,478.686z"
			/>
	</g>
</g>
</svg>
