<?xml version="1.0" encoding="utf-8"?>
<!-- Generator: Adobe Illustrator 27.5.0, SVG Export Plug-In . SVG Version: 6.00 Build 0)  -->
<svg version="1.1" xmlns="http://www.w3.org/2000/svg" xmlns:xlink="http://www.w3.org/1999/xlink" x="0px" y="0px"
	 viewBox="0 0 750 500" style="enable-background:new 0 0 750 500;" xml:space="preserve">
<g id="Background_Simple">
	<g>
		<path style="fill:#92E3A9;" d="M663.67,199.456c-9.981-15.572-21.354-30.309-34.589-43.177
			c-26.926-26.179-61.244-42.183-96.655-53.58c-2.829-0.911-5.67-1.785-8.52-2.628c-113.367-33.517-258.281,20.702-303.628,76.893
			C174.931,233.154,96.066,243.012,57.62,312.018c-38.446,69.006,3.943,140.97,3.943,140.97h631.901
			c0,0,39.432-51.262,29.574-108.439c-6.293-36.501-20.392-70.983-36.594-104.1C679.67,226.604,672.176,212.727,663.67,199.456z"/>
		<path style="opacity:0.7;fill:#FFFFFF;" d="M663.67,199.456c-9.981-15.572-21.354-30.309-34.589-43.177
			c-26.926-26.179-61.244-42.183-96.655-53.58c-2.829-0.911-5.67-1.785-8.52-2.628c-113.367-33.517-258.281,20.702-303.628,76.893
			C174.931,233.154,96.066,243.012,57.62,312.018c-38.446,69.006,3.943,140.97,3.943,140.97h631.901
			c0,0,39.432-51.262,29.574-108.439c-6.293-36.501-20.392-70.983-36.594-104.1C679.67,226.604,672.176,212.727,663.67,199.456z"/>
	</g>
</g>
<g id="Floor">
	
		<line style="fill:none;stroke:#263238;stroke-linecap:round;stroke-linejoin:round;stroke-miterlimit:10;" x1="44.477" y1="454.253" x2="723" y2="454.253"/>
</g>
<g id="Plants_1_">
	<g>
		<path style="fill:#263238;" d="M143.509,125.504c0.082,0.048,1.445-6.121,1.487-6.521c0.477-4.619-1.314-13.825-6.074-15.921
			c-3.428-1.51-7.129,0.582-8.238,4.001c-1.133,3.492,0.608,7.666,2.594,10.51C135.609,120.912,143.503,125.5,143.509,125.504z"/>
		<path style="fill:#263238;" d="M51.165,126.755c3.787,1.497,12.903,0.97,12.91,0.969c0.094-0.006-2.171-5.902-2.357-6.259
			c-2.15-4.116-8.724-10.806-13.85-9.929c-3.693,0.633-5.625,4.419-4.664,7.882C44.186,122.957,47.94,125.479,51.165,126.755z"/>
		<path style="fill:#263238;" d="M55.248,153.068c3.888,0.428,11.946-2.221,12.587-2.434c1.446,4.512,3.296,9.024,5.42,13.488
			c1.211,2.553,2.51,5.088,3.846,7.612c-0.781-1.062-1.487-2.005-1.6-2.127c-3.161-3.403-11.268-8.119-15.98-5.919
			c-3.395,1.585-4.258,5.747-2.417,8.834c1.88,3.153,6.168,4.594,9.615,4.973c3.498,0.384,10.414-1.736,12.237-2.322
			c0.522,0.963,1.033,1.931,1.559,2.891c2.524,4.611,5.062,9.201,7.412,13.781c0.83,1.613,1.587,3.232,2.352,4.849
			c-0.695-0.942-1.288-1.73-1.391-1.841c-3.16-3.402-11.267-8.119-15.979-5.919c-3.395,1.585-4.258,5.747-2.417,8.835
			c1.881,3.153,6.167,4.593,9.615,4.972c3.339,0.367,9.739-1.533,11.908-2.218c0.732,1.68,1.469,3.361,2.103,5.021
			c0.407,1.144,0.879,2.217,1.223,3.389c0.366,1.152,0.728,2.294,1.088,3.423c0.611,2.202,1.255,4.47,1.797,6.633
			c0.389,1.501,0.731,2.939,1.08,4.387c-0.806-1.615-2.453-4.745-2.62-4.99c-2.608-3.842-9.907-9.732-14.899-8.271
			c-3.595,1.053-5.08,5.035-3.727,8.366c1.382,3.401,5.401,5.475,8.751,6.372c3.689,0.987,11.734-0.318,12.738-0.488
			c0.569,2.397,1.101,4.735,1.566,6.948c1.629,7.65,2.696,14.085,3.381,18.601l3.524-0.124c-0.023-0.136-0.044-0.258-0.068-0.398
			c-0.792-4.555-2.013-11.043-3.829-18.75c-0.568-2.437-1.225-5.029-1.923-7.685c0.598-0.262,3.996-1.778,6.989-3.593
			c2.762,2.786,9.697,5.917,10.595,6.315c-0.848,2.314-1.694,4.556-2.527,6.659c-2.863,7.285-5.526,13.244-7.446,17.388l3.868-0.137
			c1.774-4.113,4.047-9.609,6.457-16.154c0.87-2.346,1.753-4.87,2.636-7.471c0.985,0.17,9.042,1.512,12.74,0.539
			c3.354-0.883,7.381-2.94,8.777-6.336c1.366-3.325-0.102-7.314-3.694-8.38c-4.985-1.481-12.308,4.379-14.931,8.211
			c-0.155,0.226-1.56,2.866-2.42,4.546c0.355-1.065,0.711-2.094,1.063-3.194c0.711-2.171,1.356-4.358,2.059-6.709
			c0.3-1.147,0.602-2.306,0.907-3.476c0.328-1.154,0.528-2.415,0.799-3.633c0.57-2.836,1.011-5.739,1.389-8.673
			c1.903,0.617,8.69,2.713,12.156,2.347c3.448-0.365,7.742-1.788,9.635-4.934c1.854-3.08,1.007-7.245-2.382-8.844
			c-4.703-2.219-12.829,2.465-16.003,5.855c-0.198,0.211-2.202,2.899-3.275,4.398c0.214-1.766,0.436-3.527,0.594-5.32
			c0.458-5.176,0.76-10.429,1.085-15.668c0.098-1.605,0.216-3.203,0.328-4.803c0.674,0.227,8.689,2.893,12.57,2.482
			c3.449-0.365,7.742-1.788,9.635-4.934c1.854-3.08,1.007-7.245-2.382-8.844c-4.703-2.219-12.829,2.465-16.003,5.855
			c-0.239,0.255-3.117,4.128-3.801,5.149c0.247-3.524,0.526-7.033,0.941-10.481c0.567-4.759,1.385-9.397,2.511-13.831
			c0.314,0.107,8.666,2.926,12.641,2.506c3.449-0.365,7.742-1.789,9.636-4.934c1.854-3.079,1.007-7.245-2.382-8.843
			c-4.704-2.219-12.829,2.465-16.003,5.854c-0.208,0.223-2.403,3.17-3.415,4.597c-0.148-0.07-0.121-0.057-0.269-0.128
			c1.263-4.736,3.083-9.164,4.991-13.225c1.101-2.355,2.284-4.544,3.484-6.647c1.502,0.685,8.399,3.738,12.017,3.755
			c3.469,0.016,7.892-0.928,10.12-3.845c2.181-2.858,1.796-7.091-1.396-9.052c-4.431-2.723-13.022,1.041-16.549,4.061
			c-0.192,0.165-1.957,2.051-3.223,3.442c0.556-0.941,1.113-1.923,1.663-2.814c2.058-3.351,4.15-6.292,6.023-8.882
			c1.078-1.464,2.08-2.767,3.031-3.976c1.824-0.097,9.17-0.58,12.333-2.203c3.085-1.584,6.576-4.459,7.208-8.076
			c0.619-3.541-1.673-7.121-5.41-7.39c-5.187-0.374-11.077,6.925-12.816,11.231c-0.15,0.372-1.831,6.462-1.735,6.458
			c0,0,0.089-0.005,0.11-0.006c-0.939,1.145-1.932,2.383-2.99,3.758c-1.934,2.555-4.095,5.459-6.234,8.778
			c-2.147,3.311-4.386,6.97-6.396,11.036c-2.02,4.073-3.938,8.46-5.329,13.236c-0.016,0.054-0.025,0.112-0.041,0.166
			c-0.027-1.523-0.245-5.78-0.299-6.105c-0.759-4.581-4.919-12.988-10.063-13.752c-3.706-0.55-6.723,2.445-6.89,6.036
			c-0.17,3.667,2.61,7.233,5.277,9.451c3.008,2.501,11.189,4.738,11.841,4.913c-1.283,4.561-2.229,9.345-2.92,14.24
			c-0.398,2.798-0.712,5.628-0.991,8.47c-0.065-1.316-0.134-2.493-0.161-2.656c-0.759-4.582-4.919-12.988-10.063-13.752
			c-3.706-0.551-6.722,2.444-6.889,6.035c-0.171,3.668,2.61,7.234,5.277,9.452c2.706,2.25,9.643,4.297,11.486,4.814
			c-0.096,1.092-0.203,2.18-0.295,3.272c-0.439,5.237-0.854,10.467-1.419,15.583c-0.198,1.803-0.46,3.572-0.715,5.342
			c-0.06-1.169-0.12-2.153-0.144-2.303c-0.759-4.581-4.918-12.988-10.063-13.752c-3.706-0.551-6.723,2.444-6.89,6.035
			c-0.17,3.667,2.611,7.234,5.277,9.451c2.582,2.148,8.968,4.094,11.156,4.719c-0.317,1.805-0.629,3.613-1.017,5.348
			c-0.292,1.179-0.49,2.334-0.849,3.501c-0.331,1.163-0.658,2.314-0.982,3.455c-0.705,2.174-1.419,4.421-2.16,6.524
			c-0.505,1.467-1.012,2.855-1.519,4.255c0.219-1.793,0.571-5.311,0.568-5.608c-0.037-3.085-1.309-8.059-3.612-11.505
			c-0.003-0.456-0.046-0.909-0.133-1.357c-0.695-3.527-4.121-6.044-7.705-4.952c-4.975,1.514-7.849,10.443-7.924,15.086
			c-0.005,0.274,0.28,3.251,0.491,5.127c-0.291-1.084-0.562-2.139-0.876-3.251c-0.605-2.203-1.273-4.383-1.984-6.732
			c-0.383-1.122-0.77-2.255-1.161-3.399c-0.363-1.143-0.893-2.305-1.337-3.471c-1.09-2.681-2.324-5.344-3.626-8.001
			c1.927-0.535,8.745-2.531,11.433-4.748c2.675-2.207,5.47-5.763,5.315-9.43c-0.153-3.592-3.157-6.598-6.865-6.063
			c-5.147,0.744-9.341,9.133-10.118,13.712c-0.048,0.286-0.237,3.633-0.304,5.475c-0.796-1.591-1.582-3.182-2.439-4.765
			c-2.474-4.569-5.119-9.117-7.739-13.667c-0.803-1.393-1.586-2.79-2.377-4.186c0.688-0.183,8.843-2.381,11.854-4.864
			c2.676-2.207,5.471-5.763,5.315-9.43c-0.153-3.591-3.157-6.598-6.865-6.062c-5.147,0.744-9.341,9.133-10.118,13.712
			c-0.058,0.345-0.322,5.163-0.33,6.391c-1.738-3.075-3.442-6.156-4.997-9.261c-2.153-4.282-4.028-8.602-5.535-12.922
			c0.321-0.084,8.842-2.34,11.926-4.883c2.676-2.207,5.47-5.762,5.315-9.43c-0.153-3.591-3.157-6.598-6.865-6.062
			c-5.147,0.744-9.341,9.133-10.118,13.711c-0.051,0.301-0.256,3.974-0.313,5.721c-0.162,0.023-0.132,0.019-0.294,0.042
			c-1.559-4.648-2.484-9.346-3.133-13.787c-0.381-2.571-0.602-5.05-0.762-7.466c1.631-0.257,9.067-1.516,12.095-3.498
			c2.902-1.9,6.07-5.127,6.319-8.789c0.242-3.587-2.413-6.906-6.158-6.78c-5.197,0.174-10.286,8.052-11.562,12.517
			c-0.07,0.243-0.501,2.789-0.79,4.648c-0.055-1.091-0.133-2.217-0.165-3.264c-0.132-3.93-0.01-7.537,0.123-10.731
			c0.09-1.816,0.209-3.456,0.335-4.989c1.468-1.088,7.329-5.543,9.071-8.64c1.7-3.023,3.025-7.348,1.557-10.712
			c-1.438-3.295-5.324-5.016-8.59-3.18c-4.533,2.549-5.419,11.887-4.494,16.438c0.08,0.393,2.038,6.4,2.116,6.344
			c0,0,0.072-0.053,0.088-0.065c-0.151,1.473-0.296,3.055-0.42,4.784c-0.203,3.197-0.404,6.812-0.357,10.761
			c0.036,3.946,0.187,8.233,0.754,12.732c0.561,4.512,1.382,9.23,2.857,13.981c0.017,0.054,0.041,0.107,0.058,0.161
			c-0.863-1.255-3.393-4.686-3.617-4.927c-3.161-3.402-11.268-8.119-15.98-5.919c-3.395,1.586-4.259,5.747-2.417,8.835
			C47.513,151.249,51.8,152.689,55.248,153.068z"/>
		<path style="opacity:0.3;fill:#263238;" d="M51.165,126.755c3.787,1.497,12.903,0.97,12.91,0.969
			c0.094-0.006-2.171-5.902-2.357-6.259c-2.15-4.116-8.724-10.806-13.85-9.929c-3.693,0.633-5.625,4.419-4.664,7.882
			C44.186,122.957,47.94,125.479,51.165,126.755z"/>
		<path style="opacity:0.3;fill:#263238;" d="M143.509,125.504c0.082,0.048,1.445-6.121,1.487-6.521
			c0.477-4.619-1.314-13.825-6.074-15.921c-3.428-1.51-7.129,0.582-8.238,4.001c-1.133,3.492,0.608,7.666,2.594,10.51
			C135.609,120.912,143.503,125.5,143.509,125.504z"/>
		<path style="opacity:0.3;fill:#263238;" d="M55.248,153.068c3.888,0.428,11.946-2.221,12.587-2.434
			c1.446,4.512,3.296,9.024,5.42,13.488c1.211,2.553,2.51,5.088,3.846,7.612c-0.781-1.062-1.487-2.005-1.6-2.127
			c-3.161-3.403-11.268-8.119-15.98-5.919c-3.395,1.585-4.258,5.747-2.417,8.834c1.88,3.153,6.168,4.594,9.615,4.973
			c3.498,0.384,10.414-1.736,12.237-2.322c0.522,0.963,1.033,1.931,1.559,2.891c2.524,4.611,5.062,9.201,7.412,13.781
			c0.83,1.613,1.587,3.232,2.352,4.849c-0.695-0.942-1.288-1.73-1.391-1.841c-3.16-3.402-11.267-8.119-15.979-5.919
			c-3.395,1.585-4.258,5.747-2.417,8.835c1.881,3.153,6.167,4.593,9.615,4.972c3.339,0.367,9.739-1.533,11.908-2.218
			c0.732,1.68,1.469,3.361,2.103,5.021c0.407,1.144,0.879,2.217,1.223,3.389c0.366,1.152,0.728,2.294,1.088,3.423
			c0.611,2.202,1.255,4.47,1.797,6.633c0.389,1.501,0.731,2.939,1.08,4.387c-0.806-1.615-2.453-4.745-2.62-4.99
			c-2.608-3.842-9.907-9.732-14.899-8.271c-3.595,1.053-5.08,5.035-3.727,8.366c1.382,3.401,5.401,5.475,8.751,6.372
			c3.689,0.987,11.734-0.318,12.738-0.488c0.569,2.397,1.101,4.735,1.566,6.948c1.629,7.65,2.696,14.085,3.381,18.601l3.524-0.124
			c-0.023-0.136-0.044-0.258-0.068-0.398c-0.792-4.555-2.013-11.043-3.829-18.75c-0.568-2.437-1.225-5.029-1.923-7.685
			c0.598-0.262,3.996-1.778,6.989-3.593c2.762,2.786,9.697,5.917,10.595,6.315c-0.848,2.314-1.694,4.556-2.527,6.659
			c-2.863,7.285-5.526,13.244-7.446,17.388l3.868-0.137c1.774-4.113,4.047-9.609,6.457-16.154c0.87-2.346,1.753-4.87,2.636-7.471
			c0.985,0.17,9.042,1.512,12.74,0.539c3.354-0.883,7.381-2.94,8.777-6.336c1.366-3.325-0.102-7.314-3.694-8.38
			c-4.985-1.481-12.308,4.379-14.931,8.211c-0.155,0.226-1.56,2.866-2.42,4.546c0.355-1.065,0.711-2.094,1.063-3.194
			c0.711-2.171,1.356-4.358,2.059-6.709c0.3-1.147,0.602-2.306,0.907-3.476c0.328-1.154,0.528-2.415,0.799-3.633
			c0.57-2.836,1.011-5.739,1.389-8.673c1.903,0.617,8.69,2.713,12.156,2.347c3.448-0.365,7.742-1.788,9.635-4.934
			c1.854-3.08,1.007-7.245-2.382-8.844c-4.703-2.219-12.829,2.465-16.003,5.855c-0.198,0.211-2.202,2.899-3.275,4.398
			c0.214-1.766,0.436-3.527,0.594-5.32c0.458-5.176,0.76-10.429,1.085-15.668c0.098-1.605,0.216-3.203,0.328-4.803
			c0.674,0.227,8.689,2.893,12.57,2.482c3.449-0.365,7.742-1.788,9.635-4.934c1.854-3.08,1.007-7.245-2.382-8.844
			c-4.703-2.219-12.829,2.465-16.003,5.855c-0.239,0.255-3.117,4.128-3.801,5.149c0.247-3.524,0.526-7.033,0.941-10.481
			c0.567-4.759,1.385-9.397,2.511-13.831c0.314,0.107,8.666,2.926,12.641,2.506c3.449-0.365,7.742-1.789,9.636-4.934
			c1.854-3.079,1.007-7.245-2.382-8.843c-4.704-2.219-12.829,2.465-16.003,5.854c-0.208,0.223-2.403,3.17-3.415,4.597
			c-0.148-0.07-0.121-0.057-0.269-0.128c1.263-4.736,3.083-9.164,4.991-13.225c1.101-2.355,2.284-4.544,3.484-6.647
			c1.502,0.685,8.399,3.738,12.017,3.755c3.469,0.016,7.892-0.928,10.12-3.845c2.181-2.858,1.796-7.091-1.396-9.052
			c-4.431-2.723-13.022,1.041-16.549,4.061c-0.192,0.165-1.957,2.051-3.223,3.442c0.556-0.941,1.113-1.923,1.663-2.814
			c2.058-3.351,4.15-6.292,6.023-8.882c1.078-1.464,2.08-2.767,3.031-3.976c1.824-0.097,9.17-0.58,12.333-2.203
			c3.085-1.584,6.576-4.459,7.208-8.076c0.619-3.541-1.673-7.121-5.41-7.39c-5.187-0.374-11.077,6.925-12.816,11.231
			c-0.15,0.372-1.831,6.462-1.735,6.458c0,0,0.089-0.005,0.11-0.006c-0.939,1.145-1.932,2.383-2.99,3.758
			c-1.934,2.555-4.095,5.459-6.234,8.778c-2.147,3.311-4.386,6.97-6.396,11.036c-2.02,4.073-3.938,8.46-5.329,13.236
			c-0.016,0.054-0.025,0.112-0.041,0.166c-0.027-1.523-0.245-5.78-0.299-6.105c-0.759-4.581-4.919-12.988-10.063-13.752
			c-3.706-0.55-6.723,2.445-6.89,6.036c-0.17,3.667,2.61,7.233,5.277,9.451c3.008,2.501,11.189,4.738,11.841,4.913
			c-1.283,4.561-2.229,9.345-2.92,14.24c-0.398,2.798-0.712,5.628-0.991,8.47c-0.065-1.316-0.134-2.493-0.161-2.656
			c-0.759-4.582-4.919-12.988-10.063-13.752c-3.706-0.551-6.722,2.444-6.889,6.035c-0.171,3.668,2.61,7.234,5.277,9.452
			c2.706,2.25,9.643,4.297,11.486,4.814c-0.096,1.092-0.203,2.18-0.295,3.272c-0.439,5.237-0.854,10.467-1.419,15.583
			c-0.198,1.803-0.46,3.572-0.715,5.342c-0.06-1.169-0.12-2.153-0.144-2.303c-0.759-4.581-4.918-12.988-10.063-13.752
			c-3.706-0.551-6.723,2.444-6.89,6.035c-0.17,3.667,2.611,7.234,5.277,9.451c2.582,2.148,8.968,4.094,11.156,4.719
			c-0.317,1.805-0.629,3.613-1.017,5.348c-0.292,1.179-0.49,2.334-0.849,3.501c-0.331,1.163-0.658,2.314-0.982,3.455
			c-0.705,2.174-1.419,4.421-2.16,6.524c-0.505,1.467-1.012,2.855-1.519,4.255c0.219-1.793,0.571-5.311,0.568-5.608
			c-0.037-3.085-1.309-8.059-3.612-11.505c-0.003-0.456-0.046-0.909-0.133-1.357c-0.695-3.527-4.121-6.044-7.705-4.952
			c-4.975,1.514-7.849,10.443-7.924,15.086c-0.005,0.274,0.28,3.251,0.491,5.127c-0.291-1.084-0.562-2.139-0.876-3.251
			c-0.605-2.203-1.273-4.383-1.984-6.732c-0.383-1.122-0.77-2.255-1.161-3.399c-0.363-1.143-0.893-2.305-1.337-3.471
			c-1.09-2.681-2.324-5.344-3.626-8.001c1.927-0.535,8.745-2.531,11.433-4.748c2.675-2.207,5.47-5.763,5.315-9.43
			c-0.153-3.592-3.157-6.598-6.865-6.063c-5.147,0.744-9.341,9.133-10.118,13.712c-0.048,0.286-0.237,3.633-0.304,5.475
			c-0.796-1.591-1.582-3.182-2.439-4.765c-2.474-4.569-5.119-9.117-7.739-13.667c-0.803-1.393-1.586-2.79-2.377-4.186
			c0.688-0.183,8.843-2.381,11.854-4.864c2.676-2.207,5.471-5.763,5.315-9.43c-0.153-3.591-3.157-6.598-6.865-6.062
			c-5.147,0.744-9.341,9.133-10.118,13.712c-0.058,0.345-0.322,5.163-0.33,6.391c-1.738-3.075-3.442-6.156-4.997-9.261
			c-2.153-4.282-4.028-8.602-5.535-12.922c0.321-0.084,8.842-2.34,11.926-4.883c2.676-2.207,5.47-5.762,5.315-9.43
			c-0.153-3.591-3.157-6.598-6.865-6.062c-5.147,0.744-9.341,9.133-10.118,13.711c-0.051,0.301-0.256,3.974-0.313,5.721
			c-0.162,0.023-0.132,0.019-0.294,0.042c-1.559-4.648-2.484-9.346-3.133-13.787c-0.381-2.571-0.602-5.05-0.762-7.466
			c1.631-0.257,9.067-1.516,12.095-3.498c2.902-1.9,6.07-5.127,6.319-8.789c0.242-3.587-2.413-6.906-6.158-6.78
			c-5.197,0.174-10.286,8.052-11.562,12.517c-0.07,0.243-0.501,2.789-0.79,4.648c-0.055-1.091-0.133-2.217-0.165-3.264
			c-0.132-3.93-0.01-7.537,0.123-10.731c0.09-1.816,0.209-3.456,0.335-4.989c1.468-1.088,7.329-5.543,9.071-8.64
			c1.7-3.023,3.025-7.348,1.557-10.712c-1.438-3.295-5.324-5.016-8.59-3.18c-4.533,2.549-5.419,11.887-4.494,16.438
			c0.08,0.393,2.038,6.4,2.116,6.344c0,0,0.072-0.053,0.088-0.065c-0.151,1.473-0.296,3.055-0.42,4.784
			c-0.203,3.197-0.404,6.812-0.357,10.761c0.036,3.946,0.187,8.233,0.754,12.732c0.561,4.512,1.382,9.23,2.857,13.981
			c0.017,0.054,0.041,0.107,0.058,0.161c-0.863-1.255-3.393-4.686-3.617-4.927c-3.161-3.402-11.268-8.119-15.98-5.919
			c-3.395,1.586-4.259,5.747-2.417,8.835C47.513,151.249,51.8,152.689,55.248,153.068z"/>
	</g>
	<g>
		<path style="fill:#263238;" d="M127.509,329.292c0.082,0.048,1.445-6.122,1.487-6.521c0.478-4.619-1.314-13.825-6.074-15.921
			c-3.429-1.51-7.129,0.582-8.239,4.001c-1.133,3.492,0.608,7.666,2.594,10.51C119.609,324.7,127.503,329.288,127.509,329.292z"/>
		<path style="fill:#263238;" d="M35.165,330.543c3.787,1.497,12.903,0.97,12.91,0.969c0.095-0.005-2.171-5.902-2.357-6.258
			c-2.15-4.117-8.724-10.806-13.85-9.929c-3.693,0.633-5.625,4.419-4.664,7.883C28.186,326.746,31.94,329.267,35.165,330.543z"/>
		<path style="fill:#263238;" d="M39.248,356.856c3.888,0.428,11.946-2.221,12.587-2.434c1.446,4.512,3.296,9.024,5.42,13.488
			c1.211,2.553,2.51,5.088,3.846,7.612c-0.781-1.062-1.487-2.005-1.6-2.127c-3.161-3.403-11.268-8.119-15.98-5.919
			c-3.395,1.585-4.258,5.747-2.417,8.834c1.88,3.153,6.168,4.594,9.615,4.973c3.499,0.384,10.414-1.736,12.237-2.322
			c0.522,0.963,1.033,1.931,1.559,2.891c2.524,4.611,5.062,9.201,7.412,13.781c0.83,1.613,1.587,3.232,2.352,4.849
			c-0.695-0.942-1.288-1.73-1.391-1.841c-3.16-3.402-11.267-8.119-15.979-5.919c-3.395,1.585-4.258,5.747-2.417,8.835
			c1.881,3.153,6.167,4.593,9.615,4.972c3.339,0.367,9.739-1.533,11.908-2.218c0.732,1.68,1.469,3.361,2.103,5.021
			c0.407,1.144,0.879,2.217,1.223,3.389c0.366,1.152,0.728,2.294,1.088,3.423c0.611,2.202,1.255,4.47,1.797,6.634
			c0.389,1.501,0.731,2.939,1.08,4.387c-0.806-1.615-2.453-4.745-2.62-4.99c-2.608-3.842-9.907-9.732-14.899-8.271
			c-3.595,1.053-5.08,5.035-3.727,8.366c1.382,3.401,5.401,5.475,8.751,6.372c3.689,0.987,11.734-0.318,12.738-0.488
			c0.569,2.397,1.101,4.735,1.566,6.948c1.629,7.65,2.696,14.085,3.381,18.601l3.524-0.125c-0.023-0.136-0.044-0.258-0.068-0.398
			c-0.792-4.555-2.013-11.043-3.829-18.75c-0.568-2.437-1.225-5.029-1.923-7.685c0.598-0.262,3.996-1.778,6.989-3.593
			c2.762,2.786,9.697,5.917,10.595,6.315c-0.848,2.314-1.694,4.556-2.527,6.659c-2.863,7.285-5.526,13.244-7.446,17.388l3.868-0.137
			c1.774-4.113,4.047-9.609,6.457-16.154c0.87-2.346,1.754-4.87,2.636-7.471c0.985,0.17,9.042,1.513,12.74,0.539
			c3.354-0.883,7.381-2.94,8.777-6.336c1.366-3.325-0.102-7.314-3.694-8.38c-4.985-1.481-12.308,4.379-14.931,8.211
			c-0.155,0.226-1.56,2.866-2.42,4.546c0.355-1.065,0.711-2.094,1.063-3.194c0.711-2.171,1.356-4.358,2.059-6.709
			c0.3-1.147,0.602-2.306,0.907-3.476c0.328-1.154,0.528-2.415,0.799-3.632c0.57-2.837,1.011-5.739,1.389-8.673
			c1.903,0.617,8.691,2.713,12.156,2.347c3.448-0.365,7.741-1.788,9.635-4.934c1.854-3.08,1.007-7.245-2.382-8.844
			c-4.703-2.219-12.829,2.465-16.003,5.855c-0.198,0.211-2.202,2.899-3.275,4.398c0.214-1.766,0.436-3.527,0.594-5.32
			c0.458-5.176,0.76-10.429,1.085-15.668c0.098-1.605,0.216-3.203,0.328-4.803c0.674,0.227,8.689,2.893,12.57,2.482
			c3.449-0.365,7.742-1.789,9.635-4.934c1.854-3.08,1.007-7.245-2.382-8.844c-4.703-2.219-12.83,2.465-16.003,5.855
			c-0.239,0.255-3.117,4.128-3.801,5.149c0.247-3.524,0.526-7.033,0.941-10.482c0.567-4.759,1.385-9.397,2.511-13.831
			c0.314,0.107,8.666,2.926,12.641,2.506c3.449-0.365,7.742-1.789,9.636-4.934c1.854-3.079,1.007-7.245-2.382-8.844
			c-4.704-2.219-12.829,2.465-16.003,5.854c-0.208,0.223-2.403,3.17-3.415,4.597c-0.148-0.07-0.121-0.057-0.269-0.128
			c1.263-4.736,3.083-9.164,4.991-13.225c1.101-2.355,2.284-4.544,3.484-6.647c1.502,0.685,8.399,3.738,12.017,3.755
			c3.469,0.016,7.892-0.928,10.12-3.845c2.181-2.858,1.796-7.091-1.396-9.052c-4.431-2.723-13.022,1.041-16.549,4.061
			c-0.192,0.164-1.957,2.051-3.223,3.442c0.556-0.941,1.112-1.923,1.663-2.814c2.058-3.351,4.15-6.292,6.023-8.883
			c1.078-1.464,2.08-2.767,3.031-3.976c1.824-0.097,9.17-0.58,12.333-2.203c3.085-1.584,6.576-4.459,7.208-8.076
			c0.619-3.541-1.673-7.121-5.41-7.39c-5.187-0.374-11.077,6.925-12.816,11.231c-0.15,0.372-1.831,6.462-1.735,6.458
			c0,0,0.089-0.004,0.11-0.005c-0.939,1.145-1.932,2.383-2.99,3.758c-1.934,2.555-4.095,5.459-6.234,8.778
			c-2.147,3.311-4.386,6.97-6.396,11.036c-2.02,4.073-3.938,8.46-5.329,13.237c-0.016,0.054-0.025,0.112-0.041,0.166
			c-0.027-1.523-0.245-5.78-0.299-6.105c-0.759-4.581-4.919-12.988-10.063-13.753c-3.706-0.55-6.723,2.445-6.89,6.036
			c-0.17,3.667,2.61,7.233,5.277,9.451c3.007,2.502,11.189,4.738,11.841,4.913c-1.283,4.561-2.229,9.346-2.92,14.24
			c-0.398,2.798-0.712,5.628-0.991,8.47c-0.065-1.316-0.134-2.493-0.162-2.656c-0.759-4.582-4.918-12.988-10.063-13.752
			c-3.706-0.551-6.722,2.444-6.889,6.035c-0.171,3.668,2.61,7.234,5.277,9.452c2.706,2.25,9.643,4.297,11.486,4.814
			c-0.096,1.091-0.203,2.18-0.294,3.272c-0.439,5.237-0.855,10.467-1.419,15.583c-0.198,1.803-0.46,3.572-0.715,5.342
			c-0.06-1.169-0.12-2.153-0.144-2.303c-0.759-4.581-4.918-12.988-10.063-13.752c-3.706-0.551-6.723,2.444-6.89,6.035
			c-0.17,3.667,2.611,7.233,5.278,9.451c2.582,2.148,8.968,4.094,11.156,4.719c-0.317,1.805-0.629,3.613-1.017,5.348
			c-0.292,1.179-0.49,2.334-0.849,3.501c-0.331,1.163-0.658,2.314-0.982,3.455c-0.705,2.174-1.419,4.421-2.16,6.524
			c-0.505,1.467-1.012,2.855-1.519,4.255c0.219-1.793,0.571-5.311,0.568-5.608c-0.037-3.085-1.309-8.059-3.612-11.505
			c-0.003-0.456-0.046-0.909-0.133-1.357c-0.695-3.527-4.121-6.044-7.705-4.952c-4.975,1.514-7.849,10.443-7.924,15.086
			c-0.005,0.274,0.28,3.251,0.491,5.127c-0.291-1.084-0.562-2.139-0.876-3.251c-0.605-2.203-1.273-4.383-1.984-6.732
			c-0.383-1.122-0.77-2.255-1.161-3.399c-0.363-1.143-0.893-2.305-1.337-3.471c-1.09-2.681-2.324-5.344-3.626-8.001
			c1.927-0.535,8.745-2.531,11.433-4.748c2.675-2.207,5.47-5.763,5.315-9.43c-0.153-3.592-3.157-6.598-6.865-6.063
			c-5.147,0.744-9.341,9.133-10.118,13.711c-0.048,0.286-0.237,3.633-0.304,5.475c-0.796-1.591-1.582-3.182-2.439-4.765
			c-2.474-4.569-5.119-9.117-7.739-13.667c-0.803-1.393-1.586-2.79-2.377-4.186c0.688-0.183,8.843-2.381,11.854-4.864
			c2.676-2.207,5.471-5.763,5.315-9.43c-0.153-3.591-3.157-6.598-6.865-6.062c-5.147,0.744-9.341,9.133-10.118,13.711
			c-0.058,0.345-0.322,5.163-0.33,6.391c-1.738-3.075-3.442-6.156-4.997-9.261c-2.153-4.282-4.028-8.602-5.535-12.922
			c0.321-0.084,8.842-2.34,11.926-4.883c2.676-2.207,5.47-5.762,5.315-9.43c-0.153-3.592-3.157-6.598-6.865-6.062
			c-5.147,0.744-9.341,9.133-10.118,13.711c-0.051,0.301-0.256,3.974-0.313,5.721c-0.162,0.023-0.132,0.019-0.294,0.042
			c-1.559-4.648-2.485-9.346-3.133-13.787c-0.381-2.571-0.602-5.05-0.762-7.466c1.631-0.257,9.067-1.516,12.095-3.498
			c2.902-1.9,6.07-5.127,6.319-8.789c0.242-3.587-2.413-6.906-6.158-6.78c-5.197,0.174-10.286,8.052-11.562,12.517
			c-0.07,0.242-0.501,2.789-0.79,4.648c-0.055-1.091-0.133-2.217-0.165-3.264c-0.132-3.93-0.01-7.537,0.123-10.731
			c0.09-1.816,0.209-3.456,0.335-4.989c1.468-1.087,7.329-5.543,9.071-8.64c1.7-3.023,3.025-7.348,1.557-10.712
			c-1.438-3.295-5.324-5.016-8.59-3.18c-4.533,2.549-5.419,11.887-4.494,16.438c0.08,0.393,2.038,6.4,2.116,6.344
			c0,0,0.072-0.053,0.088-0.065c-0.151,1.473-0.296,3.055-0.42,4.784c-0.203,3.197-0.404,6.812-0.357,10.761
			c0.036,3.946,0.187,8.233,0.754,12.732c0.562,4.512,1.382,9.23,2.857,13.981c0.017,0.054,0.041,0.107,0.058,0.161
			c-0.863-1.255-3.393-4.685-3.617-4.927c-3.161-3.402-11.268-8.119-15.98-5.919c-3.395,1.586-4.259,5.747-2.417,8.835
			C31.513,355.037,35.8,356.478,39.248,356.856z"/>
		<path style="opacity:0.3;fill:#263238;" d="M35.165,330.543c3.787,1.497,12.903,0.97,12.91,0.969
			c0.095-0.005-2.171-5.902-2.357-6.258c-2.15-4.117-8.724-10.806-13.85-9.929c-3.693,0.633-5.625,4.419-4.664,7.883
			C28.186,326.746,31.94,329.267,35.165,330.543z"/>
		<path style="opacity:0.3;fill:#263238;" d="M127.509,329.292c0.082,0.048,1.445-6.122,1.487-6.521
			c0.478-4.619-1.314-13.825-6.074-15.921c-3.429-1.51-7.129,0.582-8.239,4.001c-1.133,3.492,0.608,7.666,2.594,10.51
			C119.609,324.7,127.503,329.288,127.509,329.292z"/>
		<path style="opacity:0.3;fill:#263238;" d="M39.248,356.856c3.888,0.428,11.946-2.221,12.587-2.434
			c1.446,4.512,3.296,9.024,5.42,13.488c1.211,2.553,2.51,5.088,3.846,7.612c-0.781-1.062-1.487-2.005-1.6-2.127
			c-3.161-3.403-11.268-8.119-15.98-5.919c-3.395,1.585-4.258,5.747-2.417,8.834c1.88,3.153,6.168,4.594,9.615,4.973
			c3.499,0.384,10.414-1.736,12.237-2.322c0.522,0.963,1.033,1.931,1.559,2.891c2.524,4.611,5.062,9.201,7.412,13.781
			c0.83,1.613,1.587,3.232,2.352,4.849c-0.695-0.942-1.288-1.73-1.391-1.841c-3.16-3.402-11.267-8.119-15.979-5.919
			c-3.395,1.585-4.258,5.747-2.417,8.835c1.881,3.153,6.167,4.593,9.615,4.972c3.339,0.367,9.739-1.533,11.908-2.218
			c0.732,1.68,1.469,3.361,2.103,5.021c0.407,1.144,0.879,2.217,1.223,3.389c0.366,1.152,0.728,2.294,1.088,3.423
			c0.611,2.202,1.255,4.47,1.797,6.634c0.389,1.501,0.731,2.939,1.08,4.387c-0.806-1.615-2.453-4.745-2.62-4.99
			c-2.608-3.842-9.907-9.732-14.899-8.271c-3.595,1.053-5.08,5.035-3.727,8.366c1.382,3.401,5.401,5.475,8.751,6.372
			c3.689,0.987,11.734-0.318,12.738-0.488c0.569,2.397,1.101,4.735,1.566,6.948c1.629,7.65,2.696,14.085,3.381,18.601l3.524-0.125
			c-0.023-0.136-0.044-0.258-0.068-0.398c-0.792-4.555-2.013-11.043-3.829-18.75c-0.568-2.437-1.225-5.029-1.923-7.685
			c0.598-0.262,3.996-1.778,6.989-3.593c2.762,2.786,9.697,5.917,10.595,6.315c-0.848,2.314-1.694,4.556-2.527,6.659
			c-2.863,7.285-5.526,13.244-7.446,17.388l3.868-0.137c1.774-4.113,4.047-9.609,6.457-16.154c0.87-2.346,1.754-4.87,2.636-7.471
			c0.985,0.17,9.042,1.513,12.74,0.539c3.354-0.883,7.381-2.94,8.777-6.336c1.366-3.325-0.102-7.314-3.694-8.38
			c-4.985-1.481-12.308,4.379-14.931,8.211c-0.155,0.226-1.56,2.866-2.42,4.546c0.355-1.065,0.711-2.094,1.063-3.194
			c0.711-2.171,1.356-4.358,2.059-6.709c0.3-1.147,0.602-2.306,0.907-3.476c0.328-1.154,0.528-2.415,0.799-3.632
			c0.57-2.837,1.011-5.739,1.389-8.673c1.903,0.617,8.691,2.713,12.156,2.347c3.448-0.365,7.741-1.788,9.635-4.934
			c1.854-3.08,1.007-7.245-2.382-8.844c-4.703-2.219-12.829,2.465-16.003,5.855c-0.198,0.211-2.202,2.899-3.275,4.398
			c0.214-1.766,0.436-3.527,0.594-5.32c0.458-5.176,0.76-10.429,1.085-15.668c0.098-1.605,0.216-3.203,0.328-4.803
			c0.674,0.227,8.689,2.893,12.57,2.482c3.449-0.365,7.742-1.789,9.635-4.934c1.854-3.08,1.007-7.245-2.382-8.844
			c-4.703-2.219-12.83,2.465-16.003,5.855c-0.239,0.255-3.117,4.128-3.801,5.149c0.247-3.524,0.526-7.033,0.941-10.482
			c0.567-4.759,1.385-9.397,2.511-13.831c0.314,0.107,8.666,2.926,12.641,2.506c3.449-0.365,7.742-1.789,9.636-4.934
			c1.854-3.079,1.007-7.245-2.382-8.844c-4.704-2.219-12.829,2.465-16.003,5.854c-0.208,0.223-2.403,3.17-3.415,4.597
			c-0.148-0.07-0.121-0.057-0.269-0.128c1.263-4.736,3.083-9.164,4.991-13.225c1.101-2.355,2.284-4.544,3.484-6.647
			c1.502,0.685,8.399,3.738,12.017,3.755c3.469,0.016,7.892-0.928,10.12-3.845c2.181-2.858,1.796-7.091-1.396-9.052
			c-4.431-2.723-13.022,1.041-16.549,4.061c-0.192,0.164-1.957,2.051-3.223,3.442c0.556-0.941,1.112-1.923,1.663-2.814
			c2.058-3.351,4.15-6.292,6.023-8.883c1.078-1.464,2.08-2.767,3.031-3.976c1.824-0.097,9.17-0.58,12.333-2.203
			c3.085-1.584,6.576-4.459,7.208-8.076c0.619-3.541-1.673-7.121-5.41-7.39c-5.187-0.374-11.077,6.925-12.816,11.231
			c-0.15,0.372-1.831,6.462-1.735,6.458c0,0,0.089-0.004,0.11-0.005c-0.939,1.145-1.932,2.383-2.99,3.758
			c-1.934,2.555-4.095,5.459-6.234,8.778c-2.147,3.311-4.386,6.97-6.396,11.036c-2.02,4.073-3.938,8.46-5.329,13.237
			c-0.016,0.054-0.025,0.112-0.041,0.166c-0.027-1.523-0.245-5.78-0.299-6.105c-0.759-4.581-4.919-12.988-10.063-13.753
			c-3.706-0.55-6.723,2.445-6.89,6.036c-0.17,3.667,2.61,7.233,5.277,9.451c3.007,2.502,11.189,4.738,11.841,4.913
			c-1.283,4.561-2.229,9.346-2.92,14.24c-0.398,2.798-0.712,5.628-0.991,8.47c-0.065-1.316-0.134-2.493-0.162-2.656
			c-0.759-4.582-4.918-12.988-10.063-13.752c-3.706-0.551-6.722,2.444-6.889,6.035c-0.171,3.668,2.61,7.234,5.277,9.452
			c2.706,2.25,9.643,4.297,11.486,4.814c-0.096,1.091-0.203,2.18-0.294,3.272c-0.439,5.237-0.855,10.467-1.419,15.583
			c-0.198,1.803-0.46,3.572-0.715,5.342c-0.06-1.169-0.12-2.153-0.144-2.303c-0.759-4.581-4.918-12.988-10.063-13.752
			c-3.706-0.551-6.723,2.444-6.89,6.035c-0.17,3.667,2.611,7.233,5.278,9.451c2.582,2.148,8.968,4.094,11.156,4.719
			c-0.317,1.805-0.629,3.613-1.017,5.348c-0.292,1.179-0.49,2.334-0.849,3.501c-0.331,1.163-0.658,2.314-0.982,3.455
			c-0.705,2.174-1.419,4.421-2.16,6.524c-0.505,1.467-1.012,2.855-1.519,4.255c0.219-1.793,0.571-5.311,0.568-5.608
			c-0.037-3.085-1.309-8.059-3.612-11.505c-0.003-0.456-0.046-0.909-0.133-1.357c-0.695-3.527-4.121-6.044-7.705-4.952
			c-4.975,1.514-7.849,10.443-7.924,15.086c-0.005,0.274,0.28,3.251,0.491,5.127c-0.291-1.084-0.562-2.139-0.876-3.251
			c-0.605-2.203-1.273-4.383-1.984-6.732c-0.383-1.122-0.77-2.255-1.161-3.399c-0.363-1.143-0.893-2.305-1.337-3.471
			c-1.09-2.681-2.324-5.344-3.626-8.001c1.927-0.535,8.745-2.531,11.433-4.748c2.675-2.207,5.47-5.763,5.315-9.43
			c-0.153-3.592-3.157-6.598-6.865-6.063c-5.147,0.744-9.341,9.133-10.118,13.711c-0.048,0.286-0.237,3.633-0.304,5.475
			c-0.796-1.591-1.582-3.182-2.439-4.765c-2.474-4.569-5.119-9.117-7.739-13.667c-0.803-1.393-1.586-2.79-2.377-4.186
			c0.688-0.183,8.843-2.381,11.854-4.864c2.676-2.207,5.471-5.763,5.315-9.43c-0.153-3.591-3.157-6.598-6.865-6.062
			c-5.147,0.744-9.341,9.133-10.118,13.711c-0.058,0.345-0.322,5.163-0.33,6.391c-1.738-3.075-3.442-6.156-4.997-9.261
			c-2.153-4.282-4.028-8.602-5.535-12.922c0.321-0.084,8.842-2.34,11.926-4.883c2.676-2.207,5.47-5.762,5.315-9.43
			c-0.153-3.592-3.157-6.598-6.865-6.062c-5.147,0.744-9.341,9.133-10.118,13.711c-0.051,0.301-0.256,3.974-0.313,5.721
			c-0.162,0.023-0.132,0.019-0.294,0.042c-1.559-4.648-2.485-9.346-3.133-13.787c-0.381-2.571-0.602-5.05-0.762-7.466
			c1.631-0.257,9.067-1.516,12.095-3.498c2.902-1.9,6.07-5.127,6.319-8.789c0.242-3.587-2.413-6.906-6.158-6.78
			c-5.197,0.174-10.286,8.052-11.562,12.517c-0.07,0.242-0.501,2.789-0.79,4.648c-0.055-1.091-0.133-2.217-0.165-3.264
			c-0.132-3.93-0.01-7.537,0.123-10.731c0.09-1.816,0.209-3.456,0.335-4.989c1.468-1.087,7.329-5.543,9.071-8.64
			c1.7-3.023,3.025-7.348,1.557-10.712c-1.438-3.295-5.324-5.016-8.59-3.18c-4.533,2.549-5.419,11.887-4.494,16.438
			c0.08,0.393,2.038,6.4,2.116,6.344c0,0,0.072-0.053,0.088-0.065c-0.151,1.473-0.296,3.055-0.42,4.784
			c-0.203,3.197-0.404,6.812-0.357,10.761c0.036,3.946,0.187,8.233,0.754,12.732c0.562,4.512,1.382,9.23,2.857,13.981
			c0.017,0.054,0.041,0.107,0.058,0.161c-0.863-1.255-3.393-4.685-3.617-4.927c-3.161-3.402-11.268-8.119-15.98-5.919
			c-3.395,1.586-4.259,5.747-2.417,8.835C31.513,355.037,35.8,356.478,39.248,356.856z"/>
	</g>
	<g>
		<path style="fill:#263238;" d="M692.269,377.748c0.051,0.03,0.892-3.779,0.918-4.026c0.295-2.852-0.811-8.535-3.75-9.828
			c-2.117-0.932-4.401,0.359-5.086,2.47c-0.699,2.156,0.375,4.732,1.601,6.488C687.392,374.913,692.266,377.746,692.269,377.748z"/>
		<path style="fill:#263238;" d="M635.262,378.52c2.338,0.924,7.965,0.599,7.97,0.598c0.058-0.003-1.341-3.644-1.455-3.864
			c-1.327-2.541-5.385-6.671-8.55-6.129c-2.28,0.391-3.472,2.728-2.879,4.866C630.954,376.176,633.271,377.732,635.262,378.52z"/>
		<path style="fill:#263238;" d="M637.782,394.764c2.4,0.264,7.375-1.371,7.77-1.503c0.893,2.785,2.035,5.571,3.346,8.327
			c0.748,1.576,1.55,3.141,2.374,4.699c-0.482-0.656-0.918-1.238-0.988-1.313c-1.951-2.101-6.956-5.012-9.865-3.654
			c-2.096,0.979-2.629,3.548-1.492,5.454c1.161,1.947,3.807,2.836,5.936,3.07c2.16,0.237,6.429-1.071,7.554-1.433
			c0.323,0.595,0.638,1.192,0.962,1.785c1.558,2.846,3.125,5.68,4.576,8.507c0.513,0.996,0.98,1.995,1.452,2.994
			c-0.429-0.582-0.795-1.068-0.858-1.136c-1.951-2.1-6.956-5.013-9.865-3.654c-2.096,0.979-2.629,3.548-1.492,5.454
			c1.161,1.946,3.807,2.836,5.936,3.069c2.061,0.226,6.012-0.946,7.351-1.369c0.452,1.037,0.907,2.075,1.298,3.1
			c0.251,0.706,0.542,1.369,0.755,2.092c0.226,0.712,0.449,1.416,0.671,2.113c0.377,1.359,0.775,2.76,1.109,4.095
			c0.24,0.927,0.451,1.815,0.667,2.708c-0.498-0.997-1.514-2.929-1.617-3.081c-1.61-2.372-6.116-6.008-9.198-5.106
			c-2.22,0.65-3.136,3.108-2.301,5.165c0.853,2.1,3.334,3.38,5.403,3.934c2.277,0.609,7.244-0.197,7.863-0.301
			c0.351,1.48,0.68,2.923,0.967,4.289c1.006,4.723,1.665,8.695,2.087,11.483l2.176-0.077c-0.014-0.084-0.027-0.16-0.042-0.246
			c-0.489-2.812-1.242-6.817-2.364-11.575c-0.351-1.504-0.756-3.105-1.187-4.744c0.37-0.162,2.467-1.098,4.315-2.218
			c1.705,1.72,5.986,3.653,6.541,3.899c-0.523,1.428-1.046,2.813-1.56,4.111c-1.768,4.497-3.411,8.176-4.597,10.734l2.388-0.084
			c1.095-2.539,2.498-5.932,3.986-9.972c0.537-1.448,1.083-3.007,1.627-4.612c0.608,0.105,5.582,0.934,7.865,0.333
			c2.07-0.545,4.557-1.815,5.418-3.912c0.844-2.053-0.063-4.515-2.281-5.174c-3.077-0.914-7.598,2.704-9.217,5.069
			c-0.096,0.139-0.963,1.769-1.494,2.807c0.219-0.657,0.439-1.293,0.656-1.972c0.439-1.34,0.837-2.69,1.271-4.142
			c0.185-0.708,0.372-1.424,0.56-2.146c0.203-0.712,0.326-1.491,0.493-2.242c0.352-1.751,0.624-3.543,0.858-5.354
			c1.175,0.381,5.365,1.675,7.504,1.449c2.129-0.226,4.779-1.104,5.948-3.046c1.144-1.901,0.622-4.472-1.47-5.46
			c-2.904-1.37-7.92,1.522-9.879,3.615c-0.122,0.13-1.359,1.79-2.021,2.715c0.132-1.09,0.269-2.177,0.367-3.284
			c0.283-3.195,0.469-6.438,0.67-9.673c0.061-0.991,0.133-1.977,0.203-2.965c0.416,0.14,5.364,1.786,7.76,1.533
			c2.129-0.225,4.779-1.104,5.948-3.046c1.144-1.901,0.622-4.473-1.47-5.46c-2.903-1.37-7.92,1.522-9.879,3.614
			c-0.148,0.158-1.924,2.548-2.346,3.178c0.152-2.175,0.325-4.342,0.581-6.471c0.35-2.938,0.855-5.801,1.55-8.539
			c0.194,0.066,5.35,1.807,7.804,1.547c2.129-0.225,4.779-1.104,5.948-3.046c1.144-1.901,0.622-4.473-1.47-5.459
			c-2.904-1.37-7.92,1.521-9.879,3.614c-0.129,0.137-1.484,1.957-2.108,2.838c-0.091-0.043-0.075-0.035-0.166-0.079
			c0.78-2.924,1.903-5.657,3.081-8.164c0.679-1.453,1.41-2.805,2.151-4.104c0.927,0.423,5.185,2.307,7.419,2.318
			c2.141,0.01,4.872-0.573,6.247-2.374c1.346-1.764,1.109-4.378-0.862-5.588c-2.735-1.681-8.039,0.643-10.216,2.507
			c-0.118,0.102-1.208,1.266-1.99,2.125c0.343-0.581,0.687-1.187,1.026-1.737c1.271-2.069,2.562-3.884,3.718-5.483
			c0.665-0.904,1.284-1.708,1.871-2.455c1.126-0.06,5.661-0.358,7.613-1.36c1.905-0.978,4.06-2.753,4.45-4.986
			c0.382-2.186-1.033-4.396-3.34-4.562c-3.202-0.231-6.838,4.275-7.912,6.933c-0.092,0.23-1.13,3.989-1.071,3.987
			c0,0,0.055-0.003,0.068-0.003c-0.58,0.707-1.193,1.471-1.846,2.32c-1.194,1.577-2.528,3.37-3.849,5.419
			c-1.325,2.044-2.707,4.303-3.948,6.813c-1.247,2.514-2.431,5.223-3.29,8.171c-0.01,0.033-0.016,0.069-0.025,0.103
			c-0.017-0.94-0.151-3.568-0.185-3.769c-0.469-2.828-3.036-8.018-6.212-8.49c-2.288-0.34-4.15,1.509-4.253,3.726
			c-0.105,2.264,1.611,4.465,3.258,5.835c1.857,1.544,6.907,2.925,7.31,3.033c-0.792,2.816-1.376,5.769-1.803,8.791
			c-0.246,1.727-0.44,3.475-0.612,5.229c-0.04-0.813-0.083-1.539-0.1-1.64c-0.469-2.828-3.036-8.018-6.212-8.49
			c-2.288-0.34-4.15,1.509-4.253,3.726c-0.106,2.264,1.611,4.466,3.258,5.835c1.67,1.389,5.953,2.653,7.091,2.972
			c-0.059,0.674-0.125,1.346-0.182,2.02c-0.271,3.233-0.528,6.461-0.876,9.62c-0.122,1.113-0.284,2.205-0.441,3.298
			c-0.037-0.722-0.074-1.329-0.089-1.421c-0.469-2.828-3.036-8.018-6.212-8.489c-2.288-0.34-4.15,1.509-4.253,3.726
			c-0.105,2.264,1.612,4.465,3.258,5.835c1.594,1.326,5.537,2.528,6.887,2.913c-0.195,1.114-0.388,2.23-0.628,3.302
			c-0.18,0.728-0.303,1.441-0.524,2.162c-0.204,0.718-0.406,1.429-0.606,2.133c-0.436,1.342-0.876,2.729-1.333,4.028
			c-0.312,0.905-0.625,1.762-0.938,2.627c0.135-1.107,0.353-3.278,0.351-3.462c-0.023-1.905-0.808-4.975-2.23-7.102
			c-0.002-0.281-0.028-0.561-0.082-0.838c-0.429-2.177-2.544-3.731-4.756-3.057c-3.071,0.935-4.846,6.447-4.892,9.313
			c-0.003,0.169,0.173,2.007,0.303,3.165c-0.18-0.669-0.347-1.321-0.541-2.007c-0.373-1.36-0.786-2.706-1.225-4.156
			c-0.237-0.692-0.476-1.392-0.717-2.099c-0.224-0.706-0.551-1.423-0.825-2.142c-0.673-1.655-1.435-3.299-2.239-4.939
			c1.19-0.33,5.399-1.563,7.058-2.931c1.651-1.363,3.377-3.557,3.281-5.822c-0.094-2.217-1.949-4.073-4.238-3.743
			c-3.178,0.459-5.767,5.638-6.246,8.465c-0.03,0.176-0.146,2.243-0.188,3.38c-0.491-0.982-0.976-1.965-1.506-2.941
			c-1.527-2.821-3.16-5.628-4.778-8.437c-0.496-0.86-0.979-1.723-1.467-2.584c0.425-0.113,5.459-1.47,7.318-3.003
			c1.652-1.363,3.377-3.558,3.281-5.822c-0.094-2.217-1.949-4.073-4.238-3.743c-3.178,0.459-5.766,5.638-6.246,8.465
			c-0.036,0.213-0.199,3.187-0.204,3.945c-1.073-1.898-2.125-3.8-3.085-5.717c-1.329-2.644-2.487-5.31-3.417-7.977
			c0.198-0.052,5.459-1.444,7.362-3.015c1.652-1.362,3.377-3.557,3.281-5.822c-0.094-2.217-1.949-4.073-4.238-3.742
			c-3.178,0.459-5.766,5.638-6.246,8.464c-0.032,0.186-0.158,2.453-0.193,3.532c-0.1,0.014-0.081,0.012-0.181,0.026
			c-0.963-2.869-1.534-5.769-1.934-8.511c-0.235-1.587-0.371-3.117-0.47-4.609c1.007-0.159,5.598-0.936,7.467-2.159
			c1.792-1.173,3.747-3.165,3.901-5.426c0.15-2.214-1.49-4.263-3.802-4.186c-3.208,0.107-6.35,4.971-7.138,7.727
			c-0.043,0.15-0.309,1.722-0.488,2.87c-0.034-0.673-0.082-1.369-0.102-2.015c-0.082-2.426-0.007-4.653,0.076-6.625
			c0.056-1.121,0.129-2.133,0.207-3.08c0.906-0.671,4.524-3.422,5.6-5.334c1.049-1.866,1.867-4.536,0.961-6.613
			c-0.888-2.034-3.287-3.097-5.303-1.963c-2.798,1.574-3.345,7.338-2.774,10.148c0.05,0.243,1.258,3.951,1.306,3.916
			c0,0,0.044-0.033,0.055-0.04c-0.093,0.909-0.183,1.886-0.259,2.953c-0.126,1.974-0.25,4.206-0.221,6.643
			c0.023,2.436,0.115,5.082,0.465,7.86c0.347,2.785,0.853,5.698,1.764,8.631c0.01,0.033,0.025,0.066,0.036,0.099
			c-0.533-0.775-2.095-2.893-2.233-3.042c-1.951-2.1-6.956-5.012-9.865-3.654c-2.096,0.979-2.629,3.548-1.492,5.454
			C633.008,393.641,635.654,394.53,637.782,394.764z"/>
		<path style="opacity:0.3;fill:#263238;" d="M635.262,378.52c2.338,0.924,7.965,0.599,7.97,0.598
			c0.058-0.003-1.341-3.644-1.455-3.864c-1.327-2.541-5.385-6.671-8.55-6.129c-2.28,0.391-3.472,2.728-2.879,4.866
			C630.954,376.176,633.271,377.732,635.262,378.52z"/>
		<path style="opacity:0.3;fill:#263238;" d="M692.269,377.748c0.051,0.03,0.892-3.779,0.918-4.026
			c0.295-2.852-0.811-8.535-3.75-9.828c-2.117-0.932-4.401,0.359-5.086,2.47c-0.699,2.156,0.375,4.732,1.601,6.488
			C687.392,374.913,692.266,377.746,692.269,377.748z"/>
		<path style="opacity:0.3;fill:#263238;" d="M637.782,394.764c2.4,0.264,7.375-1.371,7.77-1.503
			c0.893,2.785,2.035,5.571,3.346,8.327c0.748,1.576,1.55,3.141,2.374,4.699c-0.482-0.656-0.918-1.238-0.988-1.313
			c-1.951-2.101-6.956-5.012-9.865-3.654c-2.096,0.979-2.629,3.548-1.492,5.454c1.161,1.947,3.807,2.836,5.936,3.07
			c2.16,0.237,6.429-1.071,7.554-1.433c0.323,0.595,0.638,1.192,0.962,1.785c1.558,2.846,3.125,5.68,4.576,8.507
			c0.513,0.996,0.98,1.995,1.452,2.994c-0.429-0.582-0.795-1.068-0.858-1.136c-1.951-2.1-6.956-5.013-9.865-3.654
			c-2.096,0.979-2.629,3.548-1.492,5.454c1.161,1.946,3.807,2.836,5.936,3.069c2.061,0.226,6.012-0.946,7.351-1.369
			c0.452,1.037,0.907,2.075,1.298,3.1c0.251,0.706,0.542,1.369,0.755,2.092c0.226,0.712,0.449,1.416,0.671,2.113
			c0.377,1.359,0.775,2.76,1.109,4.095c0.24,0.927,0.451,1.815,0.667,2.708c-0.498-0.997-1.514-2.929-1.617-3.081
			c-1.61-2.372-6.116-6.008-9.198-5.106c-2.22,0.65-3.136,3.108-2.301,5.165c0.853,2.1,3.334,3.38,5.403,3.934
			c2.277,0.609,7.244-0.197,7.863-0.301c0.351,1.48,0.68,2.923,0.967,4.289c1.006,4.723,1.665,8.695,2.087,11.483l2.176-0.077
			c-0.014-0.084-0.027-0.16-0.042-0.246c-0.489-2.812-1.242-6.817-2.364-11.575c-0.351-1.504-0.756-3.105-1.187-4.744
			c0.37-0.162,2.467-1.098,4.315-2.218c1.705,1.72,5.986,3.653,6.541,3.899c-0.523,1.428-1.046,2.813-1.56,4.111
			c-1.768,4.497-3.411,8.176-4.597,10.734l2.388-0.084c1.095-2.539,2.498-5.932,3.986-9.972c0.537-1.448,1.083-3.007,1.627-4.612
			c0.608,0.105,5.582,0.934,7.865,0.333c2.07-0.545,4.557-1.815,5.418-3.912c0.844-2.053-0.063-4.515-2.281-5.174
			c-3.077-0.914-7.598,2.704-9.217,5.069c-0.096,0.139-0.963,1.769-1.494,2.807c0.219-0.657,0.439-1.293,0.656-1.972
			c0.439-1.34,0.837-2.69,1.271-4.142c0.185-0.708,0.372-1.424,0.56-2.146c0.203-0.712,0.326-1.491,0.493-2.242
			c0.352-1.751,0.624-3.543,0.858-5.354c1.175,0.381,5.365,1.675,7.504,1.449c2.129-0.226,4.779-1.104,5.948-3.046
			c1.144-1.901,0.622-4.472-1.47-5.46c-2.904-1.37-7.92,1.522-9.879,3.615c-0.122,0.13-1.359,1.79-2.021,2.715
			c0.132-1.09,0.269-2.177,0.367-3.284c0.283-3.195,0.469-6.438,0.67-9.673c0.061-0.991,0.133-1.977,0.203-2.965
			c0.416,0.14,5.364,1.786,7.76,1.533c2.129-0.225,4.779-1.104,5.948-3.046c1.144-1.901,0.622-4.473-1.47-5.46
			c-2.903-1.37-7.92,1.522-9.879,3.614c-0.148,0.158-1.924,2.548-2.346,3.178c0.152-2.175,0.325-4.342,0.581-6.471
			c0.35-2.938,0.855-5.801,1.55-8.539c0.194,0.066,5.35,1.807,7.804,1.547c2.129-0.225,4.779-1.104,5.948-3.046
			c1.144-1.901,0.622-4.473-1.47-5.459c-2.904-1.37-7.92,1.521-9.879,3.614c-0.129,0.137-1.484,1.957-2.108,2.838
			c-0.091-0.043-0.075-0.035-0.166-0.079c0.78-2.924,1.903-5.657,3.081-8.164c0.679-1.453,1.41-2.805,2.151-4.104
			c0.927,0.423,5.185,2.307,7.419,2.318c2.141,0.01,4.872-0.573,6.247-2.374c1.346-1.764,1.109-4.378-0.862-5.588
			c-2.735-1.681-8.039,0.643-10.216,2.507c-0.118,0.102-1.208,1.266-1.99,2.125c0.343-0.581,0.687-1.187,1.026-1.737
			c1.271-2.069,2.562-3.884,3.718-5.483c0.665-0.904,1.284-1.708,1.871-2.455c1.126-0.06,5.661-0.358,7.613-1.36
			c1.905-0.978,4.06-2.753,4.45-4.986c0.382-2.186-1.033-4.396-3.34-4.562c-3.202-0.231-6.838,4.275-7.912,6.933
			c-0.092,0.23-1.13,3.989-1.071,3.987c0,0,0.055-0.003,0.068-0.003c-0.58,0.707-1.193,1.471-1.846,2.32
			c-1.194,1.577-2.528,3.37-3.849,5.419c-1.325,2.044-2.707,4.303-3.948,6.813c-1.247,2.514-2.431,5.223-3.29,8.171
			c-0.01,0.033-0.016,0.069-0.025,0.103c-0.017-0.94-0.151-3.568-0.185-3.769c-0.469-2.828-3.036-8.018-6.212-8.49
			c-2.288-0.34-4.15,1.509-4.253,3.726c-0.105,2.264,1.611,4.465,3.258,5.835c1.857,1.544,6.907,2.925,7.31,3.033
			c-0.792,2.816-1.376,5.769-1.803,8.791c-0.246,1.727-0.44,3.475-0.612,5.229c-0.04-0.813-0.083-1.539-0.1-1.64
			c-0.469-2.828-3.036-8.018-6.212-8.49c-2.288-0.34-4.15,1.509-4.253,3.726c-0.106,2.264,1.611,4.466,3.258,5.835
			c1.67,1.389,5.953,2.653,7.091,2.972c-0.059,0.674-0.125,1.346-0.182,2.02c-0.271,3.233-0.528,6.461-0.876,9.62
			c-0.122,1.113-0.284,2.205-0.441,3.298c-0.037-0.722-0.074-1.329-0.089-1.421c-0.469-2.828-3.036-8.018-6.212-8.489
			c-2.288-0.34-4.15,1.509-4.253,3.726c-0.105,2.264,1.612,4.465,3.258,5.835c1.594,1.326,5.537,2.528,6.887,2.913
			c-0.195,1.114-0.388,2.23-0.628,3.302c-0.18,0.728-0.303,1.441-0.524,2.162c-0.204,0.718-0.406,1.429-0.606,2.133
			c-0.436,1.342-0.876,2.729-1.333,4.028c-0.312,0.905-0.625,1.762-0.938,2.627c0.135-1.107,0.353-3.278,0.351-3.462
			c-0.023-1.905-0.808-4.975-2.23-7.102c-0.002-0.281-0.028-0.561-0.082-0.838c-0.429-2.177-2.544-3.731-4.756-3.057
			c-3.071,0.935-4.846,6.447-4.892,9.313c-0.003,0.169,0.173,2.007,0.303,3.165c-0.18-0.669-0.347-1.321-0.541-2.007
			c-0.373-1.36-0.786-2.706-1.225-4.156c-0.237-0.692-0.476-1.392-0.717-2.099c-0.224-0.706-0.551-1.423-0.825-2.142
			c-0.673-1.655-1.435-3.299-2.239-4.939c1.19-0.33,5.399-1.563,7.058-2.931c1.651-1.363,3.377-3.557,3.281-5.822
			c-0.094-2.217-1.949-4.073-4.238-3.743c-3.178,0.459-5.767,5.638-6.246,8.465c-0.03,0.176-0.146,2.243-0.188,3.38
			c-0.491-0.982-0.976-1.965-1.506-2.941c-1.527-2.821-3.16-5.628-4.778-8.437c-0.496-0.86-0.979-1.723-1.467-2.584
			c0.425-0.113,5.459-1.47,7.318-3.003c1.652-1.363,3.377-3.558,3.281-5.822c-0.094-2.217-1.949-4.073-4.238-3.743
			c-3.178,0.459-5.766,5.638-6.246,8.465c-0.036,0.213-0.199,3.187-0.204,3.945c-1.073-1.898-2.125-3.8-3.085-5.717
			c-1.329-2.644-2.487-5.31-3.417-7.977c0.198-0.052,5.459-1.444,7.362-3.015c1.652-1.362,3.377-3.557,3.281-5.822
			c-0.094-2.217-1.949-4.073-4.238-3.742c-3.178,0.459-5.766,5.638-6.246,8.464c-0.032,0.186-0.158,2.453-0.193,3.532
			c-0.1,0.014-0.081,0.012-0.181,0.026c-0.963-2.869-1.534-5.769-1.934-8.511c-0.235-1.587-0.371-3.117-0.47-4.609
			c1.007-0.159,5.598-0.936,7.467-2.159c1.792-1.173,3.747-3.165,3.901-5.426c0.15-2.214-1.49-4.263-3.802-4.186
			c-3.208,0.107-6.35,4.971-7.138,7.727c-0.043,0.15-0.309,1.722-0.488,2.87c-0.034-0.673-0.082-1.369-0.102-2.015
			c-0.082-2.426-0.007-4.653,0.076-6.625c0.056-1.121,0.129-2.133,0.207-3.08c0.906-0.671,4.524-3.422,5.6-5.334
			c1.049-1.866,1.867-4.536,0.961-6.613c-0.888-2.034-3.287-3.097-5.303-1.963c-2.798,1.574-3.345,7.338-2.774,10.148
			c0.05,0.243,1.258,3.951,1.306,3.916c0,0,0.044-0.033,0.055-0.04c-0.093,0.909-0.183,1.886-0.259,2.953
			c-0.126,1.974-0.25,4.206-0.221,6.643c0.023,2.436,0.115,5.082,0.465,7.86c0.347,2.785,0.853,5.698,1.764,8.631
			c0.01,0.033,0.025,0.066,0.036,0.099c-0.533-0.775-2.095-2.893-2.233-3.042c-1.951-2.1-6.956-5.012-9.865-3.654
			c-2.096,0.979-2.629,3.548-1.492,5.454C633.008,393.641,635.654,394.53,637.782,394.764z"/>
	</g>
</g>
<g id="Clouds">
	<g>
		<path style="fill:#FFFFFF;stroke:#263238;stroke-linecap:round;stroke-linejoin:round;stroke-miterlimit:10;" d="M346.44,71.417
			c-5.631-3.071-8.19-0.512-10.238-3.071c-2.047-2.56,5.631-9.215-9.726-15.869c0,0-1.023-14.333-22.012-14.845
			c-20.988-0.512-15.357,14.333-20.988,17.917c-5.631,3.583-7.166-2.048-12.798,1.535c-5.632,3.583-3.072,10.75-7.679,11.774
			c-4.607,1.024-10.75-4.607-16.381-1.024c-5.631,3.583-5.631,6.654-8.19,6.654c-2.559,0-7.679-2.047-10.75,0
			c-3.071,2.048-6.655,4.607-6.655,4.607h129.511C350.535,79.096,352.07,74.489,346.44,71.417z"/>
	</g>
	<g>
		<path style="fill:#FFFFFF;stroke:#263238;stroke-linecap:round;stroke-linejoin:round;stroke-miterlimit:10;" d="M89.78,65.59
			c-2.916-1.59-4.242-0.265-5.302-1.59c-1.06-1.326,2.916-4.772-5.037-8.219c0,0-0.53-7.423-11.4-7.688
			c-10.87-0.265-7.953,7.424-10.87,9.279c-2.916,1.856-3.712-1.06-6.628,0.795c-2.917,1.856-1.591,5.568-3.977,6.098
			c-2.386,0.53-5.568-2.386-8.484-0.53c-2.916,1.856-2.916,3.446-4.242,3.446c-1.326,0-3.977-1.06-5.568,0
			c-1.591,1.061-3.446,2.386-3.446,2.386h67.075C91.901,69.566,92.696,67.18,89.78,65.59z"/>
	</g>
	<g>
		<path style="fill:#FFFFFF;stroke:#263238;stroke-linecap:round;stroke-linejoin:round;stroke-miterlimit:10;" d="M221.78,140.589
			c-2.916-1.59-4.242-0.265-5.302-1.59c-1.06-1.326,2.916-4.772-5.037-8.219c0,0-0.53-7.423-11.4-7.688
			c-10.87-0.265-7.954,7.424-10.87,9.279c-2.916,1.856-3.711-1.06-6.628,0.795c-2.917,1.856-1.591,5.568-3.977,6.098
			c-2.386,0.53-5.568-2.386-8.484-0.53c-2.916,1.856-2.916,3.446-4.242,3.446c-1.326,0-3.977-1.06-5.568,0
			c-1.591,1.061-3.447,2.386-3.447,2.386h67.075C223.901,144.566,224.696,142.18,221.78,140.589z"/>
	</g>
</g>
<g id="Thecnical_Drawing">
	<g>
		<g>
			
				<rect x="72.477" y="162.253" style="fill:#FFFFFF;stroke:#263238;stroke-linecap:round;stroke-linejoin:round;stroke-miterlimit:10;" width="416" height="292"/>
			
				<rect x="80.06" y="168.238" style="fill:#FFFFFF;stroke:#263238;stroke-linecap:round;stroke-linejoin:round;stroke-miterlimit:10;" width="400.833" height="280.03"/>
			<polyline style="fill:#FFFFFF;stroke:#263238;stroke-linecap:round;stroke-linejoin:round;stroke-miterlimit:10;" points="
				346.783,447.693 346.783,428.735 480.917,428.735 			"/>
			
				<line style="fill:#FFFFFF;stroke:#263238;stroke-linecap:round;stroke-linejoin:round;stroke-miterlimit:10;" x1="347.405" y1="437.991" x2="480.576" y2="437.991"/>
			
				<line style="fill:#FFFFFF;stroke:#263238;stroke-linecap:round;stroke-linejoin:round;stroke-miterlimit:10;" x1="370.977" y1="429.086" x2="370.977" y2="448.086"/>
			
				<line style="fill:#FFFFFF;stroke:#263238;stroke-linecap:round;stroke-linejoin:round;stroke-miterlimit:10;" x1="417.81" y1="438.253" x2="417.81" y2="448.086"/>
		</g>
		<g>
			<g>
				<g>
					
						<rect x="144.942" y="297.77" style="fill:#FFFFFF;stroke:#263238;stroke-linecap:round;stroke-linejoin:round;stroke-miterlimit:10;" width="296.885" height="93.685"/>
					<polygon style="fill:#92E3A9;stroke:#263238;stroke-linecap:round;stroke-linejoin:round;stroke-miterlimit:10;" points="
						293.777,212.294 145.727,297.77 441.827,297.77 					"/>
				</g>
				
					<rect x="280.07" y="290.158" style="fill:#FFFFFF;stroke:#263238;stroke-linecap:round;stroke-linejoin:round;stroke-miterlimit:10;" width="73.467" height="101.297"/>
				
					<rect x="280.07" y="290.158" style="fill:#263238;stroke:#263238;stroke-linecap:round;stroke-linejoin:round;stroke-miterlimit:10;" width="73.467" height="4.308"/>
				<path style="fill:#263238;stroke:#263238;stroke-linecap:round;stroke-linejoin:round;stroke-miterlimit:10;" d="
					M335.15,391.455h-36.691v-63.319c0-10.132,8.214-18.346,18.346-18.346l0,0c10.132,0,18.345,8.214,18.345,18.346V391.455z"/>
				
					<rect x="123.626" y="314.181" style="fill:#FFFFFF;stroke:#263238;stroke-linecap:round;stroke-linejoin:round;stroke-miterlimit:10;" width="170.174" height="77.274"/>
				
					<rect x="123.626" y="314.181" style="fill:#263238;stroke:#263238;stroke-linecap:round;stroke-linejoin:round;stroke-miterlimit:10;" width="170.174" height="3.446"/>
				
					<rect x="142.351" y="320.555" style="fill:#FFFFFF;stroke:#263238;stroke-linecap:round;stroke-linejoin:round;stroke-miterlimit:10;" width="132.724" height="70.9"/>
				<polygon style="fill:#92E3A9;stroke:#263238;stroke-linecap:round;stroke-linejoin:round;stroke-miterlimit:10;" points="
					208.712,257.648 118.399,309.79 299.026,309.79 				"/>
				
					<rect x="118.399" y="309.79" style="fill:#92E3A9;stroke:#263238;stroke-linecap:round;stroke-linejoin:round;stroke-miterlimit:10;" width="180.627" height="4.39"/>
				<polygon style="fill:#92E3A9;stroke:#263238;stroke-linecap:round;stroke-linejoin:round;stroke-miterlimit:10;" points="
					316.804,260.755 270.032,287.759 363.575,287.759 				"/>
				
					<rect x="270.032" y="287.759" style="fill:#92E3A9;stroke:#263238;stroke-linecap:round;stroke-linejoin:round;stroke-miterlimit:10;" width="93.543" height="4.336"/>
				<g>
					<g>
						
							<rect x="147.185" y="326.253" style="fill:#FFFFFF;stroke:#263238;stroke-width:0.5;stroke-linecap:round;stroke-linejoin:round;stroke-miterlimit:10;" width="10.748" height="10.748"/>
						
							<rect x="163.307" y="326.253" style="fill:#FFFFFF;stroke:#263238;stroke-width:0.5;stroke-linecap:round;stroke-linejoin:round;stroke-miterlimit:10;" width="10.748" height="10.748"/>
						
							<rect x="179.43" y="326.253" style="fill:#FFFFFF;stroke:#263238;stroke-width:0.5;stroke-linecap:round;stroke-linejoin:round;stroke-miterlimit:10;" width="10.749" height="10.748"/>
						
							<rect x="195.553" y="326.253" style="fill:#FFFFFF;stroke:#263238;stroke-width:0.5;stroke-linecap:round;stroke-linejoin:round;stroke-miterlimit:10;" width="10.748" height="10.748"/>
						
							<rect x="211.675" y="326.253" style="fill:#FFFFFF;stroke:#263238;stroke-width:0.5;stroke-linecap:round;stroke-linejoin:round;stroke-miterlimit:10;" width="10.748" height="10.748"/>
						
							<rect x="227.798" y="326.253" style="fill:#FFFFFF;stroke:#263238;stroke-width:0.5;stroke-linecap:round;stroke-linejoin:round;stroke-miterlimit:10;" width="10.749" height="10.748"/>
						
							<rect x="243.921" y="326.253" style="fill:#FFFFFF;stroke:#263238;stroke-width:0.5;stroke-linecap:round;stroke-linejoin:round;stroke-miterlimit:10;" width="10.748" height="10.748"/>
						
							<rect x="260.043" y="326.253" style="fill:#FFFFFF;stroke:#263238;stroke-width:0.5;stroke-linecap:round;stroke-linejoin:round;stroke-miterlimit:10;" width="10.748" height="10.748"/>
					</g>
					<g>
						
							<rect x="147.185" y="342.069" style="fill:#FFFFFF;stroke:#263238;stroke-width:0.5;stroke-linecap:round;stroke-linejoin:round;stroke-miterlimit:10;" width="10.748" height="10.748"/>
						
							<rect x="163.307" y="342.069" style="fill:#FFFFFF;stroke:#263238;stroke-width:0.5;stroke-linecap:round;stroke-linejoin:round;stroke-miterlimit:10;" width="10.748" height="10.748"/>
						
							<rect x="179.43" y="342.069" style="fill:#FFFFFF;stroke:#263238;stroke-width:0.5;stroke-linecap:round;stroke-linejoin:round;stroke-miterlimit:10;" width="10.749" height="10.748"/>
						
							<rect x="195.553" y="342.069" style="fill:#FFFFFF;stroke:#263238;stroke-width:0.5;stroke-linecap:round;stroke-linejoin:round;stroke-miterlimit:10;" width="10.748" height="10.748"/>
						
							<rect x="211.675" y="342.069" style="fill:#FFFFFF;stroke:#263238;stroke-width:0.5;stroke-linecap:round;stroke-linejoin:round;stroke-miterlimit:10;" width="10.748" height="10.748"/>
						
							<rect x="227.798" y="342.069" style="fill:#FFFFFF;stroke:#263238;stroke-width:0.5;stroke-linecap:round;stroke-linejoin:round;stroke-miterlimit:10;" width="10.749" height="10.748"/>
						
							<rect x="243.921" y="342.069" style="fill:#FFFFFF;stroke:#263238;stroke-width:0.5;stroke-linecap:round;stroke-linejoin:round;stroke-miterlimit:10;" width="10.748" height="10.748"/>
						
							<rect x="260.043" y="342.069" style="fill:#FFFFFF;stroke:#263238;stroke-width:0.5;stroke-linecap:round;stroke-linejoin:round;stroke-miterlimit:10;" width="10.748" height="10.748"/>
					</g>
					<g>
						
							<rect x="147.185" y="357.886" style="fill:#FFFFFF;stroke:#263238;stroke-width:0.5;stroke-linecap:round;stroke-linejoin:round;stroke-miterlimit:10;" width="10.748" height="10.748"/>
						
							<rect x="163.307" y="357.886" style="fill:#FFFFFF;stroke:#263238;stroke-width:0.5;stroke-linecap:round;stroke-linejoin:round;stroke-miterlimit:10;" width="10.748" height="10.748"/>
						
							<rect x="179.43" y="357.886" style="fill:#FFFFFF;stroke:#263238;stroke-width:0.5;stroke-linecap:round;stroke-linejoin:round;stroke-miterlimit:10;" width="10.749" height="10.748"/>
						
							<rect x="195.553" y="357.886" style="fill:#FFFFFF;stroke:#263238;stroke-width:0.5;stroke-linecap:round;stroke-linejoin:round;stroke-miterlimit:10;" width="10.748" height="10.748"/>
						
							<rect x="211.675" y="357.886" style="fill:#FFFFFF;stroke:#263238;stroke-width:0.5;stroke-linecap:round;stroke-linejoin:round;stroke-miterlimit:10;" width="10.748" height="10.748"/>
						
							<rect x="227.798" y="357.886" style="fill:#FFFFFF;stroke:#263238;stroke-width:0.5;stroke-linecap:round;stroke-linejoin:round;stroke-miterlimit:10;" width="10.749" height="10.748"/>
						
							<rect x="243.921" y="357.886" style="fill:#FFFFFF;stroke:#263238;stroke-width:0.5;stroke-linecap:round;stroke-linejoin:round;stroke-miterlimit:10;" width="10.748" height="10.748"/>
						
							<rect x="260.043" y="357.886" style="fill:#FFFFFF;stroke:#263238;stroke-width:0.5;stroke-linecap:round;stroke-linejoin:round;stroke-miterlimit:10;" width="10.748" height="10.748"/>
					</g>
					<g>
						
							<rect x="147.185" y="373.702" style="fill:#FFFFFF;stroke:#263238;stroke-width:0.5;stroke-linecap:round;stroke-linejoin:round;stroke-miterlimit:10;" width="10.748" height="10.748"/>
						
							<rect x="163.307" y="373.702" style="fill:#FFFFFF;stroke:#263238;stroke-width:0.5;stroke-linecap:round;stroke-linejoin:round;stroke-miterlimit:10;" width="10.748" height="10.748"/>
						
							<rect x="179.43" y="373.702" style="fill:#FFFFFF;stroke:#263238;stroke-width:0.5;stroke-linecap:round;stroke-linejoin:round;stroke-miterlimit:10;" width="10.749" height="10.748"/>
						
							<rect x="195.553" y="373.702" style="fill:#FFFFFF;stroke:#263238;stroke-width:0.5;stroke-linecap:round;stroke-linejoin:round;stroke-miterlimit:10;" width="10.748" height="10.748"/>
						
							<rect x="211.675" y="373.702" style="fill:#FFFFFF;stroke:#263238;stroke-width:0.5;stroke-linecap:round;stroke-linejoin:round;stroke-miterlimit:10;" width="10.748" height="10.748"/>
						
							<rect x="227.798" y="373.702" style="fill:#FFFFFF;stroke:#263238;stroke-width:0.5;stroke-linecap:round;stroke-linejoin:round;stroke-miterlimit:10;" width="10.749" height="10.748"/>
						
							<rect x="243.921" y="373.702" style="fill:#FFFFFF;stroke:#263238;stroke-width:0.5;stroke-linecap:round;stroke-linejoin:round;stroke-miterlimit:10;" width="10.748" height="10.748"/>
						
							<rect x="260.043" y="373.702" style="fill:#FFFFFF;stroke:#263238;stroke-width:0.5;stroke-linecap:round;stroke-linejoin:round;stroke-miterlimit:10;" width="10.748" height="10.748"/>
					</g>
				</g>
				<polygon style="fill:#FFFFFF;stroke:#263238;stroke-linecap:round;stroke-linejoin:round;stroke-miterlimit:10;" points="
					450.244,391.455 341.7,391.455 341.7,290.158 395.972,260.755 450.244,290.158 				"/>
				<g>
					<polygon style="fill:#92E3A9;stroke:#263238;stroke-linecap:round;stroke-linejoin:round;stroke-miterlimit:10;" points="
						458.54,294.466 395.971,260.568 333.402,294.466 331.456,290.873 395.971,255.921 460.487,290.873 					"/>
				</g>
				<polygon style="fill:#263238;stroke:#263238;stroke-linecap:round;stroke-linejoin:round;stroke-miterlimit:10;" points="
					341.7,290.158 341.7,292.62 395.971,263.217 450.244,292.621 450.244,290.158 395.972,260.755 				"/>
				<g>
					
						<rect x="397.722" y="324.879" style="fill:#263238;stroke:#263238;stroke-linecap:round;stroke-linejoin:round;stroke-miterlimit:10;" width="18.213" height="12.658"/>
					
						<rect x="397.722" y="341.699" style="fill:#263238;stroke:#263238;stroke-linecap:round;stroke-linejoin:round;stroke-miterlimit:10;" width="18.213" height="12.658"/>
					
						<rect x="397.722" y="307.201" style="fill:#263238;stroke:#263238;stroke-linecap:round;stroke-linejoin:round;stroke-miterlimit:10;" width="18.213" height="13.515"/>
					
						<rect x="375.346" y="307.201" style="fill:#263238;stroke:#263238;stroke-linecap:round;stroke-linejoin:round;stroke-miterlimit:10;" width="18.213" height="13.515"/>
					
						<rect x="375.346" y="341.699" style="fill:#263238;stroke:#263238;stroke-linecap:round;stroke-linejoin:round;stroke-miterlimit:10;" width="18.213" height="12.658"/>
					
						<rect x="375.346" y="324.879" style="fill:#263238;stroke:#263238;stroke-linecap:round;stroke-linejoin:round;stroke-miterlimit:10;" width="18.213" height="12.658"/>
					
						<rect x="397.722" y="358.52" style="fill:#263238;stroke:#263238;stroke-linecap:round;stroke-linejoin:round;stroke-miterlimit:10;" width="18.213" height="11.646"/>
					
						<rect x="375.346" y="358.52" style="fill:#263238;stroke:#263238;stroke-linecap:round;stroke-linejoin:round;stroke-miterlimit:10;" width="18.213" height="11.646"/>
				</g>
			</g>
			
				<line style="fill:none;stroke:#263238;stroke-linecap:round;stroke-linejoin:round;stroke-miterlimit:10;" x1="285.592" y1="212.495" x2="105.127" y2="212.495"/>
			
				<line style="fill:none;stroke:#263238;stroke-linecap:round;stroke-linejoin:round;stroke-miterlimit:10;" x1="119.052" y1="391.289" x2="104.059" y2="391.289"/>
			
				<line style="fill:none;stroke:#263238;stroke-linecap:round;stroke-linejoin:round;stroke-miterlimit:10;" x1="110.697" y1="209.153" x2="110.697" y2="396.302"/>
			
				<line style="fill:none;stroke:#263238;stroke-linecap:round;stroke-linejoin:round;stroke-miterlimit:10;" x1="450.461" y1="394.631" x2="450.461" y2="403.543"/>
			
				<line style="fill:none;stroke:#263238;stroke-linecap:round;stroke-linejoin:round;stroke-miterlimit:10;" x1="123.508" y1="394.631" x2="123.508" y2="403.543"/>
			
				<line style="fill:none;stroke:#263238;stroke-linecap:round;stroke-linejoin:round;stroke-miterlimit:10;" x1="119.052" y1="399.644" x2="456.031" y2="399.644"/>
			
				<line style="fill:none;stroke:#263238;stroke-linecap:round;stroke-linejoin:round;stroke-miterlimit:10;" x1="193.132" y1="257.611" x2="102.342" y2="257.611"/>
			
				<line style="fill:none;stroke:#263238;stroke-linecap:round;stroke-linejoin:round;stroke-miterlimit:10;" x1="105.127" y1="252.598" x2="105.127" y2="394.631"/>
			
				<line style="fill:none;stroke:#263238;stroke-linecap:round;stroke-linejoin:round;stroke-miterlimit:10;" x1="334.607" y1="282.676" x2="334.607" y2="216.951"/>
			
				<line style="fill:none;stroke:#263238;stroke-linecap:round;stroke-linejoin:round;stroke-miterlimit:10;" x1="459.373" y1="282.676" x2="459.373" y2="216.951"/>
			
				<line style="fill:none;stroke:#263238;stroke-linecap:round;stroke-linejoin:round;stroke-miterlimit:10;" x1="331.266" y1="225.306" x2="464.386" y2="225.306"/>
			
				<line style="fill:none;stroke:#263238;stroke-linecap:round;stroke-linejoin:round;stroke-miterlimit:10;" x1="297.846" y1="394.631" x2="297.846" y2="405.214"/>
			
				<line style="fill:none;stroke:#263238;stroke-linecap:round;stroke-linejoin:round;stroke-miterlimit:10;" x1="335.164" y1="394.631" x2="335.164" y2="405.214"/>
		</g>
	</g>
</g>
<g id="Hammer">
	<g>
		<path style="fill:none;stroke:#263238;stroke-miterlimit:10;" d="M638.134,65.752h-5.993c-0.972,0-1.759-0.788-1.759-1.759V50.505
			c0-0.972,0.788-1.759,1.759-1.759h5.993c0.972,0,1.759,0.788,1.759,1.759v13.488C639.894,64.964,639.106,65.752,638.134,65.752z"
			/>
		<path style="fill:none;stroke:#263238;stroke-miterlimit:10;" d="M639.894,49.932c0,0,0.431,2.866,6.497,1.439
			c6.066-1.427,9.277-4.103,9.277-4.103s17.306-0.357,26.226,4.282c8.92,4.639,25.156,29.081,25.156,29.081l-2.141,1.963
			c0,0-4.995-7.136-14.094-14.273c-9.099-7.136-12.667-7.493-13.381-3.568c-0.714,3.925-2.141,12.31-2.141,12.31h-17.306
			l-2.621-8.808c-1.206-4.053-5.171-6.632-9.366-6.102c-2.451,0.31-4.86,0.994-6.106,2.415V49.932z"/>
		<path style="fill:none;stroke:#263238;stroke-miterlimit:10;" d="M679.431,250.46c0,0-1.685-95.715-4.044-118.633
			c-2.359-22.918-1.348-40.78-0.337-44.487c1.011-3.707,0.27-10.279,0.27-10.279l-11.047,0.158l-6.285-0.158
			c0,0-0.741,6.571,0.27,10.279c1.011,3.707,2.022,21.57-0.337,44.487c-2.359,22.918-4.044,118.633-4.044,118.633
			s-0.745,2.635,3.033,3.37c3.132,0.609,6.39,0.209,7.416,0.054c2.224,0.155,8.944,0.554,12.072-0.054
			C680.176,253.095,679.431,250.46,679.431,250.46z"/>
	</g>
</g>
<g id="Saw">
	<g>
		<path style="fill:none;stroke:#263238;stroke-miterlimit:10;" d="M541.23,77.842l-1.774-21.683l2.098-0.75
			c0,0,2.436,3.812,5.126,4.241c2.69,0.429,5.07,1.969,7.653,0.802c2.583-1.167,12.396-4.967,18.464-7.234
			c6.068-2.266,10.095-1.51,13.975-4.848c3.88-3.338,4.01-8.092,4.01-8.092l2.29-0.282l6.644,47.456l-22.96,24.817
			c0,0-3.276,1.342-5.549,1.398c-2.273,0.056-26.77,0.031-26.77,0.031l-1.601-2.842L541.23,77.842z"/>
		<path style="fill:none;stroke:#263238;stroke-miterlimit:10;" d="M551.589,78.847c0,0,2.233-2.554,5.826-2.058
			c3.592,0.497,4.703,0.807,5.465-0.27c0.761-1.077,1.85-3.491,4.557-3.287c2.707,0.203,3.508,1.624,4.72,0.581
			c1.213-1.043,3.012-3.857,5.267-3.688c2.256,0.169,3.09,1.139,3.451-0.648c0.361-1.788,5.369-5.041,9.728-2.672
			c4.359,2.369,6.05,7.033,0.512,14.33c-5.539,7.297-22.892,14.841-29.134,16.413c-6.243,1.573-9.598-2.082-10.782-4.439
			C550.015,90.752,547.884,82.879,551.589,78.847z"/>
		<polyline style="fill:none;stroke:#263238;stroke-miterlimit:10;" points="545.112,113.748 545.229,254.174 559.665,255.258 
			603.431,89.319 599.715,87.452 		"/>
		<path style="fill:none;stroke:#263238;stroke-miterlimit:10;" d="M553.367,245.484c-1.246-0.094-2.18-1.179-2.086-2.425
			c0.094-1.246,1.179-2.18,2.425-2.086c1.246,0.094,2.18,1.179,2.086,2.425C555.698,244.644,554.613,245.578,553.367,245.484z"/>
	</g>
</g>
<g id="Measuring_Tape">
	<g>
		<path style="fill:none;stroke:#263238;stroke-miterlimit:10;" d="M461.618,142.711l-1.051,1.576c0,0-5.779,4.728-7.355,6.83
			c-1.576,2.101-4.991,0.525-8.143,0c-3.152-0.525-7.88-3.152-8.668-3.415c-0.788-0.263-14.185-3.678-17.862-3.678
			c-3.678,0-6.567,0-9.719,0c-3.152,0-27.319-5.516-27.319-5.516s-3.94,0.263-9.719-3.152c-5.779-3.415-8.143-13.659-9.194-16.023
			c-1.051-2.364-1.576-4.728-0.263-8.931c1.313-4.203,11.295-32.047,16.549-40.453c5.254-8.406,19.176-20.752,38.876-19.438
			c19.701,1.313,27.844,12.346,27.844,12.346l9.719,11.033v1.051c0,0,3.415-0.525,5.254,1.313c1.839,1.839,3.415,6.304,2.627,7.618
			c-0.788,1.313-3.152,4.991-3.152,4.991l0.525,27.056c0,0,2.889,3.415,2.889,7.618c0,4.203-0.263,7.355-0.263,7.355"/>
		<path style="fill:none;stroke:#263238;stroke-miterlimit:10;" d="M385.178,67.847c0,0,14.71-8.931,30.996-1.051"/>
		<path style="fill:none;stroke:#263238;stroke-miterlimit:10;" d="M441.654,102.784c0,0,4.728,28.632-17.337,35.724"/>
		<path style="fill:none;stroke:#263238;stroke-miterlimit:10;" d="M443.755,115.918v17.074c0,0,3.678,3.415,3.678,6.042
			s0,8.669,0,8.669"/>
		<path style="fill:none;stroke:#263238;stroke-miterlimit:10;" d="M458.728,88.862l-11.295,7.618h-2.364
			c-4.991-14.447-13.659-22.065-13.659-22.065l1.051-1.839c0,0,7.355-8.406,13.134-9.719"/>
		<polyline style="fill:none;stroke:#263238;stroke-miterlimit:10;" points="433.511,72.838 441.654,84.133 446.12,85.972 
			449.272,90.963 448.221,95.166 		"/>
		<line style="fill:none;stroke:#263238;stroke-miterlimit:10;" x1="446.12" y1="85.972" x2="459.254" y2="77.041"/>
		<line style="fill:none;stroke:#263238;stroke-miterlimit:10;" x1="441.654" y1="84.133" x2="454" y2="76.253"/>
		<path style="fill:none;stroke:#263238;stroke-miterlimit:10;" d="M370.205,101.733c0,0,4.203,22.065,20.226,32.835"/>
		<path style="fill:none;stroke:#263238;stroke-miterlimit:10;" d="M369.68,106.724c0,0-1.839,7.618-0.525,11.821
			c1.313,4.203,4.466,10.507,7.88,12.346c3.415,1.839,8.143,2.101,8.143,2.101"/>
		
			<ellipse transform="matrix(0.7677 -0.6408 0.6408 0.7677 28.9506 285.0472)" style="fill:none;stroke:#263238;stroke-miterlimit:10;" cx="407.633" cy="102.593" rx="22.196" ry="28.821"/>
		<path style="fill:none;stroke:#263238;stroke-miterlimit:10;" d="M514.679,141.66l2.364-3.415l-55.163-7.618l-10.77,7.88v2.627
			l54.112,7.88l0.13,0.399l2.383,7.298l1.694,0.565l0.706,4.941l9.882-10.023l0.141-5.223l1.271-2.541l-0.282-11.435l-2.682,2.682
			l0.565,8.47l-0.988-0.847c0,0-1.835-0.706-2.118-1.129c-0.282-0.423-1.553-0.706-3.812-0.282
			c-2.259,0.424-3.529,0.988-5.365,0.988c-1.835,0-8.188-1.412-10.306-1.412c-2.118,0-4.094,3.67-4.094,3.67l-0.847,0.847
			l14.258,2.541"/>
		<polygon style="fill:none;stroke:#263238;stroke-miterlimit:10;" points="516.63,149.795 512.959,153.324 513.524,154.312 
			516.771,151.489 		"/>
		<path style="fill:none;stroke:#263238;stroke-miterlimit:10;" d="M468.349,131.583c0,0-1.129,4.518-2.682,6.635"/>
		<path style="fill:none;stroke:#263238;stroke-miterlimit:10;" d="M473.572,132.572c0,0-0.706,2.4-1.412,3.812"/>
		<path style="fill:none;stroke:#263238;stroke-miterlimit:10;" d="M478.796,132.854c0,0-1.553,4.941-3.106,7.341"/>
		<path style="fill:none;stroke:#263238;stroke-miterlimit:10;" d="M484.16,133.701c0,0,0,1.835-1.129,3.671"/>
		<path style="fill:none;stroke:#263238;stroke-miterlimit:10;" d="M488.96,134.548c0,0-1.412,5.082-3.247,7.906"/>
		<line style="fill:none;stroke:#263238;stroke-miterlimit:10;" x1="493.901" y1="134.972" x2="492.63" y2="139.207"/>
		<line style="fill:none;stroke:#263238;stroke-miterlimit:10;" x1="498.56" y1="136.101" x2="497.289" y2="141.183"/>
		<line style="fill:none;stroke:#263238;stroke-miterlimit:10;" x1="503.783" y1="136.807" x2="502.936" y2="140.054"/>
		<line style="fill:none;stroke:#263238;stroke-miterlimit:10;" x1="508.865" y1="137.654" x2="507.312" y2="142.454"/>
		<line style="fill:none;stroke:#263238;stroke-miterlimit:10;" x1="463.125" y1="131.442" x2="461.855" y2="135.254"/>
		<path style="fill:none;stroke:#263238;stroke-miterlimit:10;" d="M500.154,143.934c0,0.608-1.051,1.1-2.347,1.1
			c-1.296,0-2.347-0.493-2.347-1.1c0-0.608,1.051-1.1,2.347-1.1C499.103,142.834,500.154,143.326,500.154,143.934z"/>
		<path style="fill:none;stroke:#263238;stroke-miterlimit:10;" d="M511.155,145.694c0,0.689-1.116,1.247-2.493,1.247
			s-2.493-0.558-2.493-1.247c0-0.688,1.116-1.247,2.493-1.247S511.155,145.005,511.155,145.694z"/>
	</g>
</g>
<g id="Character_1">
	<g>
		<g>
			<path style="fill:#FFFFFF;stroke:#263238;stroke-linecap:round;stroke-linejoin:round;stroke-miterlimit:10;" d="M503.23,338.253
				c0,0-0.5,11.25,1.25,15s6.75,4.5,6.75,4.5l-0.25-17.75L503.23,338.253z"/>
			<polygon style="fill:#FFFFFF;stroke:#263238;stroke-linecap:round;stroke-linejoin:round;stroke-miterlimit:10;" points="
				503.48,335.503 502.98,341.003 511.48,341.503 511.73,336.003 			"/>
			<path style="fill:#92E3A9;stroke:#263238;stroke-linecap:round;stroke-linejoin:round;stroke-miterlimit:10;" d="M507.48,254.253
				c0,0-1.25,6.5-2.5,16s-1.25,46.25-1.25,47.5s-4,16.5-2,18s4.75,1.5,7.25,1.5s4.5-0.25,4.75-2s-0.75-74-1.25-78.25
				C511.98,252.753,507.48,254.253,507.48,254.253z"/>
		</g>
		<g>
			<path style="fill:#FFFFFF;stroke:#263238;stroke-linecap:round;stroke-linejoin:round;stroke-miterlimit:10;" d="
				M549.496,452.451c0,0-3.55,5.857-5.147,8.164c-1.597,2.307-8.342,6.034-8.696,7.454c-0.355,1.42,1.42,2.13,3.905,2.13
				c2.485,0,7.632-0.355,11.891-1.242c4.26-0.887,9.939-2.84,11.891-3.905c1.952-1.065,0.14-10.034,0.14-10.034
				S553.224,455.646,549.496,452.451z"/>
			<path style="fill:#263238;stroke:#263238;stroke-linecap:round;stroke-linejoin:round;stroke-miterlimit:10;" d="M511.48,317.003
				c0,0,0.25,47.75,0.5,50.5s6.25,57.5,6.25,57.5l0.75,7.75c0,0-2,3.25-1.5,5.5s0.75,10.5,0.75,10.5s3.75-0.25,7,1
				s9.75,1.75,9.75,1.75s0.25-6.75,0.5-9.5s-0.25-7.5-0.25-10s1.75-70.25,1.75-70.25s6.5,50.75,7.75,57s2,12.5,2,12.5l0.75,2.5
				l-2.25,3.5l2.75,17.257c0,0-0.25-1,3.5,1s12,0.5,12,0.5s1.75-9.757,2-10.757s2.25-16.25,1.25-19s-3.25-7.25-3.25-9
				s-0.75-22.75-0.75-22.75s2-51.25,1.75-57.75s-1.25-21.75-1.25-21.75s-17.75,4-29,4.75S511.48,317.003,511.48,317.003z"/>
			<polyline style="fill:none;stroke:#969696;stroke-linecap:round;stroke-linejoin:round;stroke-miterlimit:10;" points="
				536.98,361.753 535.73,345.503 530.48,339.753 			"/>
			<path style="fill:#FFFFFF;stroke:#263238;stroke-linecap:round;stroke-linejoin:round;stroke-miterlimit:10;" d="
				M519.502,448.016c0,0-7.277,7.632-9.584,9.406c-2.307,1.775-6.744,2.485-6.212,4.97c0.532,2.485,2.662,2.662,6.034,2.662
				c3.372,0,13.134-2.307,14.908-2.307c1.775,0,7.809,0.533,9.229-0.887c1.42-1.42,0.177-11.004,0.177-11.004L519.502,448.016z"/>
		</g>
		<path style="fill:#92E3A9;stroke:#263238;stroke-linecap:round;stroke-linejoin:round;stroke-miterlimit:10;" d="M528.98,243.503
			c0,0-21.25,9-21.5,10.75c-0.25,1.75,1.75,31.5,1.5,38.75s0.5,22.75,1.25,25.25s5.376,3.272,13.75,4.75c8.5,1.5,27.5,0,32.5-2.25
			s6.75-3,6.75-5.75s2.75-55.75,2.75-58.5c0-2.75-13.75-9.75-16.25-11S535.48,242.753,528.98,243.503z"/>
		<path style="fill:#FFFFFF;stroke:#263238;stroke-linecap:round;stroke-linejoin:round;stroke-miterlimit:10;" d="M531.73,239.503
			c0,0-4.25,3.25-5.5,5s-4.25,14.25-4.25,14.25l12-6.75l4.5,0.5l9,7.75c0,0,5.25-10.75,5.5-13.5s-7.964-7.946-11-8.25
			C536.98,238.003,531.73,239.503,531.73,239.503z"/>
		<g>
			<path style="fill:#FFFFFF;stroke:#263238;stroke-linecap:round;stroke-linejoin:round;stroke-miterlimit:10;" d="
				M520.935,207.066c0,0-3.497,9.992-2.498,11.241c0.999,1.249,0.999,2.248,0.999,2.248l0.25,0.999c0,0-3.747,7.244-2.498,7.744
				s3.747,0.999,3.747,0.999s0.25,9.742,2.248,11.49c1.998,1.749,6.994,0.5,6.994,0.5l3.497,16.986l13.489-18.735l0.25-6.744
				c0,0,1.499-7.494,2.748-9.742c1.249-2.248,5.496-8.993,3.997-15.487c-1.499-6.495-10.242-12.989-19.484-12.989
				c-9.242,0-15.237,5.246-15.237,7.494C519.436,205.317,520.935,207.066,520.935,207.066z"/>
			<path style="fill:#263238;stroke:#263238;stroke-linecap:round;stroke-linejoin:round;stroke-miterlimit:10;" d="
				M544.416,229.797c0,0,1.777,0.887,3.522,1.579c0.548-2.395,1.435-5.904,2.224-7.324c1.249-2.248,5.496-8.993,3.997-15.487
				c-1.499-6.495-10.242-12.989-19.484-12.989c-9.242,0-15.237,5.246-15.237,7.494c0,2.248,1.499,3.997,1.499,3.997
				s0.5,0.5,3.497,0.5s9.992-2.248,10.242,0.749s-3.747,5.745-1.998,6.994c1.749,1.249,4.247,2.248,4.247,2.248
				s-1.499,5.495,0.5,5.745c1.998,0.25,2.748-0.25,3.247-2.248c0.5-1.998,1.499-5.246,4.996-2.248
				c3.497,2.998,1.249,8.743,0.5,9.492C545.415,229.048,544.416,229.797,544.416,229.797z"/>
			<path style="fill:#263238;" d="M525.45,221.707c0,0.913-0.451,1.652-1.008,1.652s-1.009-0.74-1.009-1.652
				c0-0.912,0.452-1.652,1.009-1.652S525.45,220.795,525.45,221.707z"/>
			<path style="fill:none;stroke:#263238;stroke-linecap:round;stroke-linejoin:round;stroke-miterlimit:10;" d="M523.106,231.681
				c0,0,3.516,0.703,5.743-1.758"/>
			<path style="fill:none;stroke:#263238;stroke-linecap:round;stroke-linejoin:round;stroke-miterlimit:10;" d="M522.051,217.968
				c0,0,1.289-2.579,5.04-0.234"/>
			<polygon style="fill:#263238;stroke:#263238;stroke-miterlimit:10;" points="530.178,242.287 536.702,239.769 530.842,245.395 
							"/>
		</g>
		<g>
			<path style="fill:#FFFFFF;stroke:#263238;stroke-linecap:round;stroke-linejoin:round;stroke-miterlimit:10;" d="
				M562.834,339.375c0,0-1.244,3.734-1.556,5.601c-0.311,1.867-0.156,6.223,0,6.845c0.156,0.622,1.711,0.156,1.711,0.156
				s0.156,1.867,0.311,4.356c0.156,2.489,2.8,1.867,3.889,1.089c1.089-0.778,3.889-3.423,4.512-6.534
				c0.622-3.111-0.778-9.957-0.778-9.957L562.834,339.375z"/>
			<path style="fill:#FFFFFF;stroke:#263238;stroke-linecap:round;stroke-linejoin:round;stroke-miterlimit:10;" d="
				M562.368,336.264v4.667c0,0,1.245,0.933,3.578,1.089s4.978-1.089,4.978-1.089l0.311-3.267L562.368,336.264z"/>
			<path style="fill:#92E3A9;stroke:#263238;stroke-linecap:round;stroke-linejoin:round;stroke-miterlimit:10;" d="M562.98,252.503
				c0,0,6.75,4.5,7.75,5.75s4,29.75,6,37.5s-2.75,39.5-2.5,40.5s-4.25,3.5-9.25,2s-5.5-1-5.25-2.75s0.5-30.75,0.5-32
				s-3.75-30.5-3.75-30.5"/>
		</g>
	</g>
</g>
<g id="Character_2">
	<g>
		<path style="fill:#FFFFFF;stroke:#263238;stroke-linecap:round;stroke-linejoin:round;stroke-miterlimit:10;" d="M569.707,259.003
			c0,0-6.756,3.423-7.975,8.786c-1.139,5.011-2.277,0.911-0.683,37.124c0.243,5.527,2.951,12.215,5.488,8.834
			c2.536-3.382,3.17-7.398,3.17-14.796c0-7.398-0.423-24.307,0-30.014C570.13,263.23,571.821,259.426,569.707,259.003z"/>
		<g>
			<path style="fill:#FFFFFF;stroke:#263238;stroke-linecap:round;stroke-linejoin:round;stroke-miterlimit:10;" d="
				M570.223,399.583l6.436,55.094l-4.891,10.555c0,0-5.664,4.119-3.347,4.377c2.317,0.257,5.921,0,7.981-0.258
				c2.06-0.257,4.119-3.347,4.634-4.119c0.515-0.772,0.515,4.377,0.515,4.377h2.059c0,0,0.772-5.149,0-7.723
				c-0.772-2.574-1.03-9.268-1.03-9.268l3.604-48.4L570.223,399.583z"/>
			<path style="fill:#263238;stroke:#263238;stroke-linecap:round;stroke-linejoin:round;stroke-miterlimit:10;" d="M583,458.331
				c-1.675,2.059-5.355,6.439-7.114,7.416c-2.317,1.287-4.119-0.515-4.119-0.515s-5.664,4.119-3.347,4.377
				c2.317,0.257,5.921,0,7.981-0.258c2.06-0.257,4.119-3.347,4.634-4.119c0.515-0.772,0.515,4.377,0.515,4.377h2.059
				c0,0,0.772-5.149,0-7.723C583.352,461.026,583.153,459.706,583,458.331z"/>
		</g>
		<path style="fill:#FFFFFF;stroke:#263238;stroke-linecap:round;stroke-linejoin:round;stroke-miterlimit:10;" d="M587.472,401.642
			l4.119,57.153c0,0-4.119,11.585-3.862,12.615s1.287,1.802,3.862,0.257c2.575-1.545,4.634-1.545,5.406-6.436
			c0.772-4.891,0.772-6.694,0.772-6.694l6.694-58.955L587.472,401.642z"/>
		<path style="fill:#263238;stroke:#263238;stroke-linecap:round;stroke-linejoin:round;stroke-miterlimit:10;" d="M596.858,465.232
			c0.034-0.218,0.066-0.423,0.097-0.629c-1.38,1.397-3.354,2.986-4.988,2.689c-2.832-0.515-2.06-2.317-2.06-2.317l-0.524-0.131
			c-0.983,2.986-1.92,6.06-1.793,6.567c0.258,1.03,1.287,1.802,3.862,0.257C594.026,470.123,596.086,470.123,596.858,465.232z"/>
		<path style="fill:#263238;stroke:#263238;stroke-linecap:round;stroke-linejoin:round;stroke-miterlimit:10;" d="M561.675,330.655
			c0,0-2.523,8.427-1.236,25.161c1.287,16.734,4.119,44.281,4.119,44.281s13.13,3.862,22.913,3.862s24.972-3.347,24.972-3.347
			s3.488-42.409,0.772-55.866c-2.716-13.457-3.862-15.447-3.862-15.447l-44.538-3.862L561.675,330.655z"/>
		<g>
			<path style="fill:#92E3A9;stroke:#263238;stroke-linecap:round;stroke-linejoin:round;stroke-miterlimit:10;" d="
				M578.796,252.028l-0.634,3.382l-8.455,3.593c0,0-4.016,12.048-4.016,21.559c0,9.511,2.325,26.632,2.325,28.534
				c0,1.902-6.341,21.559-6.341,21.559s6.552,6.341,21.77,6.975s27.055-6.341,27.055-6.341s-7.186-19.023-7.82-22.827
				c-0.634-3.805,0.845-16.064,0.845-16.064s2.536-28.534,1.268-31.07c-1.268-2.536-12.893-5.707-13.739-6.552
				c-0.845-0.845-0.145-11.468-0.145-11.468L578.796,252.028z"/>
			
				<line style="fill:none;stroke:#263238;stroke-linecap:round;stroke-linejoin:round;stroke-miterlimit:10;" x1="575.333" y1="297.486" x2="587.179" y2="310.409"/>
			
				<line style="fill:none;stroke:#263238;stroke-linecap:round;stroke-linejoin:round;stroke-miterlimit:10;" x1="574.256" y1="301.794" x2="581.076" y2="308.256"/>
		</g>
		<path style="fill:#FFFFFF;stroke:#263238;stroke-linecap:round;stroke-linejoin:round;stroke-miterlimit:10;" d="M595.811,256.688
			c-2.399-0.879-4.422-1.578-4.756-1.912c-0.845-0.845-0.145-11.468-0.145-11.468l-12.114,8.72l-0.634,3.382l-4.126,1.754
			c-0.156,1.92-0.007,5.035,1.801,8.392c2.959,5.495,5.284,8.243,7.82,5.495C585.445,269.114,592.06,261.195,595.811,256.688z"/>
		
			<line style="fill:#FFFFFF;stroke:#263238;stroke-linecap:round;stroke-linejoin:round;stroke-miterlimit:10;" x1="578.162" y1="255.41" x2="578.162" y2="260.06"/>
		<path style="fill:#FFFFFF;stroke:#263238;stroke-linecap:round;stroke-linejoin:round;stroke-miterlimit:10;" d="M561.887,299.374
			c0,0-1.355,8.691,1.472,19.335c3.468,13.055,6.771,24.629,6.771,24.629s0.845,5.496,1.057,8.666
			c0.211,3.171,1.268,3.171,2.536,2.114c1.268-1.057,4.861-5.073,4.861-6.341c0-1.268-4.618-7.014-4.618-7.648
			c0-0.634-6.584-36.527-6.584-36.527"/>
		<g>
			<path style="fill:#263238;stroke:#263238;stroke-linecap:round;stroke-linejoin:round;stroke-miterlimit:10;" d="
				M572.883,225.463c0,0-3.604,1.545-7.895-3.261c-4.291-4.806,1.888-8.753,7.552-12.701c5.664-3.948,12.186-3.089,20.081-1.373
				c7.895,1.716,11.671,14.417,14.589,19.909c2.918,5.492,5.149,13.902-2.06,18.879c-7.208,4.977-14.589,2.231-16.648-0.172
				c-2.06-2.403,1.888-7.38,0.858-10.984c-1.03-3.604-9.096-11.156-11.843-11.842C574.771,223.232,572.883,225.463,572.883,225.463z
				"/>
			<g>
				<path style="fill:#FFFFFF;stroke:#263238;stroke-linecap:round;stroke-linejoin:round;stroke-miterlimit:10;" d="
					M569.526,224.33c0,0-2.673,10.959-0.802,15.236c1.871,4.277,4.544,13.899,8.286,14.434c3.742,0.535,12.563-8.019,13.899-10.692
					c1.336-2.673,1.336-4.544,1.336-4.544s-0.267,1.337,2.138-0.267c2.406-1.604,2.406-4.544,2.406-4.544s-9.623-3.475-12.296-6.683
					c-2.673-3.207-5.346-7.752-5.346-7.752S571.13,222.994,569.526,224.33z"/>
				<path style="fill:none;stroke:#263238;stroke-linecap:round;stroke-linejoin:round;stroke-miterlimit:10;" d="M575.139,227.805
					c0,0,0.802,3.742,0,6.148c-0.802,2.406-4.544,4.811-3.208,5.346c1.336,0.535,4.009,0.535,4.009,0.535"/>
				<path style="fill:#263238;" d="M580.268,231.705c0,0.778-0.394,1.409-0.881,1.409c-0.486,0-0.881-0.631-0.881-1.409
					c0-0.778,0.394-1.409,0.881-1.409C579.874,230.296,580.268,230.927,580.268,231.705z"/>
				<ellipse style="fill:#263238;" cx="570.92" cy="230.725" rx="0.881" ry="1.409"/>
				<path style="fill:none;stroke:#263238;stroke-linecap:round;stroke-linejoin:round;stroke-miterlimit:10;" d="M578.905,227.386
					c0,0,2.113-0.704,3.698,1.409"/>
				<path style="fill:none;stroke:#263238;stroke-linecap:round;stroke-linejoin:round;stroke-miterlimit:10;" d="M574.15,227.21
					c0,0-1.761-2.113-3.17-0.528"/>
				<path style="fill:none;stroke:#263238;stroke-linecap:round;stroke-linejoin:round;stroke-miterlimit:10;" d="M573.445,242.533
					c0,0,4.051,1.233,6.517-0.528"/>
			</g>
		</g>
		<g>
			<g>
				<path style="fill:#FFFFFF;stroke:#263238;stroke-linecap:round;stroke-linejoin:round;stroke-miterlimit:10;" d="
					M600.778,259.214c0,0-5.073,11.414-5.073,19.868c0,8.455,1.479,12.682,1.479,12.682l-1.691,16.064l-12.259,34.875
					c0,0-6.975,2.959-8.243,4.016c-1.268,1.057-4.65,7.609-4.861,8.666c-0.211,1.057,0.423,2.959,0.423,2.959
					s0.211,0.634,2.325,1.057c2.114,0.423,2.536-1.268,2.536-1.902s2.959-3.17,2.959-3.17s1.678-0.384,4.003-2.498
					c2.325-2.114,4.055-4.846,4.055-4.846s18.996-36.197,19.419-38.311c0.423-2.114,3.171-13.527,3.171-13.527
					s4.861-17.543,2.536-26.843C609.232,259.003,600.778,259.214,600.778,259.214z"/>
				
					<line style="fill:#FFFFFF;stroke:#263238;stroke-linecap:round;stroke-linejoin:round;stroke-miterlimit:10;" x1="597.185" y1="291.764" x2="598.241" y2="274.432"/>
			</g>
			<path style="fill:none;stroke:#263238;stroke-linecap:round;stroke-linejoin:round;stroke-miterlimit:10;" d="M571.497,358.358
				c0,0-0.396-1.978-0.297-2.473c0.099-0.495,3.659-6.429,3.659-6.429"/>
			<polyline style="fill:none;stroke:#263238;stroke-linecap:round;stroke-linejoin:round;stroke-miterlimit:10;" points="
				572.98,358.853 572.881,355.886 576.838,350.446 			"/>
		</g>
	</g>
</g>
</svg>
